Socialicons.sfdir
StartChar: period
Encoding: 46 46 0
Width: 800
VWidth: 0
Flags: W
HStem: 0 21G<154 646>
LayerCount: 4
Back
Fore
SplineSet
172 800 m 2
 628 800 l 2
 664 800 712 800 756 756 c 0
 800 712 800 664 800 628 c 2
 800 172 l 2
 800 136 800 88 756 44 c 0
 712 0 664 0 628 0 c 2
 172 0 l 2
 136 0 88 0 44 44 c 0
 0 88 0 136 0 172 c 2
 0 628 l 2
 0 664 0 712 44 756 c 0
 88 800 136 800 172 800 c 2
EndSplineSet
Layer: 2
Layer: 3
EndChar
StartChar: github
Encoding: 48 48 1
Width: 800
VWidth: 0
Flags: W
VStem: 140 94<342.329 468.888> 566 94<342.329 468.888>
LayerCount: 3
Back
SplineSet
399.975585938 660.791015625 m 4
 543.579101562 660.791015625 660 544.385742188 660 400.783203125 c 4
 660 285.942382812 585.573242188 188.561523438 482.3359375 154.1015625 c 4
 469.135742188 151.564453125 464.458984375 159.657226562 464.458984375 166.616210938 c 4
 464.458984375 175.138671875 464.779296875 203.182617188 464.779296875 237.9296875 c 4
 464.779296875 262.19140625 456.462890625 278.056640625 447.125 286.084960938 c 5
 505.048828125 292.517578125 565.844726562 314.49609375 565.844726562 414.381835938 c 4
 565.844726562 442.760742188 555.7734375 465.967773438 539.110351562 484.1484375 c 5
 541.791015625 490.723632812 550.713867188 517.15625 536.524414062 552.95703125 c 5
 536.524414062 552.95703125 514.737304688 559.948242188 465.09765625 526.30078125 c 5
 444.33203125 532.063476562 422.08203125 534.952148438 400.0078125 535.047851562 c 4
 377.90234375 534.952148438 355.65234375 532.063476562 334.91796875 526.30078125 c 5
 285.247070312 559.948242188 263.412109375 552.95703125 263.412109375 552.95703125 c 5
 249.26953125 517.15625 258.193359375 490.723632812 260.874023438 484.1484375 c 5
 244.243164062 465.967773438 234.107421875 442.760742188 234.107421875 414.381835938 c 4
 234.107421875 314.751953125 294.807617188 292.438476562 352.5390625 285.877929688 c 5
 345.100585938 279.381835938 338.3984375 267.921875 336.03515625 251.114257812 c 5
 321.22265625 244.474609375 283.5546875 232.998046875 260.36328125 272.725585938 c 5
 260.36328125 272.725585938 246.63671875 297.672851562 220.540039062 299.525390625 c 5
 220.540039062 299.525390625 195.146484375 299.84375 218.752929688 283.70703125 c 5
 218.752929688 283.70703125 235.798828125 275.7109375 247.625976562 245.688476562 c 5
 247.625976562 245.688476562 262.884765625 195.122070312 335.206054688 210.828125 c 5
 335.333007812 189.13671875 335.556640625 172.77734375 335.556640625 166.616210938 c 4
 335.556640625 159.720703125 330.81640625 151.692382812 317.807617188 154.0703125 c 4
 214.491210938 188.466796875 140 285.91015625 140 400.783203125 c 4
 140 544.385742188 256.405273438 660.791015625 399.975585938 660.791015625 c 4
EndSplineSet
Fore
SplineSet
400 661 m 4
 544 661 660 545 660 401 c 4
 660 286 585 188 482 154 c 4
 473 151 465 156 465 167 c 6
 465 238 l 6
 465 273 447 286 447 286 c 5
 504 292 566 314 566 414 c 4
 566 458 539 484 539 484 c 5
 539 484 553 513 537 553 c 5
 537 553 515 560 465 526 c 5
 423 538 377 538 335 526 c 5
 285 560 263 553 263 553 c 5
 247 513 261 484 261 484 c 5
 261 484 234 458 234 414 c 4
 234 314 296 292 353 286 c 5
 353 286 339 276 336 251 c 5
 321 244 283 233 260 273 c 5
 260 273 247 298 221 300 c 5
 221 300 195 300 219 284 c 5
 219 284 236 276 248 246 c 5
 248 246 264 195 336 211 c 5
 336 167 l 6
 336 156 327 151 318 154 c 4
 215 188 140 286 140 401 c 4
 140 545 256 661 400 661 c 4
EndSplineSet
Layer: 2
EndChar
StartChar: twitter
Encoding: 49 49 3
Width: 800
VWidth: 0
Flags: W
LayerCount: 3
Back
SplineSet
679.478515625 561.150390625 m 5
 664.655273438 538.975585938 645.905273438 519.500976562 624.303710938 503.911132812 c 4
 624.516601562 499.16796875 624.623046875 494.399414062 624.623046875 489.607421875 c 4
 624.623046875 343.489257812 513.405273438 175 310.018554688 175 c 4
 247.575195312 175 189.454101562 193.303710938 140.51953125 224.676757812 c 5
 149.168945312 223.65625 157.970703125 223.133789062 166.896484375 223.133789062 c 4
 218.702148438 223.133789062 266.377929688 240.810546875 304.22265625 270.466796875 c 5
 255.836914062 271.360351562 215.001953125 303.328125 200.9296875 347.2578125 c 5
 207.681640625 345.966796875 214.609375 345.275390625 221.734375 345.275390625 c 4
 231.818359375 345.275390625 241.5859375 346.625 250.865234375 349.153320312 c 5
 200.28125 359.306640625 162.166015625 404.000976562 162.166015625 457.575195312 c 4
 162.166015625 458.041015625 162.16796875 458.501953125 162.17578125 458.96484375 c 5
 177.083984375 450.682617188 194.133789062 445.708007812 212.258789062 445.133789062 c 5
 182.58984375 464.963867188 163.069335938 498.80859375 163.069335938 537.169921875 c 4
 163.069335938 557.43359375 168.522460938 576.428710938 178.040039062 592.759765625 c 5
 232.577148438 525.861328125 314.051757812 481.838867188 405.951171875 477.227539062 c 5
 404.06640625 485.323242188 403.0859375 493.759765625 403.0859375 502.428710938 c 4
 403.0859375 563.490234375 452.595703125 613 513.6640625 613 c 4
 545.465820312 613 574.203125 599.571289062 594.374023438 578.081054688 c 5
 619.560546875 583.0390625 643.225585938 592.241210938 664.58984375 604.913085938 c 5
 656.331054688 579.091796875 638.801757812 557.422851562 615.970703125 543.739257812 c 5
 638.337890625 546.41015625 659.649414062 552.356445312 679.478515625 561.150390625 c 5
EndSplineSet
Fore
SplineSet
679 561 m 1
 679 561 658 527 624 504 c 1
 631 348 517 175 310 175 c 0
 207 175 141 225 141 225 c 1
 141 225 222 208 304 270 c 1
 221 275 201 347 201 347 c 1
 201 347 224 341 251 349 c 1
 158 372 162 459 162 459 c 1
 162 459 185 445 212 445 c 1
 128 510 178 593 178 593 c 5
 178 593 254 486 406 477 c 1
 384 598 523 654 594 578 c 1
 631 584 665 605 665 605 c 1
 665 605 653 564 616 544 c 1
 646 546 679 561 679 561 c 1
EndSplineSet
Layer: 2
EndChar
StartChar: googleplus
Encoding: 50 50 4
Width: 800
VWidth: 0
HStem: 193 76<229.357 357.443> 359 71<292 409> 370 60<558 617 676 735> 531 76<229.357 354.843>
VStem: 85 79<334.119 465.658> 617 59<311 370 430 489>
LayerCount: 3
Back
SplineSet
487.114257812 429.544921875 m 5
 488.885742188 419.204101562 490.364257812 408.86328125 490.364257812 395.2734375 c 4
 490.364257812 277.090820312 411.181640625 193.181640625 291.818359375 193.181640625 c 4
 177.448242188 193.181640625 85 285.659179688 85 400 c 4
 85 514.340820312 177.448242188 606.818359375 291.818359375 606.818359375 c 4
 347.659179688 606.818359375 394.340820312 586.431640625 430.385742188 552.75 c 5
 374.25 498.681640625 l 5
 358.885742188 513.455078125 332 530.590820312 291.818359375 530.590820312 c 4
 221.205078125 530.590820312 163.590820312 472.090820312 163.590820312 400 c 4
 163.590820312 327.909179688 221.205078125 269.409179688 291.818359375 269.409179688 c 4
 373.658203125 269.409179688 404.385742188 328.203125 409.114257812 358.635742188 c 5
 291.818359375 358.635742188 l 5
 291.818359375 429.544921875 l 5
 487.114257812 429.544921875 l 5
675.909179688 488.635742188 m 5
 675.909179688 429.544921875 l 5
 735 429.544921875 l 5
 735 370.455078125 l 5
 675.909179688 370.455078125 l 5
 675.909179688 311.364257812 l 5
 616.818359375 311.364257812 l 5
 616.818359375 370.455078125 l 5
 557.7265625 370.455078125 l 5
 557.7265625 429.544921875 l 5
 616.818359375 429.544921875 l 5
 616.818359375 488.635742188 l 5
 675.909179688 488.635742188 l 5
EndSplineSet
Fore
SplineSet
487 430 m 1xbc
 508 301 425 193 292 193 c 0
 178 193 85 286 85 400 c 0
 85 514 178 607 292 607 c 0
 381 607 430 553 430 553 c 1
 374 499 l 1
 374 499 345 531 292 531 c 0
 221 531 164 472 164 400 c 0
 164 327 221 269 292 269 c 0
 373 269 405 327 409 359 c 1
 292 359 l 1
 292 430 l 1xdc
 487 430 l 1xbc
676 489 m 1
 676 430 l 1
 735 430 l 1
 735 370 l 1
 676 370 l 1
 676 311 l 1
 617 311 l 1
 617 370 l 1
 558 370 l 1
 558 430 l 1
 617 430 l 1xbc
 617 489 l 1
 676 489 l 1
EndSplineSet
Layer: 2
EndChar
StartChar: facebook
Encoding: 51 51 5
Width: 800
VWidth: 0
HStem: 170 178<356 416 487 547> 418 78<489.277 556> 561 69<448.425 558.982>
VStem: 170 246<171.303 348 418 527.564> 487 143<171.303 348 418 493.5> 559 71<385.333 418 496 558>
LayerCount: 4
Back
SplineSet
604.612304688 630 m 6
 618.6328125 630 630 618.63671875 630 604.612304688 c 6
 630 195.387695312 l 6
 630 181.3671875 618.6328125 170 604.612304688 170 c 6
 487.391601562 170 l 5
 487.391601562 348.134765625 l 5
 547.185546875 348.134765625 l 5
 556.137695312 417.55859375 l 5
 487.391601562 417.55859375 l 5
 487.391601562 461.8828125 l 6
 487.391601562 481.983398438 492.971679688 495.6796875 521.797851562 495.6796875 c 6
 558.557617188 495.697265625 l 5
 558.557617188 557.7890625 l 5
 552.200195312 558.633789062 530.377929688 560.524414062 504.991210938 560.524414062 c 4
 451.989257812 560.524414062 415.700195312 528.171875 415.700195312 468.756835938 c 6
 415.700195312 417.55859375 l 5
 355.75390625 417.55859375 l 5
 355.75390625 348.134765625 l 5
 415.700195312 348.134765625 l 5
 415.700195312 170 l 5
 195.387695312 170 l 6
 181.36328125 170 170 181.3671875 170 195.387695312 c 6
 170 604.612304688 l 6
 170 618.63671875 181.36328125 630 195.387695312 630 c 6
 604.612304688 630 l 6
EndSplineSet
Fore
SplineSet
604 630 m 6xf4
 619 630 630 619 630 604 c 6xf4
 630 196 l 6
 630 181 619 170 604 170 c 6
 487 170 l 5
 487 348 l 5
 547 348 l 5
 556 418 l 5
 487 418 l 5
 487 462 l 6xf8
 487 482 493 496 522 496 c 6
 559 496 l 5
 559 558 l 5
 559 558 535 561 505 561 c 4
 452 561 416 528 416 469 c 6
 416 418 l 5
 356 418 l 5
 356 348 l 5
 416 348 l 5
 416 170 l 5
 196 170 l 6
 181 170 170 181 170 196 c 6
 170 604 l 6
 170 619 181 630 196 630 c 6
 604 630 l 6xf4
EndSplineSet
Layer: 2
Layer: 3
EndChar
StartChar: facealt
Encoding: 52 52 6
Width: 800
VWidth: 0
HStem: 381 87<280 355 445 520> 566 81<451.711 533.978>
VStem: 355 90<157 381 468 558.475>
LayerCount: 4
Back
SplineSet
444.934570312 157 m 5
 354.981445312 157 l 5
 354.981445312 380.510742188 l 5
 279.764648438 380.510742188 l 5
 279.764648438 467.618164062 l 5
 354.981445312 467.618164062 l 5
 354.981445312 531.857421875 l 6
 354.981445312 606.407226562 400.510742188 647 467.015625 647 c 4
 498.87109375 647 526.249023438 644.627929688 534.231445312 643.568359375 c 5
 534.231445312 565.66015625 l 5
 488.102539062 565.637695312 l 6
 451.936523438 565.637695312 444.934570312 548.452148438 444.934570312 523.233398438 c 6
 444.934570312 467.618164062 l 5
 531.190429688 467.618164062 l 5
 519.958007812 380.510742188 l 5
 444.934570312 380.510742188 l 5
 444.934570312 157 l 5
EndSplineSet
Fore
SplineSet
445 157 m 5
 355 157 l 5
 355 381 l 5
 280 381 l 5
 280 468 l 5
 355 468 l 5
 355 532 l 6
 355 607 400 647 467 647 c 4
 504 647 534 644 534 644 c 5
 534 566 l 5
 488 566 l 6
 452 566 445 548 445 523 c 6
 445 468 l 5
 531 468 l 5
 520 381 l 5
 445 381 l 5
 445 157 l 5
EndSplineSet
Layer: 2
Layer: 3
SplineSet
445 157 m 1,0,-1
 355 157 l 1,1,-1
 355 381 l 1,2,-1
 280 381 l 1,3,-1
 280 468 l 1,4,-1
 355 468 l 1,5,-1
 355 532 l 2,6,7
 355 587 355 587 387 618 c 0,8,9
 417 647 417 647 467 647 c 4,10,11
 495 647 495 647 534 644 c 1,12,-1
 534 566 l 1,13,-1
 487 566 l 2,14,15
 445 566 445 566 445 528 c 2,16,-1
 445 468 l 1,17,-1
 531 468 l 1,18,-1
 520 381 l 1,19,-1
 445 381 l 1,20,-1
 445 157 l 1,0,-1
EndSplineSet
EndChar
StartChar: linkedin
Encoding: 53 53 7
Width: 800
VWidth: 0
Flags: H
LayerCount: 4
Back
SplineSet
267.779296875 171.114257812 m 5
 171.3671875 171.114257812 l 5
 171.3671875 481.313476562 l 5
 267.779296875 481.313476562 l 5
 267.779296875 171.114257812 l 5
424.57421875 171.114257812 m 5
 328.251953125 171.114257812 l 5
 328.251953125 481.313476562 l 5
 420.71875 481.313476562 l 5
 420.71875 438.927734375 l 5
 422.009765625 438.927734375 l 5
 434.8828125 463.31640625 466.327148438 489.02734375 513.231445312 489.02734375 c 4
 610.857421875 489.02734375 628.880859375 424.772460938 628.880859375 341.260742188 c 6
 628.880859375 171.114257812 l 5
 532.537109375 171.114257812 l 5
 532.537109375 321.963867188 l 6
 532.537109375 357.934570312 531.877929688 404.2109375 482.436523438 404.2109375 c 4
 432.274414062 404.2109375 424.57421875 365.026367188 424.57421875 324.568359375 c 6
 424.57421875 171.114257812 l 5
219.592773438 635.5078125 m 4
 250.4140625 635.5078125 275.461914062 610.459960938 275.461914062 579.625976562 c 4
 275.461914062 548.768554688 250.4140625 523.716796875 219.592773438 523.716796875 c 4
 188.696289062 523.716796875 163.68359375 548.768554688 163.68359375 579.625976562 c 4
 163.68359375 610.459960938 188.696289062 635.5078125 219.592773438 635.5078125 c 4
EndSplineSet
Fore
SplineSet
425 171 m 5
 328 171 l 5
 328 481 l 5
 421 481 l 5
 421 439 l 5
 422 439 l 5
 435 463 466 489 513 489 c 4
 611 489 629 425 629 341 c 6
 629 171 l 5
 533 171 l 5
 533 322 l 6
 533 358 531 404 482 404 c 4
 432 404 425 365 425 325 c 6
 425 171 l 5
EndSplineSet
Layer: 2
Layer: 3
SplineSet
328 171 m 5,0,-1
 328 481 l 5,1,-1
 421 481 l 5,2,-1
 421 439 l 5,3,-1
 422 439 l 5,4,5
 453 489 453 489 515 489 c 4,6,7
 629 489 629 489 629 356 c 6,8,-1
 629 171 l 5,9,-1
 533 171 l 5,10,-1
 533 334 l 6,11,12
 533 404 533 404 484 404 c 4,13,14
 425 404 425 404 425 335 c 6,15,-1
 425 171 l 5,16,-1
 328 171 l 5,0,-1
EndSplineSet
EndChar
StartChar: dribbble
Encoding: 54 54 8
Width: 800
VWidth: 0
HStem: 363 37<399.688 425 486.326 623> 407 39<178 343.06>
VStem: 135 39<315.144 407 446 484.856> 623 42<309.026 368.325 402 490.974>
LayerCount: 4
Back
SplineSet
400 135 m 4
 253.877929688 135 135 253.877929688 135 400 c 4
 135 546.122070312 253.877929688 665 400 665 c 4
 546.122070312 665 665 546.122070312 665 400 c 4
 665 253.877929688 546.122070312 135 400 135 c 4
623.48828125 363.724609375 m 5
 615.745117188 366.169921875 553.426757812 384.754882812 482.497070312 373.401367188 c 5
 512.1015625 292.045898438 524.151367188 225.78515625 526.469726562 212.015625 c 5
 577.25 246.3515625 613.400390625 300.744140625 623.48828125 363.724609375 c 5
488.416992188 191.29296875 m 5
 485.049804688 211.15234375 471.908203125 280.36328125 440.129882812 362.943359375 c 4
 439.631835938 362.7734375 439.134765625 362.612304688 438.63671875 362.439453125 c 4
 310.966796875 317.951171875 265.13671875 229.413085938 261.064453125 221.0859375 c 5
 299.442382812 191.159179688 347.672851562 173.303710938 400 173.303710938 c 4
 431.35546875 173.303710938 461.240234375 179.716796875 488.416992188 191.29296875 c 5
231.837890625 248.309570312 m 5
 236.965820312 257.086914062 299.086914062 359.944335938 415.825195312 397.677734375 c 4
 418.775390625 398.630859375 421.75 399.528320312 424.745117188 400.37109375 c 5
 419.063476562 413.228515625 412.874023438 426.1015625 406.392578125 438.784179688 c 5
 293.356445312 404.955078125 183.66796875 406.368164062 173.763671875 406.571289062 c 4
 173.6953125 404.2734375 173.649414062 401.96875 173.649414062 399.655273438 c 4
 173.649414062 341.518554688 195.686523438 288.438476562 231.837890625 248.309570312 c 5
178.4296875 446.013671875 m 5
 188.553710938 445.880859375 281.809570312 445.475585938 387.689453125 473.591796875 c 5
 350.18359375 540.262695312 309.735351562 596.31640625 303.767578125 604.499023438 c 5
 240.442382812 574.629882812 193.108398438 516.252929688 178.4296875 446.013671875 c 5
346.95703125 619.713867188 m 5
 353.213867188 611.3359375 394.32421875 555.352539062 431.415039062 487.205078125 c 5
 511.903320312 517.373046875 545.975585938 563.169921875 550.046875 568.96875 c 5
 510.07421875 604.432617188 457.512695312 626.005859375 400 626.005859375 c 4
 381.737304688 626.005859375 363.977539062 623.817382812 346.95703125 619.713867188 c 5
575.209960938 542.793945312 m 5
 570.438476562 536.338867188 532.5078125 487.71484375 448.818359375 453.545898438 c 5
 454.084960938 442.764648438 459.133789062 431.798828125 463.834960938 420.760742188 c 4
 465.500976562 416.84765625 467.123046875 412.955078125 468.7109375 409.079101562 c 5
 544.02734375 418.549804688 618.861328125 403.372070312 626.32421875 401.79296875 c 5
 625.826171875 455.217773438 606.735351562 504.27734375 575.209960938 542.793945312 c 5
EndSplineSet
Fore
SplineSet
400 135 m 0
 254 135 135 254 135 400 c 0
 135 546 254 665 400 665 c 0
 546 665 665 546 665 400 c 0
 665 254 546 135 400 135 c 0
623 364 m 1
 623 364 554 386 483 373 c 1
 513 292 526 212 526 212 c 1
 526 212 608 261 623 364 c 1
488 191 m 1
 488 191 473 281 440 363 c 1
 308 319 261 221 261 221 c 1
 261 221 357 138 488 191 c 1
232 248 m 1
 312 376 425 400 425 400 c 1
 425 400 413 427 406 439 c 1
 282 402 174 407 174 407 c 1
 174 407 166 320 232 248 c 1
178 446 m 1
 178 446 280 444 388 474 c 1
 350 545 304 604 304 604 c 1
 197 555 178 446 178 446 c 1
347 620 m 1
 347 620 397 555 432 486 c 1
 516 517 550 569 550 569 c 1
 550 569 474 647 347 620 c 1
449 453 m 1
 455 442 469 409 469 409 c 1
 469 409 533 420 626 402 c 1
 626 487 575 543 575 543 c 1
 575 543 537 488 449 453 c 1
EndSplineSet
Layer: 2
SplineSet
488 191 m 17
 471.883789062 275.530273438 439.172851562 424.396484375 304 604 c 1037
526 212 m 17
 509.883789062 296.530273438 479.172851562 442.396484375 347 620 c 1033
EndSplineSet
Layer: 3
EndChar
StartChar: behance
Encoding: 55 55 9
Width: 800
VWidth: 0
HStem: 215 53<522.214 613.872> 222 60<193 323.415> 333 45<506 621> 380 53<193 312.808> 433 53<522.739 606.454> 516 60<193 311.838> 518 35<492 636>
VStem: 115 78<282 380 433 516> 320 76<440.937 507.451> 334 78<291.577 369.145> 435 71<285.264 333 378 416.992>
LayerCount: 3
Back
SplineSet
523.678710938 283.241210938 m 4
 534.266601562 272.91015625 549.54296875 267.7265625 569.338867188 267.7265625 c 4
 583.5625 267.7265625 595.865234375 271.329101562 606.1796875 278.499023438 c 4
 616.41015625 285.654296875 622.62890625 293.334960938 625.05859375 301.26953125 c 5
 687.201171875 301.26953125 l 5
 677.193359375 270.359375 662.052734375 248.26953125 641.388671875 234.963867188 c 4
 620.9296875 221.625 596.03515625 214.98046875 566.977539062 214.98046875 c 4
 546.721679688 214.98046875 528.522460938 218.243164062 512.17578125 224.700195312 c 4
 495.828125 231.2421875 482.149414062 240.401367188 470.678710938 252.331054688 c 4
 459.463867188 264.327148438 450.780273438 278.499023438 444.594726562 295.153320312 c 4
 438.443359375 311.704101562 435.3671875 330.055664062 435.3671875 349.919921875 c 4
 435.3671875 369.139648438 438.544921875 387.067382812 444.849609375 403.668945312 c 4
 451.23828125 420.3046875 460.125976562 434.681640625 471.749023438 446.729492188 c 4
 483.440429688 458.828125 497.255859375 468.39453125 513.381835938 475.37890625 c 4
 529.5078125 482.329101562 547.283203125 485.845703125 566.977539062 485.845703125 c 4
 588.7109375 485.845703125 607.760742188 481.649414062 624.073242188 473.119140625 c 4
 640.318359375 464.725585938 653.674804688 453.338867188 664.142578125 439.083007812 c 4
 674.627929688 424.841796875 682.0703125 408.580078125 686.709960938 390.3125 c 4
 691.348632812 372.079101562 692.979492188 353.047851562 691.654296875 333.09765625 c 5
 506.227539062 333.09765625 l 5
 506.227539062 312.791015625 513.076171875 293.572265625 523.678710938 283.241210938 c 4
287.172851562 221.625 m 6
 115.170898438 221.625 l 5
 115.170898438 576.486328125 l 5
 282.448242188 576.486328125 l 6
 299.458984375 576.486328125 314.768554688 575.025390625 328.7890625 572.000976562 c 4
 342.688476562 569.02734375 354.567382812 564.098632812 364.591796875 557.353515625 c 4
 374.498046875 550.58984375 382.231445312 541.6015625 387.787109375 530.283203125 c 4
 393.19140625 519.135742188 395.875 505.150390625 395.875 488.650390625 c 4
 395.875 470.774414062 391.831054688 455.853515625 383.7265625 443.92578125 c 4
 375.569335938 432.013671875 363.5390625 422.2421875 347.548828125 414.6640625 c 5
 369.349609375 408.392578125 385.543945312 397.331054688 396.266601562 381.612304688 c 4
 407.040039062 365.791992188 412.30859375 346.845703125 412.30859375 324.65234375 c 4
 412.30859375 306.65625 408.858398438 291.159179688 401.9765625 278.143554688 c 4
 395.04296875 264.938476562 385.578125 254.25 373.903320312 245.9921875 c 4
 362.14453125 237.682617188 348.669921875 231.565429688 333.545898438 227.588867188 c 4
 318.591796875 223.629882812 303.060546875 221.625 287.172851562 221.625 c 6
276.705078125 282.051757812 m 6
 284.385742188 282.051757812 291.693359375 282.747070312 298.591796875 284.293945312 c 4
 305.59375 285.806640625 311.76171875 288.237304688 317.012695312 291.821289062 c 4
 322.211914062 295.25390625 326.561523438 299.979492188 329.72265625 305.959960938 c 4
 332.849609375 311.923828125 334.37890625 319.638671875 334.37890625 328.967773438 c 4
 334.37890625 347.252929688 329.212890625 360.251953125 319 368.135742188 c 4
 308.737304688 375.903320312 295.056640625 379.776367188 278.234375 379.776367188 c 6
 193.3046875 379.776367188 l 5
 193.3046875 282.051757812 l 5
 276.705078125 282.051757812 l 6
604.76953125 418.249023438 m 4
 596.391601562 427.52734375 582.185546875 432.5390625 564.852539062 432.5390625 c 4
 553.586914062 432.5390625 544.241210938 430.654296875 536.780273438 426.779296875 c 4
 529.474609375 422.956054688 523.475585938 418.21484375 518.905273438 412.624023438 c 4
 514.333007812 406.94921875 511.241210938 400.93359375 509.439453125 394.526367188 c 4
 507.622070312 388.256835938 506.533203125 382.59765625 506.227539062 377.584960938 c 5
 621.03125 377.584960938 l 5
 619.349609375 395.580078125 613.198242188 408.885742188 604.76953125 418.249023438 c 4
272.37109375 433.1171875 m 5
 286.204101562 433.1171875 297.674804688 436.396484375 306.749023438 443.05859375 c 4
 315.737304688 449.618164062 320.104492188 460.4765625 320.104492188 475.344726562 c 4
 320.104492188 483.586914062 318.643554688 490.41796875 315.737304688 495.719726562 c 4
 312.712890625 501.00390625 308.737304688 505.150390625 303.70703125 508.055664062 c 4
 298.7109375 511.081054688 293.03515625 513.170898438 286.509765625 514.29296875 c 4
 280.051757812 515.55078125 273.306640625 516.04296875 266.390625 516.04296875 c 6
 193.3046875 516.04296875 l 5
 193.3046875 433.1171875 l 5
 272.37109375 433.1171875 l 5
635.62890625 552.6796875 m 5
 635.62890625 517.673828125 l 5
 491.80078125 517.673828125 l 5
 491.80078125 552.6796875 l 5
 635.62890625 552.6796875 l 5
EndSplineSet
Fore
SplineSet
569 268 m 0xa920
 597 268 618 283 625 301 c 1
 687 301 l 1
 670 246 632 215 567 215 c 0
 488 215 435 268 435 350 c 0
 435 430 492 486 567 486 c 0
 648 486 697 420 692 333 c 1
 506 333 l 1
 507 292 527 268 569 268 c 0xa920
287 222 m 2x6560
 115 222 l 1
 115 576 l 1
 282 576 l 2
 349 576 396 556 396 489 c 0x65a0
 396 449 377 429 348 415 c 1
 388 404 412 374 412 325 c 0
 412 253 354 222 287 222 c 2x6560
277 282 m 2
 311 282 334 294 334 329 c 0
 334 365 313 380 278 380 c 2
 193 380 l 1x7160
 193 282 l 1
 277 282 l 2
565 433 m 0x2920
 531 433 508 411 506 378 c 1
 621 378 l 1
 617 412 600 433 565 433 c 0x2920
272 433 m 2x35a0
 300 433 320 446 320 475 c 0
 320 506 297 516 266 516 c 2
 193 516 l 1
 193 433 l 1
 272 433 l 2x35a0
636 553 m 1x2320
 636 518 l 1
 492 518 l 1
 492 553 l 1
 636 553 l 1x2320
EndSplineSet
Layer: 2
EndChar
StartChar: pinterest
Encoding: 56 56 10
Width: 800
VWidth: 0
HStem: 258 53<392.534 480.43> 595 58<324.369 468.442>
VStem: 190 60<387.75 520.664> 310 101<407.563 503.25> 536 74<378.078 529.938>
LayerCount: 4
Back
SplineSet
302.171875 131.719726562 m 4
 290.08203125 112.022460938 282.334960938 115.896484375 279.702148438 139.681640625 c 4
 276.822265625 165.694335938 274.228515625 205.606445312 280.842773438 234.0078125 c 4
 286.815429688 259.673828125 319.401367188 397.462890625 319.401367188 397.462890625 c 5
 319.401367188 397.462890625 309.56640625 417.162109375 309.56640625 446.28515625 c 4
 309.56640625 492.005859375 336.067382812 526.142578125 369.068359375 526.142578125 c 4
 397.120117188 526.142578125 410.673828125 505.081054688 410.673828125 479.825195312 c 4
 410.673828125 451.610351562 392.708984375 409.42578125 383.436523438 370.334960938 c 4
 375.692382812 337.60546875 399.850585938 310.912109375 432.135742188 310.912109375 c 4
 490.581054688 310.912109375 535.505859375 372.54296875 535.505859375 461.499023438 c 4
 535.505859375 540.23046875 478.93359375 595.282226562 398.147460938 595.282226562 c 4
 304.586914062 595.282226562 249.6640625 525.100585938 249.6640625 452.573242188 c 4
 249.6640625 424.314453125 260.55078125 394.004882812 274.139648438 377.532226562 c 4
 276.822265625 374.276367188 277.216796875 371.420898438 276.416992188 368.096679688 c 4
 273.922851562 357.708984375 268.375 335.376953125 267.284179688 330.807617188 c 4
 265.850585938 324.787109375 262.516601562 323.512695312 256.288085938 326.407226562 c 4
 215.215820312 345.528320312 189.540039062 405.568359375 189.540039062 453.802734375 c 4
 189.540039062 557.534179688 264.908203125 652.79296875 406.81640625 652.79296875 c 4
 520.884765625 652.79296875 609.540039062 571.5078125 609.540039062 462.872070312 c 4
 609.540039062 349.543945312 538.080078125 258.33984375 438.899414062 258.33984375 c 4
 405.581054688 258.33984375 374.254882812 275.6484375 363.53125 296.09765625 c 5
 363.53125 296.09765625 347.04296875 233.311523438 343.046875 217.9296875 c 4
 335.618164062 189.364257812 315.578125 153.561523438 302.171875 131.719726562 c 4
EndSplineSet
Fore
SplineSet
287 119 m 0
 278 122 272 196 281 234 c 2
 319 397 l 1
 319 397 310 417 310 446 c 0
 310 492 336 526 369 526 c 0
 397 526 411 505 411 480 c 0
 411 452 392 409 383 370 c 0
 375 337 400 311 432 311 c 0
 490 311 536 372 536 461 c 0
 536 540 479 595 398 595 c 0
 304 595 250 526 250 453 c 0
 250 425 259.719129702 395.601087873 273 379 c 0
 277 374 278 373 275 362 c 0
 275 362 267 331 267 331 c 0
 267 331 264.92578125 321.4921875 253 328 c 0
 212.109500089 350.313649804 190 406 190 454 c 0
 190 558 265 653 407 653 c 0
 521 653 610 572 610 463 c 0
 610 350 538 258 439 258 c 0
 384 258 364 296 364 296 c 1
 343 218 l 2
 332 177 296 116 287 119 c 0
EndSplineSet
Layer: 2
Layer: 3
EndChar
StartChar: instagram
Encoding: 57 57 2
Width: 800
VWidth: 0
HStem: 170 53<221.602 576.936> 257 54<347.641 452.581> 435 53<538 577.653> 491 139<346.66 453.679> 579 51<484.347 576.936>
VStem: 170 51<223.064 435> 578 52<223.064 435 488.347 578.398>
LayerCount: 3
Back
SplineSet
400.435546875 490.51171875 m 4
 349.416992188 490.51171875 308.052734375 450.43359375 308.052734375 400.999023438 c 4
 308.052734375 351.555664062 349.416992188 311.482421875 400.435546875 311.482421875 c 4
 451.458984375 311.482421875 492.823242188 351.555664062 492.823242188 400.999023438 c 4
 492.823242188 450.43359375 451.458984375 490.51171875 400.435546875 490.51171875 c 4
578.0078125 435.467773438 m 5
 537.518554688 435.467773438 l 5
 541.348632812 422.958007812 543.41796875 409.716796875 543.41796875 396 c 4
 543.41796875 319.486328125 479.400390625 257.462890625 400.435546875 257.462890625 c 4
 321.470703125 257.462890625 257.458007812 319.486328125 257.458007812 396 c 4
 257.458007812 409.716796875 259.52734375 422.958007812 263.357421875 435.467773438 c 5
 221.112304688 435.467773438 l 5
 221.112304688 241.15625 l 6
 221.112304688 231.100585938 229.33984375 222.873046875 239.399414062 222.873046875 c 6
 559.724609375 222.873046875 l 6
 569.780273438 222.873046875 578.0078125 231.100585938 578.0078125 241.15625 c 6
 578.0078125 435.467773438 l 5
505.090820312 578.887695312 m 5
 493.69921875 578.887695312 484.384765625 569.575195312 484.384765625 558.177734375 c 6
 484.384765625 508.61328125 l 6
 484.384765625 497.221679688 493.69921875 487.903320312 505.090820312 487.903320312 c 6
 557.083007812 487.903320312 l 6
 568.469726562 487.903320312 577.7890625 497.221679688 577.7890625 508.61328125 c 6
 577.7890625 558.177734375 l 6
 577.7890625 569.575195312 568.469726562 578.887695312 557.083007812 578.887695312 c 6
 505.090820312 578.887695312 l 5
229.041992188 630 m 6
 570.958007812 630 l 6
 603.428710938 630 630 603.428710938 630 570.958007812 c 6
 630 229.041992188 l 6
 630 196.567382812 603.428710938 170 570.958007812 170 c 6
 229.041992188 170 l 6
 196.571289062 170 170 196.567382812 170 229.041992188 c 6
 170 570.958007812 l 6
 170 603.428710938 196.571289062 630 229.041992188 630 c 6
EndSplineSet
Fore
SplineSet
400 491 m 0xf6
 349 491 308 450 308 401 c 0
 308 352 349 311 400 311 c 0
 451 311 493 352 493 401 c 0
 493 450 451 491 400 491 c 0xf6
578 435 m 1
 538 435 l 1
 565 338 488 257 400 257 c 0
 312 257 236 339 263 435 c 1
 221 435 l 1
 221 241 l 2
 221 231 229 223 239 223 c 2
 560 223 l 2
 570 223 578 231 578 241 c 2
 578 435 l 1
505 579 m 2xee
 494 579 484 569 484 558 c 2
 484 509 l 2
 484 498 494 488 505 488 c 2
 557 488 l 2
 568 488 578 498 578 509 c 2
 578 558 l 2
 578 569 568 579 557 579 c 2
 505 579 l 2xee
229 630 m 2
 571 630 l 2
 603 630 630 603 630 571 c 2
 630 229 l 2
 630 197 603 170 571 170 c 2
 229 170 l 2
 197 170 170 197 170 229 c 2
 170 571 l 2
 170 603 197 630 229 630 c 2
EndSplineSet
Layer: 2
EndChar
StartChar: medium
Encoding: 58 58 11
Width: 800
VWidth: 0
Flags: H
LayerCount: 3
Back
SplineSet
648.608398438 534.099609375 m 5
 649.474609375 533.424804688 650 532.379882812 650 531.254882812 c 6
 650 205.118164062 l 6
 650 190.87109375 637.6015625 185.51953125 622.30859375 193.1640625 c 6
 483.33203125 262.655273438 l 5
 648.934570312 531.751953125 l 6
 649.4140625 532.53125 649.249023438 533.513671875 648.608398438 534.099609375 c 5
374.359375 439.736328125 m 5
 475.21875 603.635742188 l 6
 479.681640625 610.883789062 489.561523438 613.703125 497.176757812 609.89453125 c 6
 648.1796875 534.393554688 l 6
 649.159179688 533.90625 649.5078125 532.682617188 648.934570312 531.751953125 c 6
 483.33203125 262.655273438 l 5
 374.359375 439.736328125 l 5
315.76953125 533.9296875 m 6
 316.051757812 533.791992188 l 6
 316.453125 533.590820312 316.79296875 533.280273438 317.02734375 532.903320312 c 6
 483.33203125 262.655273438 l 5
 316.66796875 345.987304688 l 5
 316.66796875 532.482421875 l 6
 316.66796875 533.098632812 316.3203125 533.658203125 315.76953125 533.9296875 c 6
316.66796875 205.118164062 m 4
 316.66796875 190.927734375 306.282226562 184.51171875 293.591796875 190.857421875 c 6
 163.845703125 255.732421875 l 6
 156.23046875 259.540039062 150 269.62109375 150 278.134765625 c 6
 150 596.177734375 l 6
 150 607.530273438 158.307617188 612.666015625 168.4609375 607.586914062 c 6
 315.76953125 533.9296875 l 6
 316.3203125 533.658203125 316.66796875 533.098632812 316.66796875 532.482421875 c 6
 316.66796875 205.118164062 l 4
EndSplineSet
Fore
SplineSet
650 533 m 1
 650 205 l 2
 650 191 638 185 622 193 c 2
 483 263 l 1
 650 533 l 1
374 440 m 1
 475 604 l 2
 479 611 489 614 497 610 c 2
 650 533 l 1
 483 263 l 1
 374 440 l 1
483 263 m 1
 313 348 l 5
 317 533 l 1
 483 263 l 1
317 205 m 2
 317 191 307 185 294 191 c 2
 164 256 l 2
 156 260 150 269 150 278 c 2
 150 596 l 2
 150 607 157 613 168 608 c 2
 317 533 l 1
 317 205 l 2
EndSplineSet
Layer: 2
EndChar
StartChar: codepen
Encoding: 59 59 12
Width: 800
VWidth: 0
Flags: H
LayerCount: 3
Back
SplineSet
659.586914062 482.2578125 m 5
 659.2578125 482.2578125 l 6
 659.958007812 480.991210938 659.790039062 480.291015625 660 479.345703125 c 6
 660 320.959960938 l 6
 660 319.97265625 659.9296875 319.006835938 659.803710938 318.034179688 c 4
 659.76171875 317.71875 659.677734375 317.389648438 659.622070312 317.075195312 c 4
 659.509765625 316.4453125 659.390625 315.815429688 659.23046875 315.19921875 c 4
 659.131835938 314.834960938 658.999023438 314.477539062 658.879882812 314.12109375 c 4
 658.705078125 313.575195312 658.5234375 313.029296875 658.305664062 312.483398438 c 4
 658.159179688 312.119140625 657.9765625 311.76171875 657.80859375 311.405273438 c 4
 657.578125 310.901367188 657.333007812 310.404296875 657.052734375 309.9140625 c 4
 656.849609375 309.578125 656.625976562 309.235351562 656.416015625 308.891601562 c 4
 656.115234375 308.4296875 655.806640625 307.974609375 655.470703125 307.541015625 c 4
 655.225585938 307.198242188 654.966796875 306.8828125 654.708007812 306.568359375 c 4
 654.350585938 306.155273438 653.987304688 305.749023438 653.594726562 305.364257812 c 4
 653.30078125 305.063476562 653.013671875 304.76171875 652.706054688 304.489257812 c 4
 652.29296875 304.125 651.873046875 303.767578125 651.439453125 303.424804688 c 4
 651.102539062 303.166015625 650.774414062 302.907226562 650.423828125 302.662109375 c 4
 650.291015625 302.578125 650.178710938 302.47265625 650.052734375 302.388671875 c 6
 412.491210938 144.016601562 l 6
 408.732421875 141.517578125 404.413085938 140.2578125 400.100585938 140.2578125 c 4
 395.90234375 140.516601562 391.25390625 141.216796875 387.501953125 144.016601562 c 6
 150.5 303.088867188 l 6
 149.799804688 303.362304688 149.932617188 303.362304688 149.799804688 303.362304688 c 6
 149.799804688 303.362304688 149.428710938 304.061523438 149.099609375 304.061523438 c 4
 148.400390625 304.42578125 148.106445312 304.42578125 147.700195312 305.125976562 c 4
 147.700195312 305.30078125 147.293945312 306.000976562 147 306.000976562 c 4
 146.299804688 306.701171875 145.950195312 306.701171875 145.599609375 307.401367188 c 4
 145.599609375 307.673828125 145.14453125 308.374023438 144.900390625 308.374023438 c 5
 144.900390625 309.025390625 144.494140625 309.025390625 144.200195312 309.724609375 c 6
 144.200195312 309.724609375 143.703125 310.424804688 143.5 310.424804688 c 5
 143.5 311.215820312 143.038085938 311.215820312 142.799804688 311.916015625 c 4
 142.099609375 312.293945312 142.247070312 312.293945312 142.099609375 312.994140625 c 6
 142.099609375 312.994140625 141.575195312 313.694335938 141.400390625 314.393554688 c 4
 140.700195312 314.772460938 140.8046875 314.772460938 140.700195312 315.471679688 c 4
 140 315.948242188 140.119140625 316.6484375 140 317.34765625 c 6
 140 317.34765625 140.041992188 318.047851562 140 318.047851562 c 6
 140 480.052734375 l 6
 140 481.040039062 140.0703125 482.005859375 140.203125 482.96484375 c 4
 140.23828125 483.021484375 140.322265625 483.3359375 140.377929688 483.665039062 c 4
 140.497070312 484.294921875 140.609375 484.924804688 140.76953125 485.541015625 c 4
 140.875 485.905273438 141.000976562 486.26171875 141.120117188 486.619140625 c 4
 141.294921875 486.94140625 141.4765625 487.487304688 141.694335938 488.018554688 c 4
 141.840820312 488.3828125 142.0234375 488.75390625 142.19140625 489.111328125 c 4
 142.428710938 489.615234375 142.673828125 490.112304688 142.947265625 490.587890625 c 4
 143.157226562 490.6015625 143.3671875 490.9453125 143.590820312 491.288085938 c 4
 143.884765625 491.75 144.200195312 492.205078125 144.529296875 492.638671875 c 4
 144.774414062 492.967773438 145.033203125 493.296875 145.298828125 493.612304688 c 4
 145.649414062 494.220703125 146.012695312 494.626953125 146.405273438 495.01171875 c 4
 146.69921875 495.313476562 146.986328125 495.614257812 147.30078125 495.88671875 c 4
 147.70703125 496.250976562 148.133789062 496.608398438 148.568359375 496.951171875 c 4
 148.897460938 497.147460938 149.225585938 497.40625 149.576171875 497.651367188 c 4
 149.708984375 497.735351562 149.821289062 497.83984375 149.947265625 497.923828125 c 6
 387.501953125 655.98828125 l 6
 395.005859375 660.993164062 404.77734375 660.993164062 412.28125 655.98828125 c 6
 649.8359375 497.916992188 l 6
 649.961914062 497.833007812 650.07421875 497.727539062 650.20703125 497.643554688 c 4
 650.556640625 497.399414062 650.885742188 497.139648438 651.221679688 496.880859375 c 4
 651.65625 496.544921875 652.076171875 496.188476562 652.489257812 495.817382812 c 4
 652.796875 495.543945312 653.083984375 495.243164062 653.377929688 494.942382812 c 4
 653.762695312 494.556640625 654.133789062 494.151367188 654.491210938 493.73828125 c 4
 654.75 493.422851562 655.008789062 493.09375 655.25390625 492.764648438 c 4
 655.58984375 492.331054688 655.8984375 491.875976562 656.19921875 491.4140625 c 4
 656.409179688 491.078125 656.6328125 490.735351562 656.8359375 490.377929688 c 4
 657.116210938 489.90234375 657.361328125 489.405273438 657.591796875 488.901367188 c 4
 657.759765625 488.543945312 657.942382812 488.1796875 658.088867188 487.80859375 c 4
 658.305664062 487.27734375 658.48828125 486.731445312 658.663085938 486.184570312 c 4
 658.782226562 485.834960938 658.915039062 485.477539062 659.012695312 485.107421875 c 4
 659.180664062 484.491210938 659.29296875 483.861328125 659.405273438 483.231445312 c 4
 659.454101562 482.90234375 659.538085938 482.586914062 659.586914062 482.2578125 c 5
422.227539062 595.977539062 m 5
 422.227539062 491.798828125 l 5
 519.064453125 427.022460938 l 5
 597.232421875 479.318359375 l 5
 422.227539062 595.977539062 l 5
377.5546875 595.7890625 m 5
 377.5546875 595.977539062 l 5
 202.55078125 479.318359375 l 5
 280.725585938 427.022460938 l 5
 377.5546875 491.610351562 l 5
 377.5546875 595.7890625 l 5
184.672851562 437.536132812 m 5
 184.672851562 362.77734375 l 5
 240.552734375 400.157226562 l 5
 184.672851562 437.536132812 l 5
377.5546875 204.341796875 m 5
 377.5546875 308.212890625 l 5
 280.725585938 372.975585938 l 5
 202.55078125 320.694335938 l 5
 377.5546875 204.341796875 l 5
399.899414062 347.315429688 m 5
 478.891601562 400.157226562 l 5
 399.899414062 452.999023438 l 5
 320.8984375 400.157226562 l 5
 399.899414062 347.315429688 l 5
422.227539062 204.341796875 m 5
 597.232421875 320.995117188 l 5
 519.064453125 373.27734375 l 5
 422.227539062 308.513671875 l 5
 422.227539062 204.341796875 l 5
615.1171875 362.77734375 m 5
 615.1171875 437.536132812 l 5
 559.244140625 400.157226562 l 5
 615.1171875 362.77734375 l 5
EndSplineSet
Fore
SplineSet
140 318 m 2
 140 480 l 2
 140 489 145 495 150 498 c 2
 388 656 l 2
 396 661 404 661 412 656 c 2
 650 498 l 2
 656.23913811 494.256517134 660 486 660 479 c 2
 660 321 l 2
 660 312 655 306 650 302 c 2
 412 144 l 2
 404 139 395 139 388 144 c 2
 150 303 l 2
 141 309 140 314 140 318 c 2
422 596 m 1
 422 492 l 1
 519 427 l 1
 597 479 l 1
 422 596 l 1
378 492 m 1
 378 596 l 1
 203 479 l 1
 281 427 l 1
 378 492 l 1
185 438 m 1
 185 363 l 1
 241 400 l 1
 185 438 l 1
378 204 m 1
 378 308 l 1
 281 373 l 1
 203 321 l 1
 378 204 l 1
400 347 m 1
 479 400 l 1
 400 453 l 1
 321 400 l 1
 400 347 l 1
422 204 m 1
 597 321 l 1
 519 373 l 1
 422 309 l 1
 422 204 l 1
615 363 m 1
 615 438 l 1
 559 400 l 1
 615 363 l 1
EndSplineSet
Layer: 2
EndChar
StartChar: googlealt
Encoding: 60 60 13
Width: 800
VWidth: 0
HStem: 140 96<334.421 479.511> 348 89<405 553> 564 96<334.421 477.323>
VStem: 145 99<326.915 473.085>
LayerCount: 4
Back
SplineSet
650.911132812 437.171875 m 5
 653.141601562 424.161132812 655 411.151367188 655 394.052734375 c 4
 655 245.364257812 555.37890625 139.795898438 405.204101562 139.795898438 c 4
 261.310546875 139.795898438 145 256.143554688 145 400 c 4
 145 543.856445312 261.310546875 660.204101562 405.204101562 660.204101562 c 4
 475.458984375 660.204101562 534.19140625 634.5546875 579.541015625 592.178710938 c 5
 508.9140625 524.155273438 l 5
 489.584960938 542.741210938 455.7578125 564.299804688 405.204101562 564.299804688 c 4
 316.36328125 564.299804688 243.877929688 490.700195312 243.877929688 400 c 4
 243.877929688 309.299804688 316.36328125 235.700195312 405.204101562 235.700195312 c 4
 508.168945312 235.700195312 546.829101562 309.669921875 552.77734375 347.958984375 c 5
 405.204101562 347.958984375 l 5
 405.204101562 437.171875 l 5
 650.911132812 437.171875 l 5
EndSplineSet
Fore
SplineSet
651 437 m 5
 674 269 571 140 405 140 c 4
 261 140 145 256 145 400 c 4
 145 544 261 660 405 660 c 4
 475 660 535 634 580 592 c 5
 509 524 l 5
 490 543 456 564 405 564 c 4
 316 564 244 491 244 400 c 4
 244 309 316 236 405 236 c 4
 509 236 547 310 553 348 c 5
 405 348 l 5
 405 437 l 5
 651 437 l 5
EndSplineSet
Layer: 2
Layer: 3
EndChar
StartChar: tumblr
Encoding: 61 61 14
Width: 800
VWidth: 0
HStem: 154 20<409.738 516.025> 260 33<463.388 532.562> 267 26<486.517 529.125> 422 20<463 529> 522 20<464 529> 639 21<370.563 443>
VStem: 202 78<442 518.105> 255 79<234.156 422> 442 21<293.234 422 542 638.999> 529 21<442 522>
LayerCount: 4
Back
SplineSet
536.772 292.508 m 6
 537.681 292.508 538.488 291.929 538.779 291.068 c 6
 538.779 291.068 570.177 198.002 570.177 198.002 c 5
 570.177 198.002 566.851 193.623 566.851 193.623 c 6
 550.249 171.774 500.058 153.739 449.403 153.739 c 4
 323.519 153.739 255.431 200.111 255.431 298.415 c 6
 255.431 298.415 255.431 421.561 255.431 421.561 c 5
 255.431 421.561 203.859 421.561 203.859 421.561 c 6
 202.689 421.561 201.741 422.509 201.741 423.679 c 6
 201.741 423.679 201.741 523.663 201.741 523.663 c 6
 201.741 524.575 202.324 525.383 203.189 525.672 c 6
 203.189 525.672 208.823 527.553 208.823 527.553 c 6
 259.318 544.428 286.188 579.577 293.383 638.165 c 4
 295.122 652.333 307.014 659.976 317.32 659.976 c 6
 317.32 659.976 461.433 659.976 461.433 659.976 c 6
 462.603 659.976 463.55 659.028 463.55 657.858 c 6
 463.55 657.858 463.55 544.359 463.55 544.359 c 6
 463.55 543.19 464.498 542.242 465.668 542.242 c 6
 465.668 542.242 547.843 542.242 547.843 542.242 c 6
 549.013 542.242 549.961 541.293 549.961 540.124 c 6
 549.961 540.124 549.961 423.679 549.961 423.679 c 6
 549.961 422.509 549.013 421.561 547.843 421.561 c 6
 547.843 421.561 465.314 421.561 465.314 421.561 c 6
 464.144 421.561 463.196 420.613 463.196 419.443 c 6
 463.196 419.443 463.196 305.618 463.196 305.618 c 6
 463.271 300.93 463.76 297.135 464.577 294.032 c 4
 464.818 293.114 465.676 292.509 466.626 292.508 c 6
 466.626 292.508 536.772 292.508 536.772 292.508 c 6
440.7 639.244 m 6
 440.7 639.244 374.685 639.244 374.685 639.244 c 6
 374.635 639.244 371.755 639.136 371.324 635.634 c 4
 363.56 572.397 334.041 531.512 281.184 510.936 c 4
 280.379 510.623 279.839 509.853 279.839 508.989 c 6
 279.839 508.989 279.839 444.411 279.839 444.411 c 6
 279.839 443.242 280.787 442.294 281.957 442.293 c 6
 281.957 442.293 331.411 442.293 331.411 442.293 c 6
 332.581 442.293 333.529 441.345 333.529 440.176 c 6
 333.529 440.176 333.529 298.415 333.529 298.415 c 6
 333.529 252.283 360.816 174.212 463.089 174.207 c 6
 463.089 174.207 463.1 174.207 463.1 174.207 c 6
 464.257 174.207 465.408 174.217 466.582 174.237 c 4
 497.676 174.763 530.119 186.054 545.927 201.252 c 4
 546.523 201.826 546.709 202.695 546.444 203.48 c 6
 546.444 203.48 525.451 265.711 525.451 265.711 c 6
 525.067 266.848 523.83 267.418 522.708 266.99 c 4
 510.713 262.407 497.574 259.739 486.102 259.739 c 4
 457.633 259.739 442.952 275.116 442.466 305.451 c 6
 442.466 305.451 442.464 440.176 442.464 440.176 c 6
 442.464 441.345 443.411 442.293 444.581 442.293 c 6
 444.581 442.293 527.111 442.293 527.111 442.293 c 6
 528.281 442.294 529.229 443.242 529.229 444.411 c 6
 529.229 444.411 529.229 519.391 529.229 519.391 c 6
 529.229 520.56 528.281 521.509 527.111 521.509 c 6
 527.111 521.509 444.935 521.509 444.935 521.509 c 6
 443.765 521.51 442.817 522.458 442.817 523.626 c 6
 442.817 523.626 442.817 637.126 442.817 637.126 c 6
 442.817 638.296 441.87 639.244 440.7 639.244 c 6
130 720 m 5
 130 720 130 580 130 580 c 5
 130 580 50 580 50 580 c 5
 50 580 50 720 50 720 c 5
 50 720 130 720 130 720 c 5
EndSplineSet
Fore
SplineSet
570 198 m 5xbec0
 555 173 504 154 449 154 c 4
 323 154 255 200 255 298 c 6
 255 422 l 5xbdc0
 205 422 l 6
 203 422 202 423 202 425 c 6
 202 523 l 6
 202 526 206 527 209 528 c 4
 259 545 286 579 293 638 c 4
 295 652 307 660 317 660 c 6
 461 660 l 6
 463 660 464 659 464 657 c 6
 464 545 l 6
 464 543 465 542 467 542 c 6
 547 542 l 6
 549 542 550 541 550 539 c 6
 550 425 l 6
 550 423 549 422 547 422 c 6
 466 422 l 6
 464 422 463 421 463 419 c 6
 463 304 l 5
 463 293 465 293 467 293 c 5xdec0
 536 293 l 6
 536 293 538 293 539 290 c 6
 570 198 l 5xbec0
440 639 m 6
 375 639 l 5
 375 639 372 640 371 633 c 4
 362 570 333 532 284 512 c 5
 284 512 280 511 280 508 c 6
 280 445 l 6xdec0
 280 443 281 442 283 442 c 6
 331 442 l 6
 333 442 334 441 334 439 c 6
 334 298 l 6
 334 252 361 174 463 174 c 4
 496 174 529 185 546 201 c 4
 547 202 546 204 546 204 c 5
 526 264 l 6
 525 268 523 267 523 267 c 4xbdc0
 510 262 497 260 486 260 c 4xddc0
 458 260 442 275 442 305 c 6
 442 439 l 6
 442 441 443 442 445 442 c 6
 526 442 l 6
 528 442 529 443 529 445 c 6
 529 519 l 6
 529 521 528 522 526 522 c 6
 446 522 l 6
 444 522 443 523 443 525 c 6
 443 636 l 6
 443 638 442 639 440 639 c 6
EndSplineSet
Layer: 2
Layer: 3
EndChar
StartChar: vine
Encoding: 62 62 15
Width: 800
VWidth: 0
Flags: H
LayerCount: 3
Back
SplineSet
615.117 401.418 m 5
 615.117 401.418 615.117 342.54 615.117 342.54 c 5
 594.322 337.84 573.439 335.845 556.058 335.797 c 5
 514.651 248.305 439.944 173.612 415.063 159.464 c 4
 399.214 150.547 384.29 150.052 366.956 160.452 c 4
 336.313 178.736 220.422 273.955 181.533 573 c 5
 181.533 573 265.704 573 265.704 573 c 5
 286.87 393.443 338.447 301.434 395.5 232.465 c 5
 426.945 263.924 457.097 305.679 480.794 353.08 c 5
 424.442 381.672 390.267 444.423 390.267 517.528 c 4
 390.267 591.322 432.862 647.288 505.661 647.288 c 4
 576.485 647.288 615.117 603.212 615.117 527.434 c 4
 615.117 499.274 609.049 467.172 597.882 442.384 c 5
 545.301 432.091 526.072 465.634 526.072 465.634 c 5
 530.026 478.598 535.38 500.509 535.38 520.503 c 4
 535.38 555.667 522.501 573 503.182 573 c 4
 482.877 573 468.516 553.685 468.516 516.543 c 4
 468.516 440.766 516.559 397.185 578.959 397.185 c 4
 590.054 397.185 602.376 398.481 615.117 401.418 c 5
EndSplineSet
Fore
SplineSet
615 401 m 1
 615 343 l 1
 615 343 588 336 556 336 c 1
 515 249 440 173 415 159 c 0
 399 150 384 150 367 160 c 0
 336 178 221 274 182 573 c 1
 266 573 l 1
 287 393 339 301 396 232 c 1
 427 263 457 306 481 353 c 1
 425 382 390 445 390 518 c 0
 390 592 433 647 506 647 c 0
 577 647 615 603 615 527 c 0
 615 499 609 467 598 442 c 1
 545 432 526 466 526 466 c 1
 526 466 535 493 535 521 c 0
 535 556 522 573 503 573 c 0
 483 573 469 554 469 517 c 0
 469 441 517 397 579 397 c 0
 599 397 615 401 615 401 c 1
EndSplineSet
Layer: 2
EndChar
StartChar: youtube
Encoding: 63 63 16
Width: 800
VWidth: 0
HStem: 224 352<186.322 613.678>
VStem: 150 198<337.084 475.411>
LayerCount: 3
Back
SplineSet
348.380859375 335.14453125 m 5
 483.459960938 405.142578125 l 5
 348.358398438 475.630859375 l 5
 348.380859375 335.14453125 l 5
645.006835938 499.96875 m 6
 645.006835938 499.96875 650 459.506835938 650 419.044921875 c 6
 650 381.112304688 l 6
 650 340.651367188 645.006835938 300.190429688 645.006835938 300.190429688 c 5
 645.006835938 300.190429688 640.122070312 265.734375 625.12890625 250.560546875 c 4
 606.116210938 230.646484375 584.803710938 230.547851562 575.03125 229.381835938 c 4
 505.063476562 224.32421875 400 224.166015625 400 224.166015625 c 5
 400 224.166015625 270.001953125 225.352539062 230.001953125 229.189453125 c 4
 218.874023438 231.276367188 193.889648438 230.646484375 174.870117188 250.560546875 c 4
 159.87890625 265.734375 155 300.190429688 155 300.190429688 c 5
 155 300.190429688 150 340.651367188 150 381.112304688 c 6
 150 419.044921875 l 6
 150 459.506835938 155 499.96875 155 499.96875 c 5
 155 499.96875 159.87890625 534.423828125 174.870117188 549.596679688 c 4
 193.889648438 569.51171875 215.194335938 569.611328125 224.967773438 570.776367188 c 4
 294.938476562 575.833984375 399.890625 575.833984375 399.890625 575.833984375 c 5
 400.108398438 575.833984375 l 5
 400.108398438 575.833984375 505.063476562 575.833984375 575.03125 570.776367188 c 4
 584.803710938 569.611328125 606.116210938 569.51171875 625.12890625 549.596679688 c 4
 640.122070312 534.423828125 645.006835938 499.96875 645.006835938 499.96875 c 6
EndSplineSet
Fore
SplineSet
400 576 m 0
 544 576 601 574 624 551 c 0
 641 534 650 498.875 650 400 c 0
 650 301.125 641 266 624 249 c 0
 601 226 544 224 400 224 c 0
 256 224 199 226 176 249 c 0
 159 266 150 301.125 150 400 c 0
 150 498.875 159 534 176 551 c 0
 199 574 256 576 400 576 c 0
348 476 m 1
 348 335 l 1
 483 405 l 1
 348 476 l 1
EndSplineSet
Layer: 2
EndChar
StartChar: youtubealt
Encoding: 64 64 17
Width: 800
VWidth: 0
Flags: H
LayerCount: 3
Back
SplineSet
534.471679688 543.96875 m 0
 534.609375 543.96875 620.83984375 543.96484375 678.338867188 539.827148438 c 0
 686.376953125 538.873046875 703.908203125 538.791992188 719.544921875 522.487304688 c 0
 731.875 510.061523438 735.892578125 481.8515625 735.892578125 481.8515625 c 1
 735.892578125 481.8515625 740 448.723632812 740 415.592773438 c 2
 740 384.534179688 l 2
 740 351.407226562 735.892578125 318.279296875 735.892578125 318.279296875 c 1
 735.892578125 318.279296875 731.875 290.068359375 719.544921875 277.643554688 c 0
 703.908203125 261.334960938 686.376953125 261.254882812 678.338867188 260.298828125 c 0
 620.793945312 256.161132812 534.380859375 256.03125 534.380859375 256.03125 c 1
 534.380859375 256.03125 427.4609375 257.001953125 394.560546875 260.146484375 c 0
 385.411132812 261.853515625 364.858398438 261.334960938 349.217773438 277.643554688 c 0
 336.885742188 290.068359375 332.873046875 318.279296875 332.873046875 318.279296875 c 1
 332.873046875 318.279296875 328.760742188 351.407226562 328.760742188 384.534179688 c 2
 328.760742188 415.592773438 l 2
 328.760742188 448.723632812 332.873046875 481.8515625 332.873046875 481.8515625 c 1
 332.873046875 481.8515625 336.885742188 510.061523438 349.217773438 522.487304688 c 0
 364.858398438 538.791992188 382.3828125 538.873046875 390.422851562 539.827148438 c 0
 447.922851562 543.96484375 534.155273438 543.96875 534.291992188 543.96875 c 2
 534.471679688 543.96875 l 0
215.26171875 404.602539062 m 0
 215.26171875 355.025390625 l 2
 215.26171875 340.243164062 212.827148438 330.030273438 207.549804688 323.073242188 c 0
 200.580078125 313.587890625 189.094726562 308.563476562 178.078125 308.563476562 c 0
 167.060546875 308.563476562 155.7734375 313.587890625 148.813476562 323.073242188 c 0
 143.451171875 330.030273438 140.893554688 340.243164062 140.893554688 355.025390625 c 2
 140.918945312 404.482421875 l 2
 140.918945312 419.345703125 143.793945312 430.62890625 149.157226562 437.654296875 c 0
 156.1171875 447.16796875 165.606445312 451.064453125 178.078125 451.064453125 c 0
 189.094726562 451.064453125 200.02734375 447.16796875 206.999023438 437.654296875 c 0
 212.276367188 430.62890625 215.26171875 419.466796875 215.26171875 404.602539062 c 0
471.41796875 448.671875 m 1
 445.250976562 448.671875 l 1
 445.250976562 339.875976562 l 2
 445.250976562 330.315429688 446.456054688 323.807617188 448.15625 319.638671875 c 0
 450.953125 312.78515625 456.537109375 308.991210938 464.580078125 308.991210938 c 0
 473.747070312 308.991210938 482.15625 314.734375 492.076171875 326.103515625 c 1
 492.076171875 310.955078125 l 1
 518.2421875 310.955078125 l 1
 518.2421875 448.671875 l 1
 492.076171875 448.671875 l 1
 492.076171875 344.006835938 l 1
 486.538085938 336.196289062 482.005859375 331.84375 476.997070312 331.84375 c 0
 473.668945312 331.84375 472.028320312 333.255859375 471.41796875 337.12109375 c 2
 471.41796875 448.671875 l 1
307.533203125 310.955078125 m 1
 281.3671875 310.955078125 l 1
 281.3671875 326.103515625 l 1
 271.447265625 314.734375 263.038085938 308.991210938 253.87109375 308.991210938 c 0
 245.828125 308.991210938 240.244140625 312.78515625 237.447265625 319.638671875 c 0
 235.747070312 323.807617188 234.541992188 330.315429688 234.541992188 339.875976562 c 2
 234.541992188 450.048828125 l 1
 260.708984375 450.048828125 l 1
 260.708984375 337.12109375 l 2
 261.319335938 333.255859375 262.9609375 331.84375 266.288085938 331.84375 c 0
 271.296875 331.84375 275.829101562 336.196289062 281.3671875 344.006835938 c 1
 281.3671875 450.048828125 l 1
 307.533203125 450.048828125 l 1
 307.533203125 310.955078125 l 1
679.374023438 359.15625 m 1
 679.374023438 349.15234375 679.41796875 343.206054688 679.185546875 341.845703125 c 0
 677.763671875 335.181640625 674.185546875 331.84375 668.047851562 331.84375 c 0
 659.490234375 331.84375 655.875 338.2421875 655.959960938 350.951171875 c 2
 655.959960938 375.681640625 l 1
 705.586914062 375.681640625 l 1
 705.581054688 403.8359375 l 2
 705.581054688 418.543945312 702.684570312 429.302734375 697.47265625 436.264648438 c 0
 690.483398438 445.681640625 680.5546875 450.666015625 668.047851562 450.666015625 c 0
 655.3203125 450.666015625 645.391601562 445.681640625 638.180664062 436.264648438 c 0
 632.883789062 429.302734375 629.793945312 417.932617188 629.793945312 403.225585938 c 2
 629.793945312 355.025390625 l 2
 629.793945312 340.400390625 633.19140625 330.162109375 638.48828125 323.276367188 c 0
 645.696289062 313.873046875 655.624023438 309.1796875 668.666992188 309.1796875 c 0
 681.694335938 309.1796875 691.924804688 314.103515625 698.822265625 324.096679688 c 0
 701.852539062 328.5078125 703.811523438 333.508789062 704.653320312 339.036132812 c 0
 704.877929688 341.532226562 705.5390625 347.21875 705.5390625 355.252929688 c 2
 705.5390625 359.15625 l 1
 679.374023438 359.15625 l 1
563.689453125 495.49609375 m 1
 538.900390625 495.49609375 l 1
 538.900390625 310.955078125 l 1
 563.689453125 310.955078125 l 1
 563.72265625 324.8203125 l 1
 572.053710938 314.512695312 581.137695312 309.1796875 590.002929688 309.1796875 c 0
 599.930664062 309.1796875 607.185546875 314.494140625 610.512695312 324.7265625 c 0
 612.177734375 330.559570312 613.267578125 339.541992188 613.267578125 352.26953125 c 2
 613.267578125 407.356445312 l 2
 613.267578125 420.392578125 611.596679688 429.302734375 609.931640625 434.838867188 c 0
 606.60546875 445.146484375 599.930664062 450.880859375 590.002929688 450.880859375 c 0
 580.831054688 450.880859375 571.713867188 445.240234375 563.66015625 435.331054688 c 1
 563.689453125 495.49609375 l 1
391.541015625 469.329101562 m 1
 391.541015625 310.955078125 l 1
 419.084960938 310.955078125 l 1
 419.084960938 469.329101562 l 1
 449.3828125 469.329101562 l 1
 449.3828125 495.49609375 l 1
 362.620117188 495.466796875 l 1
 362.620117188 469.329101562 l 1
 391.541015625 469.329101562 l 1
111.97265625 310.955078125 m 1
 84.4296875 310.955078125 l 1
 84.4296875 386.700195312 l 1
 84.4296875 386.700195312 55.88671875 479.563476562 50 496.873046875 c 1
 78.9208984375 496.873046875 l 1
 98.248046875 424.330078125 l 1
 117.482421875 496.873046875 l 1
 146.403320312 496.873046875 l 1
 111.97265625 386.700195312 l 1
 111.97265625 310.955078125 l 1
189.094726562 352.26953125 m 0
 189.109375 407.356445312 l 2
 190.486328125 421.127929688 186.202148438 427.583007812 178.078125 427.583007812 c 0
 169.953125 427.583007812 165.682617188 421.127929688 167.060546875 407.356445312 c 2
 167.060546875 352.26953125 l 2
 165.682617188 338.498046875 169.950195312 331.665039062 178.075195312 331.665039062 c 0
 186.201171875 331.665039062 190.47265625 338.498046875 189.094726562 352.26953125 c 0
587.100585938 350.892578125 m 2
 587.100585938 337.12109375 583.85546875 331.84375 576.665039062 331.84375 c 0
 572.55859375 331.84375 567.830078125 333.95703125 563.66015625 338.125 c 1
 563.689453125 421.643554688 l 1
 567.858398438 425.760742188 572.55859375 427.92578125 576.665039062 427.92578125 c 0
 583.85546875 427.92578125 587.100585938 423.881835938 587.100585938 410.111328125 c 2
 587.100585938 350.892578125 l 2
655.959960938 411.545898438 m 0
 655.959960938 424.415039062 659.490234375 427.92578125 667.81640625 427.92578125 c 0
 676.08203125 427.92578125 679.372070312 424.100585938 679.372070312 411.373046875 c 2
 679.372070312 396.33984375 l 1
 655.959960938 396.314453125 l 1
 655.959960938 411.545898438 l 0
EndSplineSet
Fore
SplineSet
535 544 m 0
 653 544 700 543 719 524 c 0
 733 510 740 481 740 400 c 0
 740 319 733 290 719 276 c 0
 700 257 653 256 535 256 c 0
 417 256 369 257 350 276 c 0
 336 290 329 319 329 400 c 0
 329 481 336 510 350 524 c 0
 369 543 417 544 535 544 c 0
178 451 m 0
 203 451 215 433 215 408 c 2
 215 352 l 2
 215 325 202 309 178 309 c 0
 154 309 141 326 141 352 c 2
 141 408 l 2
 141 432 152 451 178 451 c 0
445 340 m 2
 445 322 449 309 465 309 c 0
 474 309 482 315 492 326 c 1
 492 311 l 1
 518 311 l 1
 518 449 l 1
 492 449 l 1
 492 344 l 1
 486 336 482 332 477 332 c 0
 474 332 472 333 471 337 c 2
 471 449 l 1
 445 449 l 1
 445 340 l 2
254 309 m 0
 238 309 235 322 235 340 c 2
 235 450 l 1
 261 450 l 1
 261 337 l 2
 262 333 263 332 266 332 c 0
 271 332 275 336 281 344 c 1
 281 450 l 1
 308 450 l 1
 308 311 l 1
 281 311 l 1
 281 326 l 1
 271 315 263 309 254 309 c 0
669 309 m 0
 686.996689491 309 706 317.906712123 706 359 c 1
 680 359 l 1
 680 343 680 332 668 332 c 0
 659 332 656 338 656 351 c 2
 656 376 l 1
 706 376 l 1
 706 404 l 2
 706 432 693 451 668 451 c 0
 642 451 630 432 630 403 c 2
 630 355 l 2
 630 327 644 309 669 309 c 0
613 407 m 2
 613 431 609 451 590 451 c 0
 581 451 572 445 564 435 c 1
 564 495 l 1
 539 495 l 1
 539 311 l 1
 564 311 l 1
 564 325 l 1
 572 315 581 309 590 309 c 0
 610 309 613 328 613 352 c 2
 613 407 l 2
392 469 m 1
 392 311 l 1
 419 311 l 1
 419 469 l 1
 449 469 l 1
 449 495 l 1
 363 495 l 1
 363 469 l 1
 392 469 l 1
112 311 m 1
 84 311 l 1
 84 387 l 1
 50 497 l 1
 79 497 l 1
 98 424 l 1
 117 497 l 1
 146 497 l 1
 112 387 l 1
 112 311 l 1
189 350 m 2
 189 410 l 2
 189 421 187 428 178 428 c 0
 169 428 167 421 167 410 c 2
 167 350 l 2
 167 337 170 332 178 332 c 0
 186 332 189 337 189 350 c 2
587 351 m 2
 587 337 584 332 577 332 c 0
 573 332 568 334 564 338 c 1
 564 422 l 1
 568 426 573 428 577 428 c 0
 584 428 587 424 587 410 c 2
 587 351 l 2
656 412 m 2
 656 425 661 428 668 428 c 0
 676 428 679 424 679 411 c 2
 679 396 l 1
 656 396 l 1
 656 412 l 2
EndSplineSet
Layer: 2
SplineSet
535 544 m 4
 653 544 700 543 719 524 c 4
 733 510 740 481 740 400 c 4
 740 319 733 290 719 276 c 4
 700 257 653 256 535 256 c 4
 417 256 369 257 350 276 c 4
 336 290 329 319 329 400 c 4
 329 481 336 510 350 524 c 4
 369 543 417 544 535 544 c 4
EndSplineSet
EndChar
StartChar: soundcloud
Encoding: 65 65 18
Width: 800
VWidth: 0
Flags: H
LayerCount: 4
Back
SplineSet
122.759765625 254.53515625 m 4
 132.711914062 252.201171875 143.736328125 248.797851562 143.736328125 235.16796875 c 4
 143.736328125 223.243164062 136.203125 215.1796875 119.08203125 215.1796875 c 4
 108.600585938 215.1796875 99.4521484375 219.571289062 94.69921875 226.563476562 c 5
 103.752929688 234.633789062 l 5
 108.154296875 229.516601562 113.793945312 227.455078125 119.797851562 227.455078125 c 4
 127.235351562 227.455078125 130.739257812 229.516601562 130.739257812 234.267578125 c 4
 130.739257812 238.298828125 128.588867188 240.102539062 116.755859375 242.794921875 c 4
 105.193359375 245.47265625 97.125 249.155273438 97.125 261.513671875 c 4
 97.125 272.90234375 107.16015625 279.900390625 119.53515625 279.900390625 c 4
 129.3046875 279.900390625 136.47265625 276.21875 142.397460938 270.041992188 c 5
 133.334960938 261.255859375 l 5
 129.3046875 265.373046875 124.822265625 267.713867188 119.08203125 267.713867188 c 4
 112.361328125 267.713867188 110.123046875 264.838867188 110.123046875 262.06640625 c 4
 110.123046875 258.124023438 112.805664062 256.874023438 122.759765625 254.53515625 c 4
180.504882812 279.900390625 m 4
 197.618164062 279.900390625 207.75390625 266.638671875 207.75390625 247.53515625 c 4
 207.75390625 228.43359375 197.618164062 215.1796875 180.504882812 215.1796875 c 4
 163.384765625 215.1796875 153.254882812 228.43359375 153.254882812 247.53515625 c 4
 153.254882812 266.638671875 163.384765625 279.900390625 180.504882812 279.900390625 c 4
232.672851562 278.91796875 m 5
 232.672851562 243.857421875 l 6
 232.672851562 233.822265625 237.513671875 227.455078125 245.493164062 227.455078125 c 4
 253.465820312 227.455078125 258.393554688 233.6484375 258.393554688 243.682617188 c 6
 258.393554688 278.91796875 l 5
 270.944335938 278.91796875 l 5
 270.944335938 243.857421875 l 6
 270.944335938 225.676757812 261.443359375 215.1796875 245.493164062 215.1796875 c 4
 230.345703125 215.1796875 220.123046875 225.400390625 220.123046875 243.682617188 c 6
 220.123046875 278.91796875 l 5
 232.672851562 278.91796875 l 5
443.240234375 267.434570312 m 4
 433.833984375 267.434570312 428.436523438 259.185546875 428.436523438 247.53515625 c 4
 428.436523438 236.25 433.909179688 227.641601562 443.327148438 227.641601562 c 4
 448.97265625 227.641601562 452.294921875 230.063476562 455.607421875 235.62890625 c 5
 466.188476562 229.348632812 l 5
 461.881835938 220.467773438 454.357421875 215.1796875 442.969726562 215.1796875 c 4
 426.551757812 215.1796875 415.544921875 227.728515625 415.544921875 247.53515625 c 4
 415.544921875 266.638671875 427.017578125 279.900390625 443.415039062 279.900390625 c 4
 455.249023438 279.900390625 462.416015625 274.165039062 466.358398438 266.009765625 c 5
 454.71484375 260.626953125 l 5
 452.474609375 264.92578125 448.883789062 267.434570312 443.240234375 267.434570312 c 4
548.013671875 279.900390625 m 4
 565.1328125 279.900390625 575.268554688 266.638671875 575.268554688 247.53515625 c 4
 575.268554688 228.43359375 565.1328125 215.1796875 548.013671875 215.1796875 c 4
 530.884765625 215.1796875 520.762695312 228.43359375 520.762695312 247.53515625 c 4
 520.762695312 266.638671875 530.884765625 279.900390625 548.013671875 279.900390625 c 4
600.186523438 278.91796875 m 5
 600.186523438 243.857421875 l 6
 600.186523438 233.822265625 605.02734375 227.455078125 613.01171875 227.455078125 c 4
 620.995117188 227.455078125 625.909179688 233.6484375 625.909179688 243.682617188 c 6
 625.909179688 278.91796875 l 5
 638.47265625 278.91796875 l 5
 638.47265625 243.857421875 l 6
 638.47265625 225.676757812 628.963867188 215.1796875 613.01171875 215.1796875 c 4
 597.861328125 215.1796875 587.635742188 225.400390625 587.635742188 243.682617188 c 6
 587.635742188 278.91796875 l 5
 600.186523438 278.91796875 l 5
298.639648438 278.91796875 m 5
 320.880859375 245.751953125 l 6
 322.400390625 243.420898438 324.463867188 240.272460938 325.266601562 238.659179688 c 5
 325.266601562 240.997070312 325.092773438 248.883789062 325.092773438 252.377929688 c 6
 325.092773438 278.91796875 l 5
 337.465820312 278.91796875 l 5
 337.465820312 216.1640625 l 5
 326.252929688 216.1640625 l 5
 303.208984375 250.404296875 l 6
 301.696289062 252.744140625 299.633789062 255.87890625 298.821289062 257.4921875 c 5
 298.821289062 255.158203125 299.004882812 247.268554688 299.004882812 243.775390625 c 6
 299.004882812 216.1640625 l 5
 286.629882812 216.1640625 l 5
 286.629882812 278.91796875 l 5
 298.639648438 278.91796875 l 5
373.220703125 278.91796875 m 5
 391.153320312 278.91796875 404.427734375 270.493164062 404.427734375 247.53515625 c 4
 404.427734375 225.491210938 388.462890625 216.1640625 372.331054688 216.1640625 c 6
 353.598632812 216.1640625 l 5
 353.598632812 278.91796875 l 5
 373.220703125 278.91796875 l 5
489.788085938 278.91796875 m 5
 489.788085938 228.534179688 l 5
 514.961914062 228.534179688 l 5
 514.961914062 216.1640625 l 5
 477.231445312 216.1640625 l 5
 477.231445312 278.91796875 l 5
 489.788085938 278.91796875 l 5
673.787109375 278.91796875 m 6
 691.720703125 278.91796875 704.973632812 270.493164062 704.973632812 247.53515625 c 4
 704.973632812 225.491210938 689.037109375 216.1640625 672.875976562 216.1640625 c 6
 654.150390625 216.1640625 l 5
 654.150390625 278.91796875 l 5
 673.787109375 278.91796875 l 6
180.504882812 227.641601562 m 4
 190.633789062 227.641601562 194.83984375 236.331054688 194.83984375 247.53515625 c 4
 194.83984375 258.747070312 190.633789062 267.434570312 180.504882812 267.434570312 c 4
 170.370117188 267.434570312 166.157226562 258.747070312 166.157226562 247.53515625 c 4
 166.157226562 236.331054688 170.370117188 227.641601562 180.504882812 227.641601562 c 4
548.013671875 227.641601562 m 4
 558.135742188 227.641601562 562.341796875 236.331054688 562.341796875 247.53515625 c 4
 562.341796875 258.747070312 558.135742188 267.434570312 548.013671875 267.434570312 c 4
 537.876953125 267.434570312 533.665039062 258.747070312 533.665039062 247.53515625 c 4
 533.665039062 236.331054688 537.876953125 227.641601562 548.013671875 227.641601562 c 4
372.331054688 228.353515625 m 6
 385.5078125 228.353515625 391.518554688 236.059570312 391.518554688 247.53515625 c 4
 391.518554688 260.365234375 386.049804688 266.717773438 372.784179688 266.717773438 c 6
 366.140625 266.717773438 l 5
 366.140625 228.353515625 l 5
 372.331054688 228.353515625 l 6
672.875976562 228.353515625 m 4
 686.061523438 228.353515625 692.05859375 236.059570312 692.05859375 247.53515625 c 4
 692.05859375 260.365234375 686.587890625 266.717773438 673.334960938 266.717773438 c 6
 666.702148438 266.717773438 l 5
 666.702148438 228.353515625 l 5
 672.875976562 228.353515625 l 4
231.459960938 310.930664062 m 6
 231.310546875 307.701171875 228.7578125 305.171875 225.651367188 305.171875 c 4
 222.521484375 305.171875 219.967773438 307.702148438 219.837890625 310.90625 c 6
 214.7890625 384.125 l 5
 214.7890625 384.125 219.83203125 524.200195312 219.83203125 524.208007812 c 4
 219.967773438 527.439453125 222.521484375 529.96875 225.651367188 529.96875 c 4
 228.7578125 529.96875 231.310546875 527.439453125 231.459960938 524.208007812 c 6
 237.165039062 384.125 l 5
 231.459960938 310.930664062 l 6
378.146484375 314.067382812 m 5
 378.099609375 311.666992188 377.098632812 309.493164062 375.515625 307.91796875 c 4
 373.930664062 306.337890625 371.76171875 305.360351562 369.387695312 305.360351562 c 4
 366.715820312 305.360351562 364.301757812 306.59765625 362.690429688 308.530273438 c 4
 361.497070312 309.95703125 360.750976562 311.768554688 360.651367188 313.735351562 c 4
 360.646484375 313.834960938 360.633789062 313.932617188 360.631835938 314.03515625 c 6
 360.631835938 314.03515625 357.326171875 384.393554688 357.326171875 384.499023438 c 6
 360.599609375 558.083984375 l 5
 360.631835938 559.737304688 l 6
 360.678710938 562.795898438 362.288085938 565.48828125 364.670898438 567.045898438 c 4
 366.037109375 567.94140625 367.655273438 568.465820312 369.387695312 568.465820312 c 4
 371.168945312 568.465820312 372.833984375 567.916015625 374.225585938 566.97265625 c 4
 376.541015625 565.404296875 378.09375 562.75 378.1484375 559.745117188 c 6
 381.8359375 384.443359375 l 5
 378.510742188 321.0390625 l 5
 378.147460938 314.076171875 l 6
 378.147460938 314.077148438 378.147460938 314.078125 378.147460938 314.079101562 c 5
 378.147460938 314.079101562 l 5
 378.147460938 314.079101562 378.147460938 314.079101562 378.147460938 314.079101562 c 5
 378.146484375 314.067382812 l 5
340.282226562 539.903320312 m 4
 344.76171875 539.903320312 348.349609375 536.330078125 348.448242188 531.780273438 c 6
 352.540039062 384.45703125 l 5
 348.448242188 313.578125 l 5
 348.448242188 313.63671875 l 6
 348.349609375 309.071289062 344.76171875 305.504882812 340.282226562 305.504882812 c 4
 335.790039062 305.504882812 332.19921875 309.071289062 332.116210938 313.5859375 c 6
 328.461914062 384.462890625 l 5
 332.11328125 531.765625 l 6
 332.19921875 536.327148438 335.790039062 539.903320312 340.282226562 539.903320312 c 4
289.721679688 312.471679688 m 5
 289.58203125 308.59765625 286.522460938 305.564453125 282.735351562 305.564453125 c 4
 278.92578125 305.564453125 275.853515625 308.615234375 275.747070312 312.469726562 c 6
 271.39453125 384.485351562 l 5
 275.744140625 541.369140625 l 6
 275.853515625 545.267578125 278.92578125 548.323242188 282.735351562 548.323242188 c 4
 286.532226562 548.323242188 289.599609375 545.2734375 289.723632812 541.374023438 c 6
 294.624023438 384.478515625 l 5
 289.72265625 312.500976562 l 6
 289.72265625 312.501953125 289.723632812 312.50390625 289.723632812 312.504882812 c 5
 289.723632812 312.504882812 l 5
 289.723632812 312.504882812 289.723632812 312.504882812 289.723632812 312.504882812 c 5
 289.721679688 312.471679688 l 5
660.135742188 474.92578125 m 4
 707.005859375 474.92578125 745 436.928710938 745 390.05078125 c 4
 745 343.173828125 707.005859375 305.599609375 660.135742188 305.599609375 c 6
 660.135742188 305.599609375 425.100585938 305.578125 424.8828125 305.599609375 c 4
 419.814453125 306.107421875 415.784179688 310.143554688 415.715820312 315.337890625 c 6
 415.715820312 584.701171875 l 6
 415.778320312 589.654296875 417.475585938 592.196289062 423.8828125 594.6796875 c 4
 440.368164062 601.056640625 459.030273438 604.8203125 478.176757812 604.8203125 c 4
 556.416015625 604.8203125 620.553710938 544.819335938 627.307617188 468.336914062 c 5
 637.411132812 472.568359375 648.506835938 474.92578125 660.135742188 474.92578125 c 4
311.3984375 544.896484375 m 4
 315.536132812 544.896484375 318.862304688 541.588867188 318.974609375 537.364257812 c 6
 323.471679688 384.470703125 l 5
 318.974609375 313.129882812 l 5
 318.974609375 313.180664062 l 6
 318.862304688 308.956054688 315.536132812 305.635742188 311.3984375 305.635742188 c 4
 307.243164062 305.635742188 303.912109375 308.956054688 303.8203125 313.143554688 c 6
 299.814453125 384.470703125 l 5
 303.815429688 537.356445312 l 6
 303.912109375 541.583984375 307.243164062 544.896484375 311.3984375 544.896484375 c 4
198.084960938 503.703125 m 4
 200.848632812 503.703125 203.141601562 501.434570312 203.306640625 498.537109375 c 6
 209.409179688 384.5234375 l 5
 203.306640625 310.838867188 l 5
 203.306640625 310.861328125 l 6
 203.141601562 307.96875 200.848632812 305.6953125 198.084960938 305.6953125 c 4
 195.296875 305.6953125 193.000976562 307.96875 192.860351562 310.846679688 c 6
 187.465820312 384.5234375 l 5
 187.465820312 384.5234375 192.860351562 498.529296875 192.860351562 498.532226562 c 4
 193.000976562 501.4296875 195.296875 503.703125 198.084960938 503.703125 c 4
254.294921875 542.625 m 4
 257.745117188 542.625 260.5546875 539.833984375 260.697265625 536.267578125 c 6
 265.997070312 384.494140625 l 5
 260.694335938 312.013671875 l 5
 260.697265625 312.056640625 l 6
 260.5546875 308.491210938 257.745117188 305.708007812 254.294921875 305.708007812 c 4
 250.826171875 305.708007812 248.012695312 308.499023438 247.892578125 312.02734375 c 6
 243.194335938 384.494140625 l 5
 243.194335938 384.494140625 247.888671875 536.26171875 247.888671875 536.264648438 c 4
 248.012695312 539.829101562 250.826171875 542.625 254.294921875 542.625 c 4
403.124023438 583.59375 m 4
 405.821289062 581.963867188 407.661132812 579.004882812 407.708984375 575.62890625 c 6
 411.868164062 384.427734375 l 5
 411.868164062 384.42578125 l 5
 407.708984375 315.034179688 l 5
 407.708984375 315.115234375 l 6
 407.63671875 309.9765625 403.446289062 305.794921875 398.370117188 305.794921875 c 4
 393.276367188 305.794921875 389.0859375 309.9765625 389.01953125 315.041992188 c 6
 387.130859375 349.262695312 l 5
 385.185546875 384.42578125 l 5
 388.998046875 574.65234375 l 5
 389.017578125 575.615234375 l 6
 389.055664062 578.50390625 390.3984375 581.091796875 392.47265625 582.803710938 c 4
 394.0859375 584.135742188 396.141601562 584.936523438 398.370117188 584.936523438 c 4
 400.1015625 584.936523438 401.725585938 584.44140625 403.124023438 583.59375 c 4
174.944335938 454.655273438 m 5
 181.452148438 384.551757812 l 5
 174.944335938 310.872070312 l 6
 174.762695312 308.271484375 172.771484375 306.302734375 170.307617188 306.302734375 c 4
 167.822265625 306.302734375 165.830078125 308.2734375 165.674804688 310.869140625 c 6
 159.9296875 384.551757812 l 5
 165.674804688 454.625976562 l 6
 165.830078125 457.235351562 167.822265625 459.201171875 170.307617188 459.201171875 c 4
 172.7734375 459.201171875 174.765625 457.23828125 174.944335938 454.655273438 c 5
142.76171875 464.079101562 m 4
 144.872070312 464.079101562 146.612304688 462.372070312 146.803710938 460.114257812 c 6
 153.717773438 384.557617188 l 5
 146.803710938 311.4765625 l 6
 146.612304688 309.216796875 144.872070312 307.506835938 142.76171875 307.506835938 c 4
 140.622070312 307.506835938 138.880859375 309.216796875 138.708984375 311.4765625 c 6
 132.622070312 384.557617188 l 5
 138.708984375 460.099609375 l 6
 138.880859375 462.3671875 140.622070312 464.079101562 142.76171875 464.079101562 c 4
115.430664062 461.481445312 m 4
 117.219726562 461.481445312 118.671875 460.060546875 118.888671875 458.096679688 c 6
 126.202148438 384.57421875 l 5
 118.883789062 313.72265625 l 6
 118.671875 311.767578125 117.219726562 310.345703125 115.430664062 310.345703125 c 4
 113.609375 310.345703125 112.154296875 311.767578125 111.969726562 313.737304688 c 6
 105.533203125 384.57421875 l 5
 105.533203125 384.57421875 111.969726562 458.088867188 111.969726562 458.09375 c 4
 112.154296875 460.057617188 113.609375 461.481445312 115.430664062 461.481445312 c 4
174.9453125 310.875 m 6
 174.9453125 310.875976562 l 5
 174.9453125 310.875976562 174.9453125 310.875976562 174.9453125 310.875 c 6
 174.944335938 310.862304688 l 5
 174.944335938 310.87109375 l 6
 174.944335938 310.873046875 174.9453125 310.874023438 174.9453125 310.875 c 6
231.459960938 310.930664062 m 6
 231.459960938 310.931640625 231.459960938 310.931640625 231.459960938 310.932617188 c 6
 231.45703125 310.891601562 l 5
 231.459960938 310.930664062 l 6
88.3232421875 449.331054688 m 4
 89.7783203125 449.331054688 90.9541015625 448.190429688 91.1904296875 446.544921875 c 6
 98.9091796875 384.581054688 l 5
 91.1865234375 323.970703125 l 6
 90.9541015625 322.33203125 89.7783203125 321.188476562 88.3232421875 321.188476562 c 4
 86.857421875 321.188476562 85.650390625 322.362304688 85.453125 323.984375 c 6
 78.6689453125 384.581054688 l 5
 78.6689453125 384.581054688 85.453125 446.536132812 85.453125 446.541992188 c 4
 85.650390625 448.159179688 86.857421875 449.331054688 88.3232421875 449.331054688 c 4
62.8134765625 425.598632812 m 4
 64.2119140625 425.598632812 65.34765625 424.494140625 65.5732421875 422.9140625 c 6
 71.548828125 384.580078125 l 5
 65.5732421875 346.899414062 l 6
 65.3447265625 345.318359375 64.2119140625 344.217773438 62.8134765625 344.217773438 c 4
 61.3740234375 344.217773438 60.236328125 345.327148438 60.0458984375 346.9140625 c 6
 55 384.580078125 l 5
 60.0458984375 422.900390625 l 6
 60.236328125 424.486328125 61.3740234375 425.598632812 62.8134765625 425.598632812 c 4
EndSplineSet
Fore
SplineSet
123 255 m 4xfe2040
 133 253 144 249 144 235 c 4
 144 223 136 215 119 215 c 4
 109 215 100 220 95 227 c 5
 104 235 l 5
 108 230 114 227 120 227 c 4
 127 227 131 229 131 234 c 4
 131 238 129 240 117 243 c 4
 105 246 97 250 97 262 c 4
 97 273 108 280 120 280 c 4
 130 280 136 276 142 270 c 5
 133 261 l 5
 129 265 125 268 119 268 c 4
 112 268 110 265 110 262 c 4
 110 258 113 257 123 255 c 4xfe2040
181 280 m 4
 198 280 208 267 208 248 c 4
 208 229 198 215 181 215 c 4
 164 215 153 229 153 248 c 4xfca040
 153 267 164 280 181 280 c 4
233 279 m 5xfc2a40
 233 244 l 6
 233 234 237 227 245 227 c 4
 253 227 258 234 258 244 c 6
 258 279 l 5
 271 279 l 5
 271 244 l 6
 271 226 261 215 245 215 c 4
 230 215 220 226 220 244 c 6
 220 279 l 5
 233 279 l 5xfc2a40
443 267 m 4
 434 267 428 260 428 248 c 4
 428 237 434 228 443 228 c 4
 449 228 453 230 456 236 c 5
 466 229 l 5
 462 220 454 215 443 215 c 4
 427 215 416 228 416 248 c 4xfc204040
 416 267 427 280 443 280 c 4
 455 280 462 274 466 266 c 5
 455 261 l 5
 453 265 449 267 443 267 c 4
548 280 m 4
 565 280 575 267 575 248 c 4
 575 229 565 215 548 215 c 4
 531 215 521 229 521 248 c 4xfc20400c
 521 267 531 280 548 280 c 4
600 279 m 5xfc204003
 600 244 l 6
 600 234 605 227 613 227 c 4
 621 227 626 234 626 244 c 6
 626 279 l 5
 638 279 l 5
 638 244 l 6
 638 226 629 215 613 215 c 4
 598 215 588 226 588 244 c 6
 588 279 l 5
 600 279 l 5xfc204003
299 279 m 5xfc20e0
 325 239 l 5
 325 279 l 5
 337 279 l 5
 337 216 l 5
 326 216 l 5
 299 257 l 5
 299 216 l 5
 287 216 l 5
 287 279 l 5
 299 279 l 5xfc20e0
373 279 m 6
 391 279 404 271 404 248 c 4
 404 226 388 216 372 216 c 6
 354 216 l 5
 354 279 l 5xfc2049
 373 279 l 6
490 279 m 5xfc204010
 490 229 l 5xfc204010
 515 229 l 5
 515 216 l 5
 477 216 l 5xfc204020
 477 279 l 5
 490 279 l 5xfc204010
674 279 m 6
 692 279 705 271 705 248 c 4
 705 226 689 216 673 216 c 6
 654 216 l 5
 654 279 l 5xfc204000c0
 674 279 l 6
181 228 m 4
 191 228 195 237 195 248 c 4
 195 259 191 267 181 267 c 4
 171 267 166 259 166 248 c 4xfca040
 166 237 171 228 181 228 c 4
548 228 m 4
 558 228 562 237 562 248 c 4
 562 259 558 267 548 267 c 4
 538 267 534 259 534 248 c 4xfc20400c
 534 237 538 228 548 228 c 4
372 228 m 6
 385 228 392 237 392 248 c 4
 392 261 386 267 373 267 c 6
 366 267 l 5
 366 228 l 5xfc2049
 372 228 l 6
673 228 m 6
 686 228 692 237 692 248 c 4
 692 261 686 267 673 267 c 6
 667 267 l 5
 667 228 l 5xfc204000c0
 673 228 l 6
231 311 m 6
 230 303 220 304 220 311 c 6xfc2840
 215 384 l 5xfc3040
 220 524 l 6xfc2840
 220 531 231 532 231 524 c 6
 237 384 l 5xfc3040
 231 311 l 6
361 314 m 6xfc2044
 357 384 l 5
 361 560 l 6
 361 571 378 571 378 560 c 6
 382 384 l 5
 378 314 l 6
 377 303 362 302 361 314 c 6xfc2044
348 532 m 6xfc2050
 353 384 l 5
 348 314 l 6
 347 302 333 304 332 314 c 6
 328 384 l 5
 332 532 l 6
 332 542 348 543 348 532 c 6xfc2050
290 313 m 6xfc2340
 289 304 277 303 276 312 c 6
 271 384 l 5
 276 541 l 6
 276 550 290 551 290 541 c 6
 295 384 l 5
 290 313 l 6xfc2340
745 390 m 4xfc204080
 745 343 707 306 660 306 c 6
 425 306 l 5
 420 307 416 310 416 315 c 6
 416 585 l 6xfc204040
 416 590 418 593 424 595 c 4
 524 632 619 562 627 468 c 5
 686 492 745 449 745 390 c 4xfc204080
319 537 m 6
 323 384 l 5
 319 313 l 6
 318 303 305 303 304 313 c 6
 300 384 l 5
 304 537 l 6
 304 548 319 547 319 537 c 6
203 499 m 6
 209 385 l 5
 203 311 l 6
 202 304 194 304 193 311 c 6
 187 385 l 5
 193 499 l 6
 193 505 203 505 203 499 c 6
261 536 m 6xfc2440
 266 384 l 5
 261 312 l 6
 260 304 249 304 248 312 c 6
 243 384 l 5
 248 536 l 6
 248 545 261 545 261 536 c 6xfc2440
389 576 m 6
 389 588 408 587 408 576 c 6
 412 384 l 5
 408 315 l 6
 407 303 390 303 389 315 c 6
 385 384 l 5xfc2042
 389 576 l 6
175 455 m 6xfc6040
 181 385 l 5
 175 311 l 6
 175 305 166 305 166 311 c 6
 160 385 l 5
 166 455 l 6
 167 461 175 460 175 455 c 6xfc6040
147 460 m 6xfd2040
 154 385 l 5
 147 311 l 6
 147 307 139 307 139 311 c 6
 133 385 l 5
 139 460 l 6
 139 465 147 465 147 460 c 6xfd2040
119 458 m 6
 126 385 l 5
 119 314 l 6
 119 309 112 309 112 314 c 6
 106 385 l 5
 112 458 l 6
 112 462 119 463 119 458 c 6
91 445 m 6
 99 385 l 5
 91 324 l 6
 90 320 85 320 85 324 c 6
 79 385 l 5
 85 444 l 6
 86 451 90 451 91 445 c 6
66 420 m 6
 72 385 l 5
 66 347 l 6
 65 343 61 343 60 347 c 6
 55 385 l 5
 60 421 l 6
 61 427 65 428 66 420 c 6
EndSplineSet
Layer: 2
Layer: 3
EndChar
StartChar: souncloudCloud
Encoding: 66 66 19
Width: 800
VWidth: 0
Flags: HW
LayerCount: 3
Back
Fore
SplineSet
231 266 m 6
 230 258 220 259 220 266 c 6xfc2840
 215 339 l 5xfc3040
 220 479 l 6xfc2840
 220 486 231 487 231 479 c 6
 237 339 l 5xfc3040
 231 266 l 6
361 269 m 6xfc2044
 357 339 l 5
 361 515 l 6
 361 526 378 526 378 515 c 6
 382 339 l 5
 378 269 l 6
 377 258 362 257 361 269 c 6xfc2044
348 487 m 6xfc2050
 353 339 l 5
 348 269 l 6
 347 257 333 259 332 269 c 6
 328 339 l 5
 332 487 l 6
 332 497 348 498 348 487 c 6xfc2050
290 268 m 6xfc2340
 289 259 277 258 276 267 c 6
 271 339 l 5
 276 496 l 6
 276 505 290 506 290 496 c 6
 295 339 l 5
 290 268 l 6xfc2340
745 345 m 4xfc204080
 745 298 707 261 660 261 c 6
 425 261 l 5
 420 262 416 265 416 270 c 6
 416 540 l 6xfc204040
 416 545 418 548 424 550 c 4
 524 587 619 517 627 423 c 5
 686 447 745 404 745 345 c 4xfc204080
319 492 m 6
 323 339 l 5
 319 268 l 6
 318 258 305 258 304 268 c 6
 300 339 l 5
 304 492 l 6
 304 503 319 502 319 492 c 6
203 454 m 6
 209 340 l 5
 203 266 l 6
 202 259 194 259 193 266 c 6
 187 340 l 5
 193 454 l 6
 193 460 203 460 203 454 c 6
261 491 m 6xfc2440
 266 339 l 5
 261 267 l 6
 260 259 249 259 248 267 c 6
 243 339 l 5
 248 491 l 6
 248 500 261 500 261 491 c 6xfc2440
389 531 m 6
 389 543 408 542 408 531 c 6
 412 339 l 5
 408 270 l 6
 407 258 390 258 389 270 c 6
 385 339 l 5xfc2042
 389 531 l 6
175 410 m 6xfc6040
 181 340 l 5
 175 266 l 6
 175 260 166 260 166 266 c 6
 160 340 l 5
 166 410 l 6
 167 416 175 415 175 410 c 6xfc6040
147 415 m 6xfd2040
 154 340 l 5
 147 266 l 6
 147 262 139 262 139 266 c 6
 133 340 l 5
 139 415 l 6
 139 420 147 420 147 415 c 6xfd2040
119 413 m 6
 126 340 l 5
 119 269 l 6
 119 264 112 264 112 269 c 6
 106 340 l 5
 112 413 l 6
 112 417 119 418 119 413 c 6
91 400 m 6
 99 340 l 5
 91 279 l 6
 90 275 85 275 85 279 c 6
 79 340 l 5
 85 399 l 6
 86 406 90 406 91 400 c 6
66 375 m 6
 72 340 l 5
 66 302 l 6
 65 298 61 298 60 302 c 6
 55 340 l 5
 60 376 l 6
 61 382 65 383 66 375 c 6
EndSplineSet
Layer: 2
EndChar
StartChar: githubAlt
Encoding: 67 67 20
Width: 800
VWidth: 0
HStem: 135 383<359.725 446.817> 623 42<315.896 484.104>
VStem: 135 42<314.401 485.162> 238 326<324.768 456.318> 337 128<186 272.99> 623 42<314.274 485.162>
LayerCount: 4
Back
SplineSet
400 135 m 4
 253.64453125 135 135 253.64453125 135 400 c 4
 135 546.35546875 253.64453125 665 400 665 c 4
 546.35546875 665 665 546.35546875 665 400 c 4
 665 253.64453125 546.35546875 135 400 135 c 4
486.6171875 605.133789062 m 4
 459.205078125 616.7265625 430.064453125 622.606445312 400 622.606445312 c 4
 369.935546875 622.606445312 340.794921875 616.7265625 313.3828125 605.133789062 c 4
 286.885742188 593.926757812 263.080078125 577.874023438 242.626953125 557.418945312 c 4
 222.173828125 536.96484375 206.122070312 513.16015625 194.913085938 486.6640625 c 4
 183.3203125 459.251953125 177.440429688 430.110351562 177.440429688 400.045898438 c 4
 177.440429688 369.983398438 183.3203125 340.841796875 194.912109375 313.4296875 c 4
 206.119140625 286.931640625 222.172851562 263.126953125 242.625976562 242.672851562 c 4
 263.080078125 222.219726562 286.885742188 206.16796875 313.381835938 194.958984375 c 4
 320.94921875 191.759765625 328.65234375 189.010742188 336.465820312 186.682617188 c 5
 336.465820312 227.173828125 l 6
 336.465820312 248.220703125 343.5390625 263.577148438 357.686523438 273.23828125 c 5
 348.71484375 274.099609375 340.477539062 275.307617188 332.971679688 276.860351562 c 4
 325.467773438 278.413085938 317.53125 280.65625 309.163085938 283.588867188 c 4
 300.795898438 286.522460938 293.291015625 290.013671875 286.649414062 294.071289062 c 4
 280.005859375 298.125 273.624023438 303.38671875 267.499023438 309.857421875 c 4
 261.374023438 316.328125 256.241210938 323.66015625 252.1015625 331.853515625 c 4
 247.9609375 340.048828125 244.682617188 349.883789062 242.268554688 361.356445312 c 4
 239.853515625 372.828125 238.646484375 385.466796875 238.646484375 399.268554688 c 4
 238.646484375 426.01171875 247.359375 448.78515625 264.784179688 467.58984375 c 5
 256.84765625 488.120117188 257.709960938 510.633789062 267.372070312 535.133789062 c 4
 267.887695312 535.306640625 268.751953125 535.477539062 269.958984375 535.651367188 c 4
 271.16796875 535.82421875 273.883789062 535.737304688 278.111328125 535.391601562 c 4
 282.336914062 535.047851562 286.91015625 534.140625 291.827148438 532.674804688 c 4
 296.744140625 531.208984375 303.298828125 528.44921875 311.495117188 524.39453125 c 4
 319.690429688 520.33984375 328.360351562 515.208007812 337.50390625 508.997070312 c 5
 357.689453125 514.69140625 378.909179688 517.538085938 401.166992188 517.538085938 c 4
 423.25 517.538085938 444.557617188 514.69140625 465.087890625 508.997070312 c 5
 479.581054688 518.831054688 492.650390625 525.904296875 504.294921875 530.21875 c 4
 515.940429688 534.533203125 524.005859375 536.428710938 528.491210938 535.912109375 c 6
 534.961914062 535.135742188 l 5
 544.622070312 510.809570312 545.486328125 488.295898438 537.548828125 467.591796875 c 5
 554.973632812 448.787109375 563.686523438 426.012695312 563.686523438 399.272460938 c 4
 563.686523438 385.46875 562.477539062 372.83203125 560.064453125 361.358398438 c 4
 557.649414062 349.885742188 554.37109375 340.05078125 550.231445312 331.857421875 c 4
 546.090820312 323.662109375 540.958007812 316.330078125 534.833984375 309.859375 c 4
 528.708984375 303.388671875 522.326171875 298.127929688 515.68359375 294.073242188 c 4
 509.041015625 290.017578125 501.536132812 286.524414062 493.169921875 283.590820312 c 4
 484.801757812 280.658203125 476.866210938 278.415039062 469.361328125 276.86328125 c 4
 461.856445312 275.309570312 453.6171875 274.1015625 444.646484375 273.240234375 c 5
 458.96484375 263.407226562 466.125976562 248.05078125 466.125976562 227.17578125 c 6
 466.125976562 187.459960938 l 5
 473.0546875 189.615234375 479.890625 192.115234375 486.623046875 194.9609375 c 4
 513.12109375 206.16796875 536.92578125 222.22265625 557.379882812 242.674804688 c 4
 577.83203125 263.127929688 593.884765625 286.934570312 605.09375 313.430664062 c 4
 616.688476562 340.841796875 622.56640625 369.985351562 622.56640625 400.048828125 c 4
 622.56640625 430.112304688 616.686523438 459.252929688 605.094726562 486.666015625 c 4
 593.887695312 513.163085938 577.833984375 536.96875 557.380859375 557.421875 c 4
 536.919921875 577.872070312 513.115234375 593.924804688 486.6171875 605.133789062 c 4
EndSplineSet
Fore
SplineSet
400 623 m 4xec
 273 623 177 520 177 400 c 4
 177 296 249 212 337 186 c 5
 337 227 l 5xec
 337 260 354 273 354 273 c 5
 281 281 238 316 238 399 c 4
 238 444 265 468 265 468 c 5
 265 468 251 494 267 535 c 5
 292 541 338 509 338 509 c 5
 338 509 362 518 401 518 c 4
 440 518 464 509 464 509 c 5
 464 509 510 541 535 535 c 5
 551 494 537 468 537 468 c 5
 537 468 564 444 564 399 c 4xf4
 564 316 521 281 448 273 c 5
 448 273 465 260 465 227 c 5
 465 186 l 5
 552 213 623 295 623 400 c 4
 623 520 527 623 400 623 c 4xec
400 665 m 4
 546 665 665 546 665 400 c 4
 665 254 546 135 400 135 c 4
 254 135 135 254 135 400 c 4
 135 546 254 665 400 665 c 4
EndSplineSet
Layer: 2
Layer: 3
EndChar
StartChar: snap
Encoding: 68 68 21
Width: 800
VWidth: 0
Flags: W
VStem: 262 276<437.602 584.838>
LayerCount: 3
Back
SplineSet
402.640625 152.462890625 m 4
 433.897460938 152.462890625 453.950195312 166.638671875 473.383789062 180.381835938 c 4
 486.75 189.831054688 499.37890625 198.74609375 514.251953125 201.225585938 c 4
 521.522460938 202.428710938 528.756835938 203.0390625 535.748046875 203.0390625 c 4
 547.720703125 203.0390625 557.130859375 201.52734375 565.525390625 199.885742188 c 4
 570.2578125 198.956054688 573.993164062 198.486328125 576.618164062 198.486328125 c 6
 577.235351562 198.486328125 l 6
 581.01953125 198.486328125 583.26953125 200.17578125 584.326171875 203.786132812 c 4
 585.55078125 207.947265625 586.44140625 211.90234375 587.3203125 215.9296875 c 4
 589.736328125 226.997070312 591.305664062 232.275390625 595.356445312 232.897460938 c 4
 644.931640625 240.556640625 659.106445312 250.982421875 662.250976562 258.334960938 c 4
 662.706054688 259.379882812 662.965820312 260.455078125 663.029296875 261.5234375 c 4
 663.18359375 264.370117188 661.173828125 266.879882812 658.361328125 267.344726562 c 4
 582.140625 279.905273438 548.0078125 357.748046875 546.58984375 361.05078125 c 4
 546.5546875 361.1484375 546.5078125 361.236328125 546.465820312 361.328125 c 4
 541.8046875 370.783203125 540.889648438 378.978515625 543.74609375 385.69921875 c 4
 548.970703125 398.018554688 566.015625 403.428710938 577.31640625 407.013671875 c 4
 580.087890625 407.893554688 582.706054688 408.725585938 584.754882812 409.53125 c 4
 604.517578125 417.336914062 608.545898438 425.271484375 608.446289062 430.548828125 c 4
 608.338867188 436.15234375 603.326171875 441.515625 595.673828125 444.2265625 c 6
 595.510742188 444.293945312 l 6
 592.81640625 445.418945312 589.571289062 446.0390625 586.370117188 446.0390625 c 4
 584.2734375 446.0390625 581.1953125 445.765625 578.420898438 444.470703125 c 4
 568.9609375 440.0390625 560.340820312 437.647460938 552.840820312 437.361328125 c 6
 552.830078125 437.361328125 l 6
 542.959960938 437.739257812 538.58984375 441.947265625 538.044921875 442.501953125 c 4
 538.299804688 447.166015625 538.602539062 452.037109375 538.91796875 457.048828125 c 6
 539.012695312 458.614257812 l 6
 541.28515625 494.60546875 544.10546875 539.400390625 532.70703125 564.959960938 c 4
 498.53515625 641.577148438 425.952148438 647.5390625 404.518554688 647.5390625 c 6
 403.251953125 647.532226562 l 5
 403.251953125 647.532226562 394.42578125 647.439453125 393.877929688 647.439453125 c 4
 372.494140625 647.439453125 300.0703125 641.489257812 265.916992188 564.913085938 c 4
 254.522460938 539.3671875 257.333007812 494.612304688 259.6015625 458.591796875 c 4
 259.953125 453.03515625 260.296875 447.650390625 260.573242188 442.494140625 c 4
 259.9921875 441.893554688 255.240234375 437.319335938 244.353515625 437.319335938 c 4
 236.474609375 437.319335938 227.34375 439.723632812 217.211914062 444.470703125 c 4
 215.469726562 445.284179688 213.399414062 445.701171875 211.046875 445.701171875 c 4
 202.466796875 445.701171875 191.861328125 440.168945312 190.350585938 432.232421875 c 4
 189.465820312 427.57421875 191.340820312 418.43359375 213.864257812 409.53125 c 4
 215.928710938 408.713867188 218.546875 407.88671875 221.30859375 407.013671875 c 4
 232.594726562 403.43359375 249.647460938 398.018554688 254.874023438 385.698242188 c 4
 257.727539062 378.973632812 256.815429688 370.771484375 252.15234375 361.323242188 c 4
 252.110351562 361.231445312 252.069335938 361.142578125 252.030273438 361.05078125 c 4
 250.612304688 357.744140625 216.44921875 279.879882812 140.262695312 267.333007812 c 4
 137.451171875 266.875 135.435546875 264.362304688 135.595703125 261.516601562 c 4
 135.658203125 260.466796875 135.911132812 259.405273438 136.359375 258.346679688 c 4
 139.5234375 250.940429688 153.708007812 240.501953125 203.265625 232.846679688 c 4
 207.518554688 232.194335938 209.091796875 225.955078125 211.306640625 215.80859375 c 4
 212.165039062 211.8671875 213.05859375 207.791992188 214.294921875 203.583984375 c 4
 215.71484375 198.7265625 218.987304688 198.07421875 222.004882812 198.07421875 c 4
 224.893554688 198.07421875 228.6953125 198.81640625 233.1015625 199.676757812 c 4
 240.353515625 201.095703125 250.28515625 203.0390625 262.875 203.0390625 c 4
 269.865234375 203.0390625 277.096679688 202.428710938 284.362304688 201.225585938 c 4
 299.251953125 198.74609375 311.887695312 189.814453125 325.280273438 180.350585938 c 4
 344.672851562 166.638671875 364.728515625 152.462890625 395.975585938 152.462890625 c 4
 396.866210938 152.462890625 397.7578125 152.499023438 398.608398438 152.564453125 c 6
 398.611328125 152.564453125 l 6
 399.946289062 152.500976562 401.282226562 152.462890625 402.640625 152.462890625 c 4
EndSplineSet
Fore
SplineSet
400 648 m 4
 377 648 302 642 267 565 c 4
 253 535 260 483 262 443 c 5
 248 429 224 446 214 446 c 4
 194 446 175 425 215 410 c 4
 236 402 270 394 254 361 c 4
 252 358 218 282 142 267 c 4
 132 265 133 242 205 233 c 4
 213 232 211 198 222 198 c 4
 233 198 245 203 264 203 c 4
 329 203 332 153 400 153 c 4
 468 153 471 203 536 203 c 4
 555 203 567 198 578 198 c 4
 589 198 587 232 595 233 c 4
 667 242 668 265 658 267 c 4
 582 282 548 358 546 361 c 4
 530 394 564 402 585 410 c 4
 625 425 606 446 586 446 c 4
 576 446 552 429 538 443 c 5
 540 483 547 535 533 565 c 4
 498 642 423 648 400 648 c 4
EndSplineSet
Layer: 2
EndChar
StartChar: E
Encoding: 69 69 22
Width: 800
VWidth: 0
Flags: HW
VStem: 262 276<437.602 584.838>
LayerCount: 4
Back
SplineSet
404.518554688 653.12109375 m 2
 426.80078125 653.12109375 502.262695312 646.921875 537.8046875 567.235351562 c 0
 549.764648438 540.419921875 546.8984375 494.868164062 544.587890625 458.272460938 c 2
 544.495117188 456.719726562 l 2
 544.243164062 452.728515625 544.005859375 448.909179688 543.794921875 445.197265625 c 0
 545.459960938 444.28125 548.379882812 443.15625 552.840820312 442.947265625 c 0
 559.5703125 443.249023438 567.375 445.4609375 576.057617188 449.530273438 c 0
 579.750976562 451.256835938 583.705078125 451.620117188 586.370117188 451.620117188 c 0
 590.267578125 451.620117188 594.248046875 450.860351562 597.600585938 449.46875 c 2
 597.630859375 449.458984375 l 2
 607.600585938 445.897460938 613.873046875 438.711914062 614.03125 430.659179688 c 0
 614.223632812 420.40625 605.06640625 411.55078125 586.809570312 404.340820312 c 0
 584.581054688 403.461914062 581.87109375 402.598632812 578.98828125 401.68359375 c 0
 568.680664062 398.41796875 553.110351562 393.473632812 548.884765625 383.515625 c 0
 546.698242188 378.358398438 547.563476562 371.72265625 551.47265625 363.793945312 c 0
 551.563476562 363.618164062 551.646484375 363.43359375 551.724609375 363.250976562 c 0
 553.092773438 360.064453125 586.03515625 284.921875 659.266601562 272.8515625 c 0
 664.891601562 271.926757812 668.916992188 266.912109375 668.600585938 261.212890625 c 0
 668.50390625 259.504882812 668.098632812 257.8046875 667.393554688 256.168945312 c 0
 661.912109375 243.379882812 638.741210938 233.984375 596.534179688 227.4296875 c 0
 595.12890625 225.53515625 593.66796875 218.827148438 592.775390625 214.734375 c 0
 591.873046875 210.614257812 590.9609375 206.545898438 589.690429688 202.228515625 c 0
 587.932617188 196.213867188 583.5078125 192.899414062 577.235351562 192.899414062 c 2
 576.930664062 192.899414062 l 1
 576.618164062 192.904296875 l 2
 573.629882812 192.904296875 569.538085938 193.411132812 564.455078125 194.40625 c 0
 556.340820312 195.991210938 547.245117188 197.452148438 535.748046875 197.452148438 c 0
 529.063476562 197.452148438 522.134765625 196.872070312 515.171875 195.715820312 c 0
 501.556640625 193.452148438 489.995117188 185.27734375 476.5703125 175.795898438 c 0
 457.399414062 162.237304688 435.67578125 146.87890625 402.640625 146.87890625 c 0
 401.161132812 146.87890625 399.768554688 146.92578125 398.698242188 146.97265625 c 0
 397.795898438 146.90625 396.8828125 146.87890625 395.975585938 146.87890625 c 0
 362.951171875 146.87890625 341.224609375 162.236328125 322.040039062 175.80078125 c 0
 308.64453125 185.268554688 297.075195312 193.447265625 283.459960938 195.715820312 c 0
 276.485351562 196.872070312 269.557617188 197.452148438 262.875 197.452148438 c 0
 250.825195312 197.452148438 241.19921875 195.572265625 234.168945312 194.19921875 c 0
 229.484375 193.279296875 225.434570312 192.487304688 222.004882812 192.487304688 c 0
 213.51171875 192.487304688 210.208984375 197.666015625 208.936523438 201.997070312 c 0
 207.640625 206.404296875 206.731445312 210.580078125 205.848632812 214.629882812 c 0
 204.951171875 218.737304688 203.486328125 225.473632812 202.076171875 227.381835938 c 0
 159.880859375 233.9296875 136.703125 243.341796875 131.208984375 256.184570312 c 0
 130.515625 257.822265625 130.114257812 259.5078125 130.017578125 261.202148438 c 0
 129.706054688 266.897460938 133.727539062 271.91796875 139.356445312 272.846679688 c 0
 212.5546875 284.897460938 245.525390625 360.055664062 246.897460938 363.24609375 c 0
 246.973632812 363.430664062 247.059570312 363.608398438 247.14453125 363.788085938 c 0
 251.051757812 371.717773438 251.924804688 378.358398438 249.737304688 383.515625 c 0
 245.508789062 393.473632812 229.9296875 398.41796875 219.625 401.69140625 c 0
 216.766601562 402.59375 214.059570312 403.451171875 211.80859375 404.340820312 c 0
 186.862304688 414.194335938 183.388671875 425.513671875 184.866210938 433.274414062 c 0
 186.912109375 444.05078125 200.056640625 451.280273438 211.046875 451.280273438 c 0
 214.219726562 451.280273438 217.091796875 450.697265625 219.583984375 449.530273438 c 0
 228.966796875 445.131835938 237.301757812 442.90625 244.353515625 442.90625 c 0
 249.63671875 442.90625 252.994140625 444.171875 254.830078125 445.19140625 c 0
 254.584960938 449.514648438 254.294921875 453.9921875 254.02734375 458.3046875 c 0
 251.73046875 494.876953125 248.865234375 540.387695312 260.813476562 567.184570312 c 0
 296.33984375 646.8359375 371.642578125 653.026367188 393.861328125 653.026367188 c 0
 394.547851562 653.026367188 403.180664062 653.111328125 403.180664062 653.111328125 c 2
 403.595703125 653.12109375 404.032226562 653.12109375 404.497070312 653.12109375 c 2
 404.518554688 653.12109375 l 2
404.518554688 641.954101562 m 0
 404.090820312 641.954101562 403.689453125 641.951171875 403.305664062 641.946289062 c 2
 403.305664062 641.946289062 394.383789062 641.857421875 393.877929688 641.857421875 c 0
 373.348632812 641.857421875 303.818359375 636.189453125 271.016601562 562.637695312 c 0
 260.176757812 538.330078125 262.948242188 494.32421875 265.176757812 458.944335938 c 0
 265.532226562 453.336914062 265.873046875 447.90234375 266.15234375 442.7109375 c 2
 266.2734375 440.487304688 l 1
 264.788085938 438.829101562 l 2
 264.141601562 438.107421875 258.044921875 431.736328125 244.353515625 431.736328125 c 0
 235.654296875 431.736328125 225.719726562 434.326171875 214.844726562 439.4140625 c 0
 213.869140625 439.874023438 212.553710938 440.114257812 211.046875 440.114257812 c 0
 204.3515625 440.114257812 196.680664062 435.614257812 195.836914062 431.186523438 c 0
 195.106445312 427.346679688 199.99609375 421.013671875 215.916992188 414.7265625 c 0
 217.758789062 413.997070312 220.184570312 413.225585938 222.995117188 412.341796875 c 0
 235.258789062 408.444335938 253.78515625 402.56640625 260.016601562 387.875976562 c 0
 263.533203125 379.592773438 262.572265625 369.833984375 257.162109375 358.850585938 c 0
 254.932617188 353.642578125 219.940429688 274.801757812 141.172851562 261.823242188 c 0
 141.193359375 261.453125 141.28125 261.028320312 141.493164062 260.541992188 c 0
 142.833984375 257.403320312 151.31640625 246.51953125 204.1171875 238.3671875 c 0
 212.374023438 237.09375 214.409179688 227.782226562 216.759765625 217.01171875 c 0
 217.599609375 213.165039062 218.46875 209.176757812 219.65234375 205.149414062 c 0
 220.0546875 203.768554688 220.094726562 203.659179688 222.004882812 203.659179688 c 0
 224.341796875 203.659179688 227.907226562 204.350585938 232.02734375 205.161132812 c 0
 239.514648438 206.625976562 249.77734375 208.620117188 262.875 208.620117188 c 0
 270.188476562 208.620117188 277.72265625 207.986328125 285.282226562 206.732421875 c 0
 301.434570312 204.041992188 314.583007812 194.74609375 328.5 184.907226562 c 0
 347.182617188 171.697265625 366.505859375 158.043945312 395.975585938 158.043945312 c 0
 396.72265625 158.043945312 397.451171875 158.073242188 398.173828125 158.1328125 c 2
 398.508789062 158.163085938 l 1
 398.840820312 158.146484375 l 2
 400.100585938 158.0859375 401.362304688 158.043945312 402.640625 158.043945312 c 0
 432.1171875 158.043945312 451.431640625 171.697265625 470.119140625 184.912109375 c 0
 484.040039062 194.74609375 497.184570312 204.041992188 513.341796875 206.732421875 c 0
 520.897460938 207.986328125 528.436523438 208.620117188 535.748046875 208.620117188 c 0
 548.849609375 208.620117188 559.111328125 206.827148438 566.594726562 205.364257812 c 0
 570.715820312 204.556640625 574.276367188 204.071289062 576.618164062 204.071289062 c 0
 576.852539062 204.071289062 577.055664062 204.071289062 577.235351562 204.071289062 c 0
 578.54296875 204.071289062 578.611328125 204.141601562 578.969726562 205.359375 c 0
 580.155273438 209.383789062 581.025390625 213.268554688 581.86328125 217.119140625 c 0
 584.212890625 227.889648438 586.240234375 237.14453125 594.50390625 238.419921875 c 0
 647.301757812 246.5703125 655.7890625 257.426757812 657.126953125 260.572265625 c 0
 657.340820312 261.052734375 657.428710938 261.467773438 657.451171875 261.833007812 c 0
 578.677734375 274.811523438 543.684570312 353.663085938 541.45703125 358.856445312 c 0
 536.046875 369.833984375 535.08984375 379.598632812 538.602539062 387.887695312 c 0
 544.83984375 402.572265625 563.365234375 408.444335938 575.625976562 412.341796875 c 0
 578.434570312 413.228515625 580.86328125 413.997070312 582.703125 414.7265625 c 0
 601.545898438 422.168945312 602.896484375 428.635742188 602.864257812 430.44140625 c 0
 602.80078125 433.614257812 599.041015625 437.130859375 593.727539062 438.9921875 c 2
 593.413085938 439.119140625 l 2
 591.313476562 440.00390625 588.76953125 440.454101562 586.370117188 440.454101562 c 0
 584.267578125 440.454101562 582.28125 440.114257812 580.79296875 439.4140625 c 0
 570.650390625 434.661132812 561.310546875 432.090820312 553.026367188 431.779296875 c 2
 552.821289062 431.774414062 l 1
 552.611328125 431.779296875 l 2
 540.080078125 432.265625 534.440429688 438.154296875 533.842773438 438.826171875 c 2
 532.34765625 440.487304688 l 1
 532.469726562 442.716796875 l 2
 532.748046875 447.918945312 533.091796875 453.35546875 533.4453125 458.96484375 c 0
 535.676757812 494.344726562 538.448242188 538.381835938 527.610351562 562.684570312 c 0
 494.6796875 636.5078125 424.806640625 641.951171875 404.518554688 641.954101562 c 0
EndSplineSet
Fore
SplineSet
400 653 m 0
 424 653 501 650 538 567 c 0
 551 538 546 485 544 445 c 1
 562 438 573 452 586 452 c 0
 606.332054945 452 637 425 588 405 c 0
 566 396 537 392 552 363 c 0
 556 355 590 283 659 273 c 0
 674 271 683 237 596 228 c 5
 592.277777778 216 592.166666667 193 579 193 c 4
 565.69047619 193 555.452380952 198 536 198 c 0
 477 198 469 147 400 147 c 1024
400 158 m 0
 465 158 470 209 536 209 c 0
 556.476190476 209 569 204 579 204 c 1
 583 225 586 237 593 238 c 0
 644 245 658 259 657 262 c 1
 577 276 544 354 542 358 c 0
 521 400 564.128343735 407.661022564 583 415 c 0
 619 429 596.869900623 441 586 441 c 0
 577 441 556 421 532 440 c 1
 535 481 540 535 528 562 c 0
 495 636 429 642 400 642 c 1024
EndSplineSet
Layer: 2
Layer: 3
EndChar
StartChar: reddit
Encoding: 70 70 23
Width: 800
VWidth: 0
Flags: W
VStem: 308 184<153.93 357>
LayerCount: 3
Back
SplineSet
621.559570312 531.072265625 m 4
 621.559570312 555.103515625 602.072265625 574.608398438 578.024414062 574.608398438 c 4
 564.50390625 574.608398438 552.423828125 568.431640625 544.440429688 558.767578125 c 5
 508.440429688 584.047851562 457.047851562 599.872070312 399.9921875 599.872070312 c 4
 342.919921875 599.872070312 291.543945312 584.047851562 255.543945312 558.767578125 c 5
 247.559570312 568.431640625 235.48046875 574.608398438 221.959960938 574.608398438 c 4
 197.912109375 574.608398438 178.423828125 555.103515625 178.423828125 531.072265625 c 4
 178.423828125 512.9921875 189.448242188 497.48828125 205.127929688 490.912109375 c 5
 203.624023438 484.49609375 202.82421875 477.904296875 202.82421875 471.200195312 c 4
 202.82421875 421.935546875 245.272460938 379.135742188 307.591796875 357.51953125 c 4
 306.887695312 353.616210938 306.232421875 349.6640625 305.65625 345.6484375 c 4
 276.967773438 334.624023438 256.18359375 302.208007812 256.18359375 263.935546875 c 4
 256.18359375 221.120117188 282.16796875 185.6484375 316.135742188 179.200195312 c 5
 321.095703125 162.671875 327.17578125 147.711914062 334.15234375 134.767578125 c 5
 327.896484375 137.120117188 320.935546875 138.448242188 313.576171875 138.448242188 c 4
 286.51953125 138.448242188 264.616210938 120.671875 264.616210938 98.767578125 c 4
 264.616210938 95.3115234375 265.3203125 92.0322265625 266.360351562 88.84765625 c 6
 532.328125 88.84765625 l 6
 533.3203125 92.0322265625 534.040039062 95.3115234375 534.040039062 98.767578125 c 4
 534.040039062 120.671875 512.120117188 138.448242188 485.047851562 138.448242188 c 4
 478.34375 138.448242188 471.959960938 137.34375 466.135742188 135.375976562 c 5
 472.984375 148.17578125 478.952148438 162.912109375 483.83203125 179.200195312 c 5
 517.81640625 185.631835938 543.799804688 221.120117188 543.799804688 263.935546875 c 4
 543.799804688 302.208007812 523.015625 334.624023438 494.328125 345.6640625 c 4
 493.751953125 349.6640625 493.095703125 353.616210938 492.391601562 357.51953125 c 4
 554.711914062 379.135742188 597.16015625 421.935546875 597.16015625 471.200195312 c 4
 597.16015625 477.904296875 596.375976562 484.49609375 594.856445312 490.912109375 c 5
 610.536132812 497.50390625 621.559570312 512.9921875 621.559570312 531.072265625 c 4
556.18359375 642.51171875 m 4
 575.16015625 642.51171875 590.51953125 657.872070312 590.51953125 676.81640625 c 4
 590.51953125 695.759765625 575.16015625 711.135742188 556.18359375 711.135742188 c 4
 537.240234375 711.135742188 521.896484375 695.759765625 521.896484375 676.81640625 c 4
 521.896484375 657.872070312 537.240234375 642.51171875 556.18359375 642.51171875 c 4
330.51953125 528.223632812 m 4
 348.103515625 528.223632812 362.423828125 513.904296875 362.423828125 496.3203125 c 4
 362.423828125 478.736328125 348.103515625 464.416015625 330.51953125 464.416015625 c 4
 312.935546875 464.416015625 298.631835938 478.736328125 298.631835938 496.3203125 c 4
 298.631835938 513.904296875 312.935546875 528.223632812 330.51953125 528.223632812 c 4
469.431640625 528.240234375 m 4
 487.032226562 528.240234375 501.3515625 513.919921875 501.3515625 496.3203125 c 4
 501.3515625 478.719726562 487.032226562 464.416015625 469.431640625 464.416015625 c 4
 451.83203125 464.416015625 437.528320312 478.719726562 437.528320312 496.3203125 c 4
 437.528320312 513.919921875 451.83203125 528.240234375 469.431640625 528.240234375 c 4
399.9921875 382.624023438 m 4
 365.639648438 382.624023438 341.143554688 390.17578125 325.608398438 405.696289062 c 4
 322.15234375 409.16796875 322.15234375 414.767578125 325.608398438 418.240234375 c 4
 329.080078125 421.696289062 334.6796875 421.696289062 338.15234375 418.223632812 c 4
 350.16796875 406.208007812 370.568359375 400.3515625 399.9921875 400.3515625 c 4
 429.400390625 400.3515625 449.799804688 406.208007812 461.84765625 418.240234375 c 4
 465.3203125 421.696289062 470.919921875 421.6796875 474.391601562 418.223632812 c 4
 477.84765625 414.767578125 477.83203125 409.15234375 474.375976562 405.696289062 c 4
 458.83984375 390.17578125 434.328125 382.624023438 399.9921875 382.624023438 c 4
600.072265625 504.368164062 m 5
 607.767578125 510.736328125 612.696289062 520.3359375 612.696289062 531.072265625 c 4
 612.696289062 550.192382812 597.143554688 565.744140625 578.024414062 565.744140625 c 4
 570.6796875 565.744140625 563.864257812 563.440429688 558.248046875 559.51953125 c 5
 578.48828125 543.408203125 592.6796875 524.624023438 600.072265625 504.368164062 c 5
399.9921875 351.391601562 m 4
 503.81640625 351.391601562 588.295898438 405.135742188 588.295898438 471.200195312 c 4
 588.295898438 537.263671875 503.81640625 591.024414062 399.9921875 591.024414062 c 4
 296.15234375 591.024414062 211.688476562 537.263671875 211.688476562 471.200195312 c 4
 211.688476562 405.135742188 296.15234375 351.391601562 399.9921875 351.391601562 c 4
534.935546875 263.919921875 m 4
 534.935546875 291.583984375 523.064453125 315.83984375 505.303710938 329.408203125 c 5
 506.6796875 315.51953125 507.431640625 301.135742188 507.431640625 286.3359375 c 4
 507.431640625 253.120117188 503.591796875 221.328125 496.631835938 192.944335938 c 5
 519.095703125 204.543945312 534.935546875 231.984375 534.935546875 263.919921875 c 4
485.047851562 129.583984375 m 4
 480.456054688 129.583984375 476.072265625 128.959960938 471.959960938 127.856445312 c 4
 465.383789062 116.112304688 458.040039062 105.952148438 450.072265625 97.7119140625 c 5
 525.143554688 97.7119140625 l 6
 525.16015625 98.064453125 525.17578125 98.416015625 525.17578125 98.767578125 c 4
 525.17578125 115.759765625 507.17578125 129.583984375 485.047851562 129.583984375 c 4
273.51171875 97.7119140625 m 5
 349.896484375 97.7119140625 l 5
 342.024414062 105.856445312 334.759765625 115.872070312 328.248046875 127.440429688 c 4
 323.704101562 128.81640625 318.759765625 129.583984375 313.576171875 129.583984375 c 4
 291.463867188 129.583984375 273.48046875 115.759765625 273.48046875 98.767578125 c 4
 273.48046875 98.416015625 273.49609375 98.064453125 273.51171875 97.7119140625 c 5
265.047851562 263.919921875 m 4
 265.047851562 231.984375 280.887695312 204.559570312 303.3515625 192.944335938 c 5
 296.391601562 221.34375 292.551757812 253.120117188 292.551757812 286.3359375 c 4
 292.551757812 301.135742188 293.303710938 315.51953125 294.6796875 329.391601562 c 5
 276.919921875 315.83984375 265.047851562 291.583984375 265.047851562 263.919921875 c 4
485.240234375 345.872070312 m 5
 458.807617188 337.887695312 429.879882812 333.6640625 399.9921875 333.6640625 c 4
 370.087890625 333.6640625 341.16015625 337.887695312 314.744140625 345.872070312 c 5
 311.84765625 327.0078125 310.263671875 306.9921875 310.263671875 286.3359375 c 4
 310.263671875 198.896484375 338.6484375 120.255859375 378.055664062 97.7119140625 c 5
 421.912109375 97.7119140625 l 5
 461.3203125 120.272460938 489.719726562 198.896484375 489.719726562 286.3359375 c 4
 489.719726562 306.9921875 488.135742188 327.0078125 485.240234375 345.872070312 c 5
187.288085938 531.072265625 m 4
 187.288085938 520.3359375 192.215820312 510.736328125 199.912109375 504.368164062 c 5
 207.303710938 524.624023438 221.49609375 543.408203125 241.736328125 559.51953125 c 5
 236.120117188 563.440429688 229.303710938 565.744140625 221.959960938 565.744140625 c 4
 202.83984375 565.744140625 187.288085938 550.192382812 187.288085938 531.072265625 c 4
556.18359375 702.272460938 m 4
 542.16796875 702.272460938 530.744140625 690.84765625 530.744140625 676.81640625 c 4
 530.744140625 662.784179688 542.16796875 651.360351562 556.18359375 651.360351562 c 4
 570.232421875 651.360351562 581.65625 662.784179688 581.65625 676.81640625 c 4
 581.65625 690.84765625 570.232421875 702.272460938 556.18359375 702.272460938 c 4
630.423828125 531.072265625 m 4
 630.423828125 511.967773438 620.135742188 495.248046875 604.83984375 486.095703125 c 5
 605.608398438 481.18359375 606.024414062 476.223632812 606.024414062 471.200195312 c 4
 606.024414062 433.744140625 584.072265625 398.799804688 544.248046875 372.799804688 c 4
 531.576171875 364.528320312 517.528320312 357.50390625 502.48828125 351.759765625 c 5
 531.864257812 337.759765625 552.6484375 303.6640625 552.6484375 263.919921875 c 4
 552.6484375 219.040039062 526.120117188 181.375976562 490.6484375 171.711914062 c 5
 487.896484375 163.120117188 484.83984375 154.927734375 481.49609375 147.215820312 c 5
 482.6640625 147.280273438 483.84765625 147.311523438 485.047851562 147.311523438 c 4
 516.935546875 147.311523438 542.904296875 125.536132812 542.904296875 98.767578125 c 4
 542.904296875 94.83203125 542.232421875 90.84765625 540.776367188 86.2236328125 c 4
 539.624023438 82.51171875 536.200195312 80 532.328125 80 c 6
 266.360351562 80 l 6
 262.51953125 80 259.112304688 82.4638671875 257.927734375 86.1279296875 c 4
 256.471679688 90.6240234375 255.751953125 94.767578125 255.751953125 98.767578125 c 4
 255.751953125 125.536132812 281.704101562 147.311523438 313.576171875 147.311523438 c 4
 315.255859375 147.311523438 316.887695312 147.215820312 318.536132812 147.103515625 c 5
 315.17578125 154.84765625 312.087890625 163.072265625 309.3203125 171.711914062 c 5
 273.864257812 181.375976562 247.3359375 219.040039062 247.3359375 263.919921875 c 4
 247.3359375 303.6640625 268.120117188 337.744140625 297.49609375 351.759765625 c 5
 282.456054688 357.50390625 268.408203125 364.528320312 255.736328125 372.799804688 c 4
 215.896484375 398.799804688 193.975585938 433.744140625 193.975585938 471.200195312 c 4
 193.975585938 476.223632812 194.375976562 481.18359375 195.143554688 486.095703125 c 5
 179.84765625 495.248046875 169.576171875 511.967773438 169.576171875 531.072265625 c 4
 169.576171875 559.967773438 193.064453125 583.456054688 221.959960938 583.456054688 c 4
 235.288085938 583.456054688 247.463867188 578.448242188 256.711914062 570.223632812 c 5
 293.83203125 594.143554688 342.34375 607.6796875 394.040039062 608.639648438 c 5
 425.16015625 707.024414062 l 6
 426.568359375 711.440429688 431.127929688 714.032226562 435.639648438 712.975585938 c 6
 516.568359375 693.919921875 l 5
 523.208007812 709.248046875 538.456054688 720 556.18359375 720 c 4
 580.0078125 720 599.383789062 700.624023438 599.383789062 676.81640625 c 4
 599.383789062 653.0078125 580.0078125 633.6484375 556.18359375 633.6484375 c 4
 532.471679688 633.6484375 513.17578125 652.864257812 513.032226562 676.559570312 c 5
 439.576171875 693.83984375 l 5
 412.568359375 608.463867188 l 5
 461.767578125 606.49609375 507.736328125 593.103515625 543.272460938 570.208007812 c 5
 552.51953125 578.448242188 564.696289062 583.456054688 578.024414062 583.456054688 c 4
 606.919921875 583.456054688 630.423828125 559.967773438 630.423828125 531.072265625 c 4
EndSplineSet
Fore
SplineSet
468 412 m 0
 468 412 452 391 400 391 c 0
 348 391 332 412 332 412 c 1024
460 132 m 17
 496 151 544 125 534 89 c 9
 266 89 l 17
 256 125 304 151 340 132 c 9
 460 132 l 17
425 89 m 4
 480 119 514 247 492 357 c 13
 308 357 l 21
 286 247 320 119 375 89 c 1028
EndSplineSet
Layer: 2
SplineSet
425 89 m 21
 480 119 514 247 492 357 c 13
 308 357 l 21
 286 247 320 119 375 89 c 13
 425 89 l 21
EndSplineSet
EndChar
StartChar: Whatsapp
Encoding: 71 71 24
Width: 800
VWidth: 0
HStem: 162 40<318.853 482.857> 600 40<324.116 480.49>
VStem: 162 40<319.145 479.888> 600 40<321.704 483.072>
LayerCount: 3
Back
SplineSet
509.963867188 350.859375 m 4
 515.935546875 347.868164062 519.916992188 346.373046875 521.409179688 343.880859375 c 4
 522.90234375 341.389648438 522.90234375 329.428710938 517.92578125 315.471679688 c 4
 512.94921875 301.517578125 489.091796875 288.78125 477.618164062 287.067382812 c 4
 467.329101562 285.528320312 454.310546875 284.885742188 440.005859375 289.43359375 c 4
 431.333007812 292.186523438 420.208984375 295.862304688 405.961914062 302.018554688 c 4
 346.055664062 327.89453125 306.93359375 388.236328125 303.948242188 392.223632812 c 4
 300.9609375 396.211914062 279.564453125 424.618164062 279.564453125 454.024414062 c 4
 279.564453125 483.427734375 294.991210938 497.881835938 300.463867188 503.86328125 c 4
 305.938476562 509.841796875 312.408203125 511.336914062 316.388671875 511.336914062 c 4
 320.369140625 511.336914062 324.35546875 511.30078125 327.833984375 511.127929688 c 4
 331.5 510.943359375 336.422851562 512.521484375 341.271484375 500.873046875 c 4
 346.24609375 488.91015625 358.190429688 459.502929688 359.681640625 456.512695312 c 4
 361.17578125 453.524414062 362.170898438 450.036132812 360.1796875 446.047851562 c 4
 358.190429688 442.063476562 357.1953125 439.569335938 354.208007812 436.08203125 c 4
 351.22265625 432.592773438 347.938476562 428.291992188 345.250976562 425.615234375 c 4
 342.260742188 422.63671875 339.149414062 419.404296875 342.6328125 413.422851562 c 4
 346.116210938 407.442382812 358.100585938 387.879882812 375.852539062 372.038085938 c 4
 398.663085938 351.68359375 417.905273438 345.375976562 423.875976562 342.385742188 c 4
 429.84765625 339.393554688 433.331054688 339.89453125 436.814453125 343.880859375 c 4
 440.297851562 347.868164062 451.7421875 361.326171875 455.723632812 367.305664062 c 4
 459.705078125 373.28515625 463.685546875 372.2890625 469.159179688 370.295898438 c 4
 474.6328125 368.299804688 503.993164062 353.848632812 509.963867188 350.859375 c 4
401.00390625 202.026367188 m 6
 510.491210938 202.026367188 599.602539062 291.174804688 599.647460938 400.75 c 4
 599.66796875 453.848632812 579.026367188 503.778320312 541.522460938 541.338867188 c 4
 504.015625 578.903320312 454.140625 599.599609375 401.083007812 599.619140625 c 4
 291.51171875 599.619140625 202.399414062 510.477539062 202.356445312 400.911132812 c 4
 202.33984375 363.361328125 212.842773438 326.79296875 232.7265625 295.154296875 c 6
 237.450195312 287.633789062 l 5
 217.3828125 214.302734375 l 5
 292.565429688 234.032226562 l 5
 299.819335938 229.724609375 l 6
 330.317382812 211.620117188 365.278320312 202.0390625 400.923828125 202.026367188 c 6
 401.00390625 202.026367188 l 6
570.065429688 569.881835938 m 4
 615.188476562 524.690429688 640.024414062 464.620117188 640 400.734375 c 4
 639.946289062 268.908203125 532.72265625 161.6484375 401.004882812 161.6484375 c 6
 400.90625 161.6484375 l 6
 360.907226562 161.66015625 321.603515625 171.701171875 286.6953125 190.748046875 c 5
 160 157.500976562 l 5
 193.90625 281.396484375 l 5
 172.991210938 317.65625 161.986328125 358.786132812 162.002929688 400.92578125 c 4
 162.055664062 532.75 269.26953125 640 401.001953125 640 c 4
 464.935546875 639.973632812 524.943359375 615.075195312 570.065429688 569.881835938 c 1028
EndSplineSet
Fore
SplineSet
519 346 m 4
 523 344 526 336 518 315 c 4
 512 299 485 286 469 286 c 4
 373 286 280 399 280 453 c 4
 280 479 289 492 298 501 c 4
 306 510 312 511 316 511 c 6
 328 511 l 6
 332 511 337 511 341 501 c 6
 360 457 l 6
 365 446 351 432 345 426 c 4
 342 423 339 419 343 413 c 4
 368 374 384 362 424 342 c 4
 430 339 434 341 437 344 c 6
 456 368 l 6
 461 374 465 372 469 370 c 6
 519 346 l 4
401 600 m 4
 291 600 202 510 202 401 c 4
 202 333 237 288 237 288 c 5
 217 214 l 5
 293 234 l 5
 293 234 335 202 401 202 c 4
 511 202 600 291 600 401 c 4
 600 512 511 600 401 600 c 4
401 640 m 4
 534 640 640 532 640 401 c 4
 640 269 532 162 401 162 c 4
 334 162 287 191 287 191 c 5
 160 158 l 5
 194 282 l 5
 194 282 162 331 162 401 c 4
 162 532 270 640 401 640 c 4
EndSplineSet
Layer: 2
SplineSet
202 401 m 4
 202 511 292 600 402 600 c 4
 511 600 600 511 600 401 c 4
 600 291 511 202 401 202 c 4
 291 202 202 291 202 401 c 4
162 401 m 0
 162 532.550420168 269.899159664 640 402 640 c 0
 533 640 640 532.550420168 640 401 c 0
 640 269.449579832 532.550420168 162 401 162 c 0
 269.449579832 162 162 269.449579832 162 401 c 0
EndSplineSet
EndChar
StartChar: spotify
Encoding: 72 72 25
Width: 800
VWidth: 0
VStem: 140 520<257 543>
LayerCount: 4
Back
SplineSet
400 660 m 4
 544.299804688 660 660 543 660 400 c 4
 660 257 543 140 400 140 c 4
 257 140 140 257 140 400 c 4
 140 543 257 660 400 660 c 4
519.599609375 284.299804688 m 4
 523.5 292.099609375 522.200195312 302.5 513.099609375 306.400390625 c 4
 445.5 348 359.700195312 357.099609375 260.900390625 335 c 4
 253.099609375 332.400390625 246.599609375 324.599609375 249.200195312 315.5 c 4
 251.799804688 307.700195312 259.599609375 301.200195312 268.700195312 303.799804688 c 4
 359.700195312 324.599609375 436.400390625 316.799804688 497.5 279.099609375 c 4
 505.299804688 273.900390625 514.400390625 276.5 519.599609375 284.299804688 c 4
550.799804688 355.799804688 m 4
 557.299804688 364.900390625 553.400390625 377.900390625 545.599609375 381.799804688 c 4
 465 431.200195312 348 445.5 253.099609375 416.900390625 c 4
 242.700195312 414.299804688 237.5 402.599609375 240.099609375 392.200195312 c 4
 242.700195312 381.799804688 254.400390625 376.599609375 264.799804688 379.200195312 c 4
 346.700195312 405.200195312 453.299804688 392.200195312 523.5 349.299804688 c 4
 532.599609375 342.799804688 544.299804688 346.700195312 550.799804688 355.799804688 c 4
553.400390625 428.599609375 m 4
 565.099609375 422.099609375 580.700195312 426 587.200195312 435.099609375 c 4
 593.700195312 446.799804688 589.799804688 462.400390625 578.099609375 468.900390625 c 4
 481.900390625 526.099609375 329.799804688 531.299804688 237.5 504 c 4
 225.799804688 500.099609375 218 487.099609375 221.900390625 474.099609375 c 4
 225.799804688 462.400390625 238.799804688 454.599609375 251.799804688 458.5 c 4
 331.099609375 483.200195312 470.200195312 478 553.400390625 428.599609375 c 4
EndSplineSet
Fore
SplineSet
400 660 m 4
 544 660 660 543 660 400 c 4
 660 257 543 140 400 140 c 4
 257 140 140 257 140 400 c 4
 140 543 257 660 400 660 c 4
513 306 m 4
 445 349 360 357 261 335 c 4
 241 331 245 298 270 304 c 4
 361 324 436 316 498 279 c 4
 516 268 532 294 513 306 c 4
545 382 m 4
 464 432 348 446 253 417 c 4
 230 410 237 371 268 380 c 4
 350 404 452 393 524 349 c 4
 545 336 567 368 545 382 c 4
552 430 m 4
 586 411 604 453 578 469 c 4
 482 526 324 532 238 504 c 4
 208 494 221 449 253 459 c 4
 328 482 468 478 552 430 c 4
EndSplineSet
Layer: 2
Layer: 3
EndChar
StartChar: AppStore
Encoding: 73 73 26
Width: 2700
VWidth: 0
Flags: W
HStem: 166 33<1163.91 1233.4 1384.91 1454.15 1603.54 1707.8 1858.36 1899 2329.77 2428.52> 186 343<412.866 520.183> 326 40<2204.72 2252> 330 32<1163.84 1233.83 1384.84 1454.57> 337 29<2329.66 2391.34> 405 35<1648.72 1744.7> 530 17<894 940.028 1703.53 1739.05 2176.96 2195.37 2366.4 2417.15> 573 15<1592.11 1624> 610 16<1307.35 1338.9 1578.35 1622.64 1704.78 1739.44 2001.35 2032.9 2253.51 2284.9 2364.64 2401.1> 646 17<894.174 942.332>
VStem: 959 22<563.084 632.228> 1006 21<549.543 606.187> 1076 22<550.324 606.859> 1110 43<208.062 246 281 321.184> 1119 21<607 626> 1282 21<589 607.425> 1331 43<208.062 246 281 321.184> 1343 21<588 608> 1453 21<549.543 606.187> 1523 22<550.324 606.859> 1569 21<545.413 574.426> 1600 43<339.843 398.228> 1625 20<547.512 564 592 611.149> 1718 43<209.91 274.053> 1744 21<531 546 549.476 571 587 608.057> 1813 42<202.85 237> 1853 21<549.543 606.187> 1923 22<550.324 606.859> 1926 43<211.533 318.134> 1976 21<589 607.425> 2037 21<588 608> 2070 44<212.927 317.385> 2151 43<276 316.359 531.951 548> 2155 21<547.657 564> 2228 21<589 607.425> 2273 41<214.127 256 286 324.175> 2289 21<588 608> 2340 20<552.534 573>
LayerCount: 4
Back
SplineSet
602.559570312 404.3203125 m 4
 601.98046875 468.780273438 655.33984375 500.139648438 657.780273438 501.599609375 c 5
 627.559570312 545.66015625 580.719726562 551.6796875 564.259765625 552.16015625 c 4
 524.919921875 556.299804688 486.759765625 528.620117188 466.719726562 528.620117188 c 4
 446.280273438 528.620117188 415.419921875 551.759765625 382.16015625 551.080078125 c 4
 339.360351562 550.419921875 299.3203125 525.639648438 277.360351562 487.16015625 c 4
 232.040039062 408.700195312 265.83984375 293.400390625 309.259765625 229.98046875 c 4
 330.98046875 198.919921875 356.360351562 164.240234375 389.580078125 165.459960938 c 4
 422.080078125 166.799804688 434.219726562 186.1796875 473.440429688 186.1796875 c 4
 512.299804688 186.1796875 523.700195312 165.459960938 557.580078125 166.240234375 c 4
 592.459960938 166.799804688 614.419921875 197.440429688 635.379882812 228.780273438 c 4
 660.48046875 264.379882812 670.559570312 299.440429688 670.959960938 301.240234375 c 4
 670.139648438 301.51953125 603.219726562 327.059570312 602.559570312 404.3203125 c 4
538.559570312 593.879882812 m 4
 556.040039062 615.740234375 568 645.48046875 564.6796875 675.66015625 c 4
 539.379882812 674.540039062 507.740234375 658.16015625 489.51953125 636.780273438 c 4
 473.400390625 617.940429688 459 587.059570312 462.719726562 558.01953125 c 4
 491.139648438 555.900390625 520.3203125 572.360351562 538.559570312 593.879882812 c 4
1072.90039062 169.919921875 m 5
 986.799804688 436.080078125 l 5
 933.879882812 436.080078125 l 5
 848.200195312 169.919921875 l 5
 892.419921875 169.919921875 l 5
 916.120117188 248.099609375 l 5
 1002.59960938 248.099609375 l 5
 1027.48046875 169.919921875 l 5
 1072.90039062 169.919921875 l 5
995.099609375 280.900390625 m 5
 923.639648438 280.900390625 l 5
 945.740234375 350.400390625 l 6
 951.540039062 372.5 955.759765625 389.219726562 958.379882812 400.540039062 c 6
 959.1796875 400.540039062 l 6
 965.759765625 374.219726562 970.219726562 357.5 972.599609375 350.400390625 c 6
 995.099609375 280.900390625 l 5
1293.24023438 268.240234375 m 4
 1293.24023438 297.459960938 1285.6796875 321.01953125 1270.51953125 338.940429688 c 4
 1255.40039062 356.83984375 1236.5 365.780273438 1213.86035156 365.780273438 c 4
 1184.90039062 365.780273438 1163.3203125 354.33984375 1149.09960938 331.419921875 c 6
 1148.29980469 331.419921875 l 5
 1145.91992188 361.83984375 l 5
 1108.41992188 361.83984375 l 6
 1109.45996094 340.240234375 1110 319.1796875 1110 298.66015625 c 6
 1110 91.7197265625 l 5
 1152.63964844 91.7197265625 l 5
 1152.63964844 192.8203125 l 5
 1153.44042969 192.8203125 l 6
 1164.5 174.66015625 1182.66015625 165.580078125 1207.94042969 165.580078125 c 4
 1231.36035156 165.580078125 1250.98046875 174 1266.78027344 190.860351562 c 4
 1284.41992188 209.799804688 1293.24023438 235.599609375 1293.24023438 268.240234375 c 4
1249.79980469 266.6796875 m 4
 1249.79980469 246.400390625 1245.3203125 230.080078125 1236.36035156 217.700195312 c 4
 1227.41992188 205.33984375 1214.91992188 199.139648438 1198.86035156 199.139648438 c 4
 1185.1796875 199.139648438 1174.05957031 203.940429688 1165.5 213.559570312 c 4
 1156.94042969 223.1796875 1152.66015625 234.959960938 1152.66015625 248.919921875 c 6
 1152.66015625 280.919921875 l 6
 1152.66015625 284.3203125 1153.3203125 288.639648438 1154.63964844 293.919921875 c 4
 1157.25976562 305.240234375 1162.86035156 314.379882812 1171.41992188 321.379882812 c 4
 1179.95996094 328.3203125 1189.51953125 331.83984375 1200.04003906 331.83984375 c 4
 1215.55957031 331.83984375 1227.94042969 325.51953125 1237.16015625 312.879882812 c 4
 1245.59960938 300.759765625 1249.79980469 285.360351562 1249.79980469 266.6796875 c 4
1513.98046875 268.240234375 m 4
 1513.98046875 297.459960938 1506.40039062 321.01953125 1491.29980469 338.940429688 c 4
 1476.13964844 356.83984375 1457.24023438 365.780273438 1434.62011719 365.780273438 c 4
 1405.63964844 365.780273438 1384.05957031 354.33984375 1369.86035156 331.419921875 c 6
 1369.05957031 331.419921875 l 5
 1366.6796875 361.83984375 l 5
 1329.1796875 361.83984375 l 6
 1330.21972656 340.240234375 1330.75976562 319.1796875 1330.75976562 298.66015625 c 6
 1330.75976562 91.7197265625 l 5
 1373.40039062 91.7197265625 l 5
 1373.40039062 192.8203125 l 5
 1374.20019531 192.8203125 l 6
 1385.24023438 174.66015625 1403.40039062 165.580078125 1428.6796875 165.580078125 c 4
 1452.09960938 165.580078125 1471.71972656 174 1487.5 190.860351562 c 4
 1505.16015625 209.799804688 1513.98046875 235.599609375 1513.98046875 268.240234375 c 4
1470.54003906 266.6796875 m 4
 1470.54003906 246.400390625 1466.05957031 230.080078125 1457.09960938 217.700195312 c 4
 1448.16015625 205.33984375 1435.66015625 199.139648438 1419.59960938 199.139648438 c 4
 1405.87988281 199.139648438 1394.75976562 203.959960938 1386.20019531 213.559570312 c 4
 1377.6796875 223.1796875 1373.40039062 234.959960938 1373.40039062 248.919921875 c 6
 1373.40039062 280.919921875 l 6
 1373.40039062 284.3203125 1374.08007812 288.639648438 1375.37988281 293.919921875 c 4
 1378 305.240234375 1383.58007812 314.379882812 1392.13964844 321.379882812 c 4
 1400.70019531 328.3203125 1410.24023438 331.83984375 1420.78027344 331.83984375 c 4
 1436.3203125 331.83984375 1448.66015625 325.51953125 1457.87988281 312.879882812 c 4
 1466.3203125 300.759765625 1470.54003906 285.360351562 1470.54003906 266.6796875 c 4
1760.78027344 244.559570312 m 4
 1760.78027344 262.959960938 1755.40039062 278.379882812 1744.62011719 290.700195312 c 4
 1733.79980469 303.059570312 1716.98046875 313.83984375 1694.08007812 323.059570312 c 4
 1675.36035156 330.440429688 1662.45996094 337.280273438 1655.36035156 343.599609375 c 4
 1647.20019531 350.440429688 1643.13964844 359.139648438 1643.13964844 369.66015625 c 4
 1643.13964844 379.16015625 1646.70019531 387.1796875 1653.79980469 393.759765625 c 4
 1662.20019531 401.120117188 1673.91992188 404.8203125 1688.91992188 404.8203125 c 4
 1707.90039062 404.8203125 1724.86035156 400.740234375 1739.86035156 392.580078125 c 6
 1750.51953125 427.33984375 l 6
 1734.45996094 435.759765625 1714.33984375 439.98046875 1690.12011719 439.98046875 c 4
 1662.95996094 439.98046875 1641.24023438 433 1624.95996094 419.01953125 c 4
 1608.62011719 405.059570312 1600.45996094 387.120117188 1600.45996094 365.240234375 c 4
 1600.45996094 331.759765625 1623.74023438 306.299804688 1670.33984375 288.919921875 c 4
 1687.45996094 282.580078125 1699.71972656 275.719726562 1707.05957031 268.33984375 c 4
 1714.44042969 260.959960938 1718.12011719 251.860351562 1718.12011719 241.059570312 c 4
 1718.12011719 228.940429688 1713.66015625 219.219726562 1704.71972656 211.98046875 c 4
 1695.74023438 204.740234375 1683.24023438 201.099609375 1667.1796875 201.099609375 c 4
 1644.79980469 201.099609375 1624.25976562 206.780273438 1605.54003906 218.099609375 c 6
 1595.66015625 182.559570312 l 6
 1613.04003906 171.5 1636 165.98046875 1664.63964844 165.98046875 c 4
 1695.66015625 165.98046875 1719.79980469 173.740234375 1737.13964844 189.280273438 c 4
 1752.91992188 203.5 1760.78027344 221.919921875 1760.78027344 244.559570312 c 4
1901.75976562 329.83984375 m 5
 1901.75976562 361.879882812 l 5
 1854.75976562 361.879882812 l 5
 1854.75976562 409.66015625 l 5
 1812.87988281 397.01953125 l 5
 1812.87988281 361.879882812 l 5
 1784.87988281 361.879882812 l 5
 1784.87988281 329.879882812 l 5
 1812.87988281 329.879882812 l 5
 1812.87988281 233.139648438 l 6
 1812.87988281 208.919921875 1817.63964844 191.6796875 1827.09960938 181.400390625 c 4
 1836.59960938 171.139648438 1849.75976562 166 1866.59960938 166 c 4
 1880.29980469 166 1891.36035156 167.580078125 1899.75976562 170.719726562 c 6
 1898.58007812 203.099609375 l 6
 1893.58007812 201.780273438 1887.25976562 201.120117188 1879.63964844 201.120117188 c 4
 1863.04003906 201.120117188 1854.75976562 212.959960938 1854.75976562 236.66015625 c 6
 1854.75976562 329.83984375 l 5
 1901.75976562 329.83984375 l 5
2113.8203125 267.459960938 m 4
 2113.8203125 296.16015625 2105.66015625 319.580078125 2089.29980469 337.719726562 c 4
 2072.20019531 356.419921875 2049.54003906 365.759765625 2021.37988281 365.759765625 c 4
 1992.16015625 365.759765625 1968.91992188 356.280273438 1951.70019531 337.3203125 c 4
 1934.44042969 318.379882812 1925.83984375 294.01953125 1925.83984375 264.280273438 c 4
 1925.83984375 235.860351562 1934.20019531 212.280273438 1950.91992188 193.599609375 c 4
 1967.63964844 174.919921875 1990.05957031 165.580078125 2018.21972656 165.580078125 c 4
 2047.44042969 165.580078125 2070.87988281 175.299804688 2088.54003906 194.799804688 c 4
 2105.37988281 213.740234375 2113.8203125 237.959960938 2113.8203125 267.459960938 c 4
2069.58007812 266.080078125 m 4
 2069.58007812 248.400390625 2065.62011719 233.059570312 2057.75976562 220.16015625 c 4
 2048.54003906 204.599609375 2035.75976562 196.799804688 2019.48046875 196.799804688 c 4
 2002.86035156 196.799804688 1989.98046875 204.440429688 1980.75976562 219.759765625 c 4
 1973.09960938 232.400390625 1969.3203125 247.580078125 1969.3203125 265.280273438 c 4
 1969.3203125 283.51953125 1973.09960938 298.940429688 1980.75976562 311.620117188 c 4
 1989.70019531 326.919921875 2002.71972656 334.580078125 2019.86035156 334.580078125 c 4
 2036.41992188 334.580078125 2049.20019531 326.940429688 2058.13964844 311.620117188 c 4
 2065.79980469 298.959960938 2069.58007812 283.780273438 2069.58007812 266.080078125 c 4
2252.41992188 324.33984375 m 6
 2252.41992188 365 l 6
 2249.25976562 365.5 2245.70019531 365.780273438 2241.75976562 365.780273438 c 4
 2230.70019531 365.780273438 2220.44042969 362.360351562 2210.94042969 355.5 c 4
 2201.21972656 347.879882812 2194.12011719 337.719726562 2189.62011719 325.099609375 c 6
 2188.44042969 325.099609375 l 5
 2186.87988281 361.8203125 l 5
 2149.74023438 361.8203125 l 6
 2150.79980469 343.66015625 2151.33984375 323.51953125 2151.33984375 301.400390625 c 6
 2150.94042969 169.919921875 l 5
 2193.55957031 169.919921875 l 5
 2193.55957031 270.620117188 l 6
 2193.55957031 285.879882812 2197.12011719 298.51953125 2204.21972656 308.51953125 c 4
 2212.37988281 319.860351562 2223.98046875 325.51953125 2238.98046875 325.51953125 c 4
 2243.70019531 325.51953125 2248.20019531 325.120117188 2252.41992188 324.33984375 c 6
2443.12011719 274.959960938 m 4
 2443.12011719 298.900390625 2437.45996094 319.059570312 2426.20019531 335.360351562 c 4
 2411.98046875 355.879882812 2391.04003906 366.139648438 2363.37988281 366.139648438 c 4
 2335.21972656 366.139648438 2312.83984375 355.879882812 2296.28027344 335.360351562 c 4
 2280.45996094 316.139648438 2272.55957031 292.040039062 2272.55957031 263.099609375 c 4
 2272.55957031 233.620117188 2281.05957031 210.120117188 2298.01953125 192.620117188 c 4
 2315.01953125 175.120117188 2338.37988281 166.360351562 2368.13964844 166.360351562 c 4
 2392.87988281 166.360351562 2414.3203125 170.299804688 2432.48046875 178.219726562 c 6
 2425.79980469 207.8203125 l 6
 2410.25976562 201.759765625 2392.98046875 198.740234375 2374.04003906 198.740234375 c 4
 2356.91992188 198.740234375 2342.98046875 203.219726562 2332.20019531 212.16015625 c 4
 2320.3203125 222.16015625 2314.13964844 236.66015625 2313.63964844 255.620117188 c 6
 2441.55957031 255.620117188 l 6
 2442.62011719 260.879882812 2443.12011719 267.3203125 2443.12011719 274.959960938 c 4
2402.45996094 286.01953125 m 4
 2402.45996094 286.040039062 l 5
 2313.63964844 286.040039062 l 6
 2314.94042969 298.919921875 2319.16015625 309.98046875 2326.25976562 319.200195312 c 4
 2334.91992188 330.799804688 2346.25976562 336.580078125 2360.20019531 336.580078125 c 4
 2375.45996094 336.580078125 2386.79980469 330.66015625 2394.1796875 318.799804688 c 4
 2399.95996094 309.580078125 2402.74023438 298.66015625 2402.45996094 286.01953125 c 4
981 599.8203125 m 4
 981 620.780273438 974.459960938 636.879882812 961.419921875 648.139648438 c 4
 949.780273438 658.099609375 932.51953125 663.080078125 909.620117188 663.080078125 c 4
 896.66015625 663.080078125 884.66015625 662.16015625 873.51953125 660.360351562 c 6
 873.51953125 531.740234375 l 6
 882.059570312 530.700195312 892.259765625 530.1796875 904.1796875 530.1796875 c 4
 928.219726562 530.1796875 946.780273438 535.6796875 959.83984375 546.66015625 c 4
 973.940429688 558.559570312 981 576.280273438 981 599.8203125 c 4
958.900390625 599.240234375 m 4
 958.900390625 582.16015625 954.5 569.16015625 945.780273438 560.240234375 c 4
 937.059570312 551.3203125 924.6796875 546.860351562 908.639648438 546.860351562 c 4
 901.780273438 546.860351562 897.059570312 547.040039062 894.48046875 547.440429688 c 6
 894.48046875 645.219726562 l 6
 899.139648438 646.139648438 904.759765625 646.580078125 911.360351562 646.580078125 c 4
 926.900390625 646.580078125 938.700195312 642.5 946.780273438 634.360351562 c 4
 954.860351562 626.200195312 958.900390625 614.5 958.900390625 599.240234375 c 4
1098.1796875 579.259765625 m 4
 1098.1796875 593.33984375 1094.16015625 604.860351562 1086.16015625 613.780273438 c 4
 1077.74023438 622.959960938 1066.62011719 627.540039062 1052.78027344 627.540039062 c 4
 1038.41992188 627.540039062 1027.01953125 622.879882812 1018.54003906 613.580078125 c 4
 1010.05957031 604.280273438 1005.83984375 592.299804688 1005.83984375 577.700195312 c 4
 1005.83984375 563.740234375 1009.94042969 552.16015625 1018.13964844 542.98046875 c 4
 1026.36035156 533.780273438 1037.37988281 529.200195312 1051.21972656 529.200195312 c 4
 1065.58007812 529.200195312 1077.08007812 533.98046875 1085.75976562 543.559570312 c 4
 1094.04003906 552.879882812 1098.1796875 564.759765625 1098.1796875 579.259765625 c 4
1076.44042969 578.580078125 m 4
 1076.44042969 569.879882812 1074.5 562.360351562 1070.62011719 556.01953125 c 4
 1066.09960938 548.360351562 1059.8203125 544.540039062 1051.8203125 544.540039062 c 4
 1043.66015625 544.540039062 1037.33984375 548.299804688 1032.79980469 555.8203125 c 4
 1029.05957031 562.040039062 1027.1796875 569.5 1027.1796875 578.200195312 c 4
 1027.1796875 587.16015625 1029.04003906 594.740234375 1032.79980469 600.959960938 c 4
 1037.20019531 608.48046875 1043.59960938 612.240234375 1052.01953125 612.240234375 c 4
 1060.16015625 612.240234375 1066.41992188 608.48046875 1070.8203125 600.959960938 c 4
 1074.55957031 594.740234375 1076.44042969 587.280273438 1076.44042969 578.580078125 c 4
1255.29980469 625.620117188 m 5
 1255.29980469 625.599609375 l 5
 1234.71972656 625.599609375 l 5
 1223.28027344 581.559570312 l 6
 1220.44042969 570.559570312 1218.29980469 560.219726562 1216.87988281 550.51953125 c 6
 1216.29980469 550.51953125 l 6
 1214.36035156 560.48046875 1211.83984375 570.8203125 1208.74023438 581.559570312 c 6
 1195.91992188 625.599609375 l 5
 1178.83984375 625.599609375 l 5
 1165.45996094 580.599609375 l 6
 1161.8203125 568.459960938 1159.24023438 558.419921875 1157.6796875 550.540039062 c 6
 1157.29980469 550.540039062 l 6
 1155.59960938 560.099609375 1153.48046875 570.200195312 1150.90039062 580.799804688 c 6
 1140.24023438 625.620117188 l 5
 1118.70019531 625.620117188 l 5
 1146.44042969 531.33984375 l 5
 1165.86035156 531.33984375 l 5
 1178.83984375 572.280273438 l 6
 1182.08007812 582.240234375 1184.59960938 592.379882812 1186.41992188 602.740234375 c 6
 1186.79980469 602.740234375 l 6
 1188.75976562 592.66015625 1191.28027344 582.5 1194.37988281 572.280273438 c 6
 1206.59960938 531.33984375 l 5
 1225.79980469 531.33984375 l 5
 1255.29980469 625.620117188 l 5
1363.95996094 531.33984375 m 5
 1363.95996094 587.8203125 l 6
 1363.95996094 601.66015625 1360.33984375 612.080078125 1353.09960938 619.059570312 c 4
 1347.28027344 624.759765625 1339.95996094 627.599609375 1331.16015625 627.599609375 c 4
 1324.20019531 627.599609375 1317.83984375 625.8203125 1312.16015625 622.299804688 c 4
 1307.37988281 619.280273438 1303.74023438 615.5 1301.29980469 610.919921875 c 6
 1300.71972656 610.919921875 l 5
 1299.74023438 625.66015625 l 5
 1281.3203125 625.66015625 l 6
 1281.8203125 615.940429688 1282.08007812 606.959960938 1282.08007812 598.6796875 c 6
 1282.08007812 531.360351562 l 5
 1303.04003906 531.360351562 l 5
 1303.04003906 587.280273438 l 6
 1303.04003906 593.459960938 1305 598.860351562 1308.86035156 603.440429688 c 4
 1312.75976562 608.01953125 1317.78027344 610.299804688 1324 610.299804688 c 4
 1336.6796875 610.299804688 1343 601.98046875 1343 585.33984375 c 6
 1343 531.33984375 l 5
 1363.95996094 531.33984375 l 5
1400.8203125 531.33984375 m 5
 1421.75976562 531.33984375 l 5
 1421.75976562 668.879882812 l 5
 1400.8203125 668.879882812 l 5
 1400.8203125 531.33984375 l 5
1545.16015625 579.259765625 m 4
 1545.16015625 593.33984375 1541.13964844 604.860351562 1533.13964844 613.780273438 c 4
 1524.70019531 622.959960938 1513.59960938 627.540039062 1499.74023438 627.540039062 c 4
 1485.40039062 627.540039062 1474 622.879882812 1465.51953125 613.580078125 c 4
 1457.04003906 604.280273438 1452.8203125 592.299804688 1452.8203125 577.700195312 c 4
 1452.8203125 563.740234375 1456.91992188 552.16015625 1465.12011719 542.98046875 c 4
 1473.3203125 533.780273438 1484.33984375 529.200195312 1498.20019531 529.200195312 c 4
 1512.54003906 529.200195312 1524.05957031 533.98046875 1532.74023438 543.559570312 c 4
 1541.01953125 552.879882812 1545.16015625 564.759765625 1545.16015625 579.259765625 c 4
1523.40039062 578.580078125 m 4
 1523.40039062 569.879882812 1521.48046875 562.360351562 1517.58007812 556.01953125 c 4
 1513.05957031 548.360351562 1506.79980469 544.540039062 1498.79980469 544.540039062 c 4
 1490.63964844 544.540039062 1484.3203125 548.299804688 1479.78027344 555.8203125 c 4
 1476.04003906 562.040039062 1474.16015625 569.5 1474.16015625 578.200195312 c 4
 1474.16015625 587.16015625 1476.01953125 594.740234375 1479.78027344 600.959960938 c 4
 1484.16015625 608.48046875 1490.55957031 612.240234375 1499 612.240234375 c 4
 1507.12011719 612.240234375 1513.40039062 608.48046875 1517.78027344 600.959960938 c 4
 1521.51953125 594.740234375 1523.40039062 587.280273438 1523.40039062 578.580078125 c 4
1646.59960938 531.33984375 m 6
 1645.70019531 536.900390625 1645.24023438 544.400390625 1645.24023438 553.8203125 c 6
 1645.24023438 588.540039062 l 6
 1645.24023438 614.540039062 1632.87988281 627.540039062 1608.24023438 627.540039062 c 4
 1595.48046875 627.540039062 1584.66015625 624.8203125 1575.90039062 619.400390625 c 6
 1580.16015625 605.639648438 l 6
 1587.24023438 610.280273438 1595.44042969 612.620117188 1604.74023438 612.620117188 c 4
 1617.79980469 612.620117188 1624.3203125 606.419921875 1624.3203125 594 c 6
 1624.3203125 592.240234375 l 6
 1606.86035156 592.379882812 1593.29980469 589.400390625 1583.66015625 583.3203125 c 4
 1574 577.240234375 1569.20019531 568.459960938 1569.20019531 556.940429688 c 4
 1569.20019531 549.3203125 1571.66015625 542.900390625 1576.58007812 537.740234375 c 4
 1582 532.059570312 1589.20019531 529.200195312 1598.09960938 529.200195312 c 4
 1610.01953125 529.200195312 1619.20019531 533.540039062 1625.63964844 542.200195312 c 6
 1626.21972656 542.200195312 l 5
 1627.78027344 531.33984375 l 5
 1646.59960938 531.33984375 l 6
1624.83984375 563.740234375 m 6
 1624.83984375 562.3203125 1624.71972656 561.080078125 1624.5 560.059570312 c 4
 1623.59960938 555.51953125 1621.1796875 551.8203125 1617.24023438 548.900390625 c 4
 1613.3203125 546 1609.01953125 544.540039062 1604.41992188 544.540039062 c 4
 1600.3203125 544.540039062 1596.87988281 545.759765625 1594.1796875 548.219726562 c 4
 1591.48046875 550.6796875 1590.16015625 554.360351562 1590.16015625 559.280273438 c 4
 1590.16015625 572.33984375 1601.71972656 578.6796875 1624.83984375 578.280273438 c 6
 1624.83984375 563.740234375 l 6
1765.70019531 531.33984375 m 6
 1765.20019531 539.099609375 1764.95996094 547.559570312 1764.95996094 556.740234375 c 6
 1764.95996094 668.879882812 l 5
 1743.98046875 668.879882812 l 5
 1743.98046875 614.759765625 l 5
 1743.58007812 614.759765625 l 6
 1738.54003906 623.299804688 1729.6796875 627.559570312 1717.01953125 627.559570312 c 4
 1705.5 627.559570312 1695.8203125 623.16015625 1687.91992188 614.360351562 c 4
 1679.75976562 604.919921875 1675.70019531 592.559570312 1675.70019531 577.299804688 c 4
 1675.70019531 563.080078125 1679.44042969 551.5 1686.94042969 542.580078125 c 4
 1694.44042969 533.66015625 1703.90039062 529.200195312 1715.25976562 529.200195312 c 4
 1729.48046875 529.200195312 1739.59960938 534.959960938 1745.54003906 546.48046875 c 6
 1746.12011719 546.48046875 l 5
 1747.09960938 531.33984375 l 5
 1765.70019531 531.33984375 l 6
1743.98046875 571.099609375 m 6
 1743.98046875 564.379882812 1742 558.620117188 1737.95996094 553.83984375 c 4
 1733.78027344 548.66015625 1728.28027344 546.080078125 1721.40039062 546.080078125 c 4
 1713.74023438 546.080078125 1707.62011719 549.1796875 1703.08007812 555.379882812 c 4
 1698.78027344 561.200195312 1696.63964844 568.759765625 1696.63964844 578.080078125 c 4
 1696.63964844 587.780273438 1698.90039062 595.719726562 1703.36035156 601.940429688 c 4
 1707.86035156 608.16015625 1713.98046875 611.259765625 1721.79980469 611.259765625 c 4
 1727.21972656 611.259765625 1731.91992188 609.540039062 1735.8203125 606.120117188 c 4
 1739.6796875 602.700195312 1742.21972656 598.459960938 1743.40039062 593.419921875 c 4
 1743.78027344 591.740234375 1743.98046875 589.540039062 1743.98046875 586.8203125 c 6
 1743.98046875 571.099609375 l 6
1944.95996094 579.259765625 m 4
 1944.95996094 593.33984375 1940.94042969 604.860351562 1932.94042969 613.780273438 c 4
 1924.54003906 622.959960938 1913.40039062 627.540039062 1899.58007812 627.540039062 c 4
 1885.20019531 627.540039062 1873.79980469 622.879882812 1865.3203125 613.580078125 c 4
 1856.83984375 604.280273438 1852.62011719 592.299804688 1852.62011719 577.700195312 c 4
 1852.62011719 563.740234375 1856.71972656 552.16015625 1864.91992188 542.98046875 c 4
 1873.16015625 533.780273438 1884.1796875 529.200195312 1898 529.200195312 c 4
 1912.37988281 529.200195312 1923.86035156 533.98046875 1932.54003906 543.559570312 c 4
 1940.8203125 552.879882812 1944.95996094 564.759765625 1944.95996094 579.259765625 c 4
1923.24023438 578.580078125 m 4
 1923.24023438 569.879882812 1921.28027344 562.360351562 1917.41992188 556.01953125 c 4
 1912.90039062 548.360351562 1906.59960938 544.540039062 1898.59960938 544.540039062 c 4
 1890.44042969 544.540039062 1884.12011719 548.299804688 1879.58007812 555.8203125 c 4
 1875.83984375 562.040039062 1873.95996094 569.5 1873.95996094 578.200195312 c 4
 1873.95996094 587.16015625 1875.8203125 594.740234375 1879.58007812 600.959960938 c 4
 1884 608.48046875 1890.40039062 612.240234375 1898.79980469 612.240234375 c 4
 1906.95996094 612.240234375 1913.20019531 608.48046875 1917.62011719 600.959960938 c 4
 1921.36035156 594.740234375 1923.24023438 587.280273438 1923.24023438 578.580078125 c 4
2057.66015625 531.33984375 m 5
 2057.66015625 587.8203125 l 6
 2057.66015625 601.66015625 2054.05957031 612.080078125 2046.79980469 619.059570312 c 4
 2040.98046875 624.759765625 2033.66015625 627.599609375 2024.87988281 627.599609375 c 4
 2017.90039062 627.599609375 2011.55957031 625.8203125 2005.86035156 622.299804688 c 4
 2001.09960938 619.280273438 1997.45996094 615.5 1995 610.919921875 c 6
 1994.41992188 610.919921875 l 5
 1993.44042969 625.66015625 l 5
 1975.04003906 625.66015625 l 6
 1975.54003906 615.940429688 1975.78027344 606.959960938 1975.78027344 598.6796875 c 6
 1975.78027344 531.360351562 l 5
 1996.75976562 531.360351562 l 5
 1996.75976562 587.280273438 l 6
 1996.75976562 593.459960938 1998.70019531 598.860351562 2002.58007812 603.440429688 c 4
 2006.45996094 608.01953125 2011.48046875 610.299804688 2017.70019531 610.299804688 c 4
 2030.40039062 610.299804688 2036.71972656 601.98046875 2036.71972656 585.33984375 c 6
 2036.71972656 531.33984375 l 5
 2057.66015625 531.33984375 l 5
2198.71972656 609.919921875 m 5
 2198.70019531 609.919921875 l 5
 2198.70019531 625.639648438 l 5
 2175.62011719 625.639648438 l 5
 2175.62011719 649.099609375 l 5
 2155.08007812 642.900390625 l 5
 2155.08007812 625.620117188 l 5
 2141.29980469 625.620117188 l 5
 2141.29980469 609.919921875 l 5
 2155.08007812 609.919921875 l 5
 2155.08007812 562.379882812 l 6
 2155.08007812 550.48046875 2157.40039062 542 2162.08007812 536.959960938 c 4
 2166.74023438 531.919921875 2173.1796875 529.400390625 2181.45996094 529.400390625 c 4
 2188.16015625 529.400390625 2193.59960938 530.1796875 2197.74023438 531.740234375 c 6
 2197.20019531 547.639648438 l 6
 2194.74023438 546.98046875 2191.62011719 546.66015625 2187.86035156 546.66015625 c 4
 2179.74023438 546.66015625 2175.63964844 552.48046875 2175.63964844 564.120117188 c 6
 2175.63964844 609.919921875 l 5
 2198.71972656 609.919921875 l 5
2309.6796875 531.33984375 m 5
 2309.6796875 587.400390625 l 6
 2309.6796875 601.360351562 2306.12011719 611.919921875 2299.01953125 619.01953125 c 4
 2293.3203125 624.719726562 2286.13964844 627.559570312 2277.45996094 627.559570312 c 4
 2265.20019531 627.559570312 2255.74023438 622.400390625 2249.13964844 612.059570312 c 6
 2248.74023438 612.059570312 l 5
 2248.74023438 668.879882812 l 5
 2227.79980469 668.879882812 l 5
 2227.79980469 531.360351562 l 5
 2248.74023438 531.360351562 l 5
 2248.74023438 588.059570312 l 6
 2248.74023438 591.01953125 2249.09960938 593.540039062 2249.71972656 595.599609375 c 4
 2253.36035156 605.400390625 2260 610.299804688 2269.71972656 610.299804688 c 4
 2282.37988281 610.299804688 2288.70019531 601.83984375 2288.70019531 584.940429688 c 6
 2288.70019531 531.33984375 l 5
 2309.6796875 531.33984375 l 5
2424.13964844 582.940429688 m 4
 2424.13964844 594.700195312 2421.36035156 604.599609375 2415.74023438 612.599609375 c 4
 2408.78027344 622.6796875 2398.48046875 627.719726562 2384.91992188 627.719726562 c 4
 2371.05957031 627.719726562 2360.08007812 622.6796875 2351.95996094 612.599609375 c 4
 2344.1796875 603.16015625 2340.3203125 591.3203125 2340.3203125 577.099609375 c 4
 2340.3203125 562.620117188 2344.45996094 551.080078125 2352.8203125 542.48046875 c 4
 2361.13964844 533.879882812 2372.63964844 529.580078125 2387.24023438 529.580078125 c 4
 2399.41992188 529.580078125 2409.94042969 531.51953125 2418.87988281 535.400390625 c 6
 2415.59960938 549.959960938 l 6
 2407.95996094 546.98046875 2399.48046875 545.5 2390.1796875 545.5 c 4
 2381.78027344 545.5 2374.91992188 547.700195312 2369.59960938 552.099609375 c 4
 2363.78027344 557.01953125 2360.78027344 564.120117188 2360.5 573.440429688 c 6
 2423.36035156 573.440429688 l 6
 2423.86035156 576.01953125 2424.13964844 579.1796875 2424.13964844 582.940429688 c 4
2404.13964844 588.360351562 m 4
 2360.5 588.360351562 l 6
 2361.1796875 594.700195312 2363.24023438 600.120117188 2366.71972656 604.66015625 c 4
 2370.98046875 610.360351562 2376.55957031 613.200195312 2383.40039062 613.200195312 c 4
 2390.90039062 613.200195312 2396.44042969 610.280273438 2400.08007812 604.459960938 c 4
 2402.91992188 599.940429688 2404.29980469 594.580078125 2404.13964844 588.360351562 c 4
EndSplineSet
Fore
SplineSet
1303 589 m 1x03f9b80724
 1303 589 1303 610 1324 610 c 0
 1344 610 1343 588 1343 588 c 1
 1343 531 l 1
 1364 531 l 1
 1364 588 l 1x03f9780724
 1364 588 1365 628 1331 628 c 0
 1309 628 1301 611 1301 611 c 1
 1300 626 l 1
 1281 626 l 1
 1282 599 l 1
 1282 531 l 1
 1303 531 l 1
 1303 589 l 1x03f9b80724
2249 589 m 1
 2249 589 2249 610 2270 610 c 0
 2290 610 2289 588 2289 588 c 1
 2289 531 l 1
 2310 531 l 1
 2310 588 l 1x03f938072c
 2310 588 2311 628 2277 628 c 0
 2255 628 2249 611 2249 611 c 1
 2249 669 l 1
 2228 669 l 1
 2228 531 l 1
 2249 531 l 1
 2249 589 l 1
1429 166 m 0x93f9b80724
 1542 166 1542 366 1435 366 c 0x8bf9b80724
 1386 366 1369 330 1369 330 c 1
 1367 362 l 1
 1329 362 l 1
 1331 319 l 1
 1331 92 l 1
 1374 92 l 1
 1374 193 l 1
 1374 193 1387 166 1429 166 c 0x93f9b80724
1421 332 m 0
 1488 332 1488 199 1420 199 c 0
 1375 199 1374 246 1374 246 c 1
 1374 281 l 1
 1374 281 1375 332 1421 332 c 0
1098 579 m 0
 1098 644 1006 644 1006 578 c 0
 1006 511 1098 513 1098 579 c 0
1076 579 m 0
 1076 533 1027 532 1027 578 c 0
 1027 623 1076 624 1076 579 c 0
1545 579 m 0
 1545 644 1453 644 1453 578 c 0
 1453 511 1545 513 1545 579 c 0
1523 579 m 0
 1523 533 1474 532 1474 578 c 0
 1474 623 1523 624 1523 579 c 0
1997 589 m 1
 1997 589 1997 610 2018 610 c 0
 2038 610 2037 588 2037 588 c 1
 2037 531 l 1
 2058 531 l 1
 2058 588 l 1
 2058 588 2059 628 2025 628 c 0
 2003 628 1995 611 1995 611 c 1
 1994 626 l 1
 1975 626 l 1
 1976 599 l 1
 1976 531 l 1
 1997 531 l 1
 1997 589 l 1
658 502 m 1
 658 502 625 553 557 553 c 0
 519 553 487 529 467 529 c 0
 443 529 421 551 382 551 c 0
 307 551 245 480 257 372 c 0
 268 275 337 165 388 165 c 0
 420 165 434 186 473 186 c 0x43f9380724
 512 186 523 166 557 166 c 0
 614 166 661 267 671 301 c 1
 592 333 572 448 658 502 c 1
565 676 m 1
 510 672 457 618 463 558 c 1
 522 556 571 616 565 676 c 1
1073 170 m 1
 987 436 l 1
 934 436 l 1
 848 170 l 1
 892 170 l 1
 916 248 l 1
 1003 248 l 1
 1027 170 l 1
 1073 170 l 1
995 281 m 1
 924 281 l 1
 959 398 l 1
 995 281 l 1
1208 166 m 0x93fd380724
 1321 166 1321 366 1214 366 c 0x8bfd380724
 1165 366 1148 330 1148 330 c 1
 1146 362 l 1
 1108 362 l 1
 1110 316 l 1
 1110 92 l 1
 1153 92 l 1
 1153 193 l 1
 1153 193 1166 166 1208 166 c 0x93fd380724
1200 332 m 0
 1268 332 1268 199 1199 199 c 0
 1154 199 1153 246 1153 246 c 1
 1153 281 l 1
 1153 281 1154 332 1200 332 c 0
1665 166 m 0
 1720 166 1761 193 1761 245 c 0
 1761 287 1731 308 1694 323 c 0
 1670 333 1643 343 1643 370 c 0
 1643 393 1664 405 1689 405 c 0
 1718 405 1740 393 1740 393 c 1
 1751 427 l 1
 1751 427 1729 440 1690 440 c 0
 1641 440 1600 412 1600 365 c 0
 1600 332 1623 306 1670 289 c 0
 1696 280 1718 268 1718 241 c 0x87f93d0724
 1718 214 1696 201 1667 201 c 0
 1630 201 1606 218 1606 218 c 1
 1596 183 l 1
 1596 183 1617 166 1665 166 c 0
1813 233 m 2x93f9384724
 1813 190 1828 166 1867 166 c 0
 1888 166 1900 171 1900 171 c 1
 1899 203 l 1
 1899 203 1891 201 1880 201 c 0
 1863 201 1855 213 1855 237 c 2
 1855 330 l 1
 1902 330 l 1
 1902 362 l 1
 1855 362 l 1
 1855 410 l 1
 1813 397 l 1
 1813 362 l 1
 1785 362 l 1
 1785 330 l 1
 1813 330 l 1
 1813 233 l 2x93f9384724
2114 267 m 0
 2114 400 1926 401 1926 264 c 0x03f9380f24
 1926 131 2114 133 2114 267 c 0
2070 266 m 0
 2070 174 1969 173 1969 265 c 0
 1969 356 2070 358 2070 266 c 0
2194 276 m 1x13f93807a4
 2194 276 2195 326 2239 326 c 0
 2246 326 2252 325 2252 325 c 1
 2252 365 l 1
 2252 365 2246 366 2242 366 c 0x23f93807a4
 2200 366 2189 323 2189 323 c 1
 2187 362 l 1
 2150 362 l 1
 2151 321 l 1
 2151 170 l 1
 2194 170 l 1
 2194 276 l 1x13f93807a4
2368 166 m 0x8bf9380734
 2405 166 2432 178 2432 178 c 1
 2426 208 l 1
 2426 208 2407 199 2374 199 c 0
 2311 199 2314 256 2314 256 c 1
 2442 256 l 1
 2448 316 2424 366 2363 366 c 0
 2298 366 2273 309 2273 264 c 0
 2273 212 2302 166 2368 166 c 0x8bf9380734
2314 286 m 1
 2314 296 2324 337 2360 337 c 0
 2405 337 2402 286 2402 286 c 1
 2314 286 l 1
981 600 m 0
 981 642 955 663 910 663 c 0
 890 663 874 660 874 660 c 1
 874 532 l 1
 874 532 892 530 904 530 c 0
 952 530 981 553 981 600 c 0
959 599 m 0
 959 566 942 547 909 547 c 0
 900 547 894 548 894 548 c 1
 894 645 l 1
 894 645 904 646 911 646 c 0
 943 646 959 630 959 599 c 0
1255 626 m 1
 1235 626 l 1
 1216 551 l 1
 1196 626 l 1
 1179 626 l 1
 1157 551 l 1
 1140 626 l 1
 1119 626 l 1x03fb380724
 1147 531 l 1
 1167 531 l 1
 1187 601 l 1
 1206 531 l 1
 1226 531 l 1
 1255 626 l 1
1401 531 m 1
 1422 531 l 1
 1422 669 l 1
 1401 669 l 1
 1401 531 l 1
1569 557 m 0
 1569 526 1610 520 1626 542 c 1
 1628 531 l 1
 1647 531 l 1
 1645 549 l 1
 1645 589 l 2x03f93a0724
 1645 615 1633 628 1608 628 c 0
 1588 628 1576 620 1576 620 c 1
 1580 606 l 1
 1580 606 1589 613 1605 613 c 0
 1619 613 1624 606 1624 592 c 1
 1596 593 1569 583 1569 557 c 0
1590 559 m 0
 1590 582 1625 578 1625 578 c 1
 1625 564 l 2
 1625 542 1590 536 1590 559 c 0
1715 529 m 0x43f9388724
 1739 529 1746 546 1746 546 c 1
 1747 531 l 1
 1766 531 l 1
 1766 531 1765 545 1765 557 c 2
 1765 669 l 1
 1744 669 l 1
 1744 615 l 1
 1744 615 1737 628 1717 628 c 0
 1663 628 1661 529 1715 529 c 0x43f9388724
1722 611 m 0
 1744 611 1744 587 1744 587 c 1
 1744 571 l 1
 1744 571 1744 546 1721 546 c 0
 1689 546 1687 611 1722 611 c 0
1945 579 m 0x03f9383724
 1945 644 1853 644 1853 578 c 0
 1853 511 1945 513 1945 579 c 0x03f9383724
1923 579 m 0
 1923 533 1874 532 1874 578 c 0
 1874 623 1923 624 1923 579 c 0
2155 562 m 2x43f9380764
 2155 542 2163 529 2181 529 c 0
 2193 529 2198 532 2198 532 c 1
 2197 548 l 1
 2197 548 2194 547 2188 547 c 0
 2180 547 2176 552 2176 564 c 2
 2176 610 l 1
 2199 610 l 1
 2199 626 l 1
 2176 626 l 1
 2176 649 l 1
 2155 643 l 1
 2155 626 l 1
 2141 626 l 1
 2141 610 l 1
 2155 610 l 1
 2155 562 l 2x43f9380764
2387 530 m 0
 2407 530 2419 535 2419 535 c 1
 2416 550 l 1
 2416 550 2408 546 2390 546 c 0
 2359 546 2360 573 2360 573 c 1
 2423 573 l 1
 2428 596 2417 628 2385 628 c 0
 2356 628 2340 603 2340 577 c 0
 2340 553 2353 530 2387 530 c 0
2360 588 m 1
 2360 588 2362 613 2383 613 c 0
 2406 613 2404 588 2404 588 c 1
 2360 588 l 1
EndSplineSet
Layer: 2
Layer: 3
SplineSet
1813 233 m 2,0,1
 1813 166 1813 166 1867 166 c 1,2,3
 1888 166 1888 166 1900 171 c 1,4,-1
 1899 203 l 1,5,6
 1891 201 1891 201 1880 201 c 0,7,8
 1855 201 1855 201 1855 237 c 2,9,-1
 1855 330 l 1,10,-1
 1902 330 l 1,11,-1
 1902 362 l 1,12,-1
 1855 362 l 1,13,-1
 1855 410 l 1,14,-1
 1813 397 l 1,15,-1
 1813 362 l 1,16,-1
 1785 362 l 1,17,-1
 1785 330 l 1,18,-1
 1813 330 l 1,19,-1
 1813 233 l 2,0,1
2155 562 m 2,20,21
 2155 529 2155 529 2181 529 c 0,22,23
 2192 529 2192 529 2198 532 c 1,24,-1
 2197 548 l 2,25,26
 2195 547 2195 547 2188 547 c 0,27,28
 2176 547 2176 547 2176 564 c 2,29,-1
 2176 610 l 1,30,-1
 2199 610 l 1,31,-1
 2199 626 l 1,32,-1
 2176 626 l 1,33,-1
 2176 649 l 1,34,-1
 2155 643 l 1,35,-1
 2155 626 l 1,36,-1
 2141 626 l 1,37,-1
 2141 610 l 1,38,-1
 2155 610 l 1,39,-1
 2155 562 l 2,20,21
EndSplineSet
EndChar
StartChar: J
Encoding: 74 74 27
Width: 800
VWidth: 0
Flags: H
LayerCount: 4
Back
SplineSet
492.686 148 m 5
 492.686 148 391.657 148 391.657 148 c 5
 391.657 281.666 281.666 391.657 148 391.657 c 5
 148 391.657 148 492.686 148 492.686 c 5
 337.088 492.686 492.685 337.09 492.686 148 c 5
564 148 m 5
 564 376.211 376.211 564 148 564 c 5
 148 564 148 668 148 668 c 5
 433.264 668 668 433.264 668 148 c 5
 564 148 l 5
EndSplineSet
Fore
SplineSet
493 148 m 5
 392 148 l 5
 392 282 281 392 148 392 c 5
 148 493 l 5
 337 493 493 337 493 148 c 5
564 148 m 5
 564 376 376 564 148 564 c 5
 148 668 l 5
 433 668 668 433 668 148 c 5
 564 148 l 5
EndSplineSet
Layer: 2
Layer: 3
EndChar
StartChar: googleplay
Encoding: 75 75 28
Width: 2700
VWidth: 0
Flags: HWO
HStem: 132 35<1435.03 1507.12> 211 35<799.618 903.768 1046.94 1121.06 1241.52 1313.49 1438.18 1508.68 1697.38 1771.78 2224.44 2289.88> 301 33<2227.06 2304.85> 315 38<1994 2029.09> 353 35<1047.14 1121.42 1241.52 1313.49 1438.18 1508.82 1697.48 1763.68> 364 36<2215.26 2297.55> 435 38<1994 2028.64> 448 38<794.923 905.891> 572 15<754.891 813.983 1262.88 1321.15> 676 14<756.748 812.742 1264.71 1319.27>
VStem: 711 41<292.105 404.831> 723 15<605.245 656.755> 784 59<621.564 635> 995 39<259.627 339.891> 1134 39<259.627 340.47> 1189 39<259.612 339.219> 1231 16<603.124 658.876> 1328 38<260.085 338.734> 1338 15<605.079 656.921> 1386 39<259.615 339.358> 1518 37<180.424 224 261.471 337.528> 1646 39<302 339.575> 2037 40<361.22 426.473> 2182 41<250.922 295.152> 2306 39<262.131 298.966 325 355.281>
LayerCount: 4
Back
SplineSet
499.145507812 336.009765625 m 1
 235.10546875 136.05859375 l 2
 226.709960938 139.11328125 221.327148438 147.922851562 221.327148438 161.081054688 c 2
 221.327148438 509.7265625 l 2
 221.327148438 523.354492188 227.09375 532.315429688 235.999023438 535.067382812 c 2
 499.145507812 336.009765625 l 1
235.546875 535.521484375 m 2
 241.712890625 537.5859375 249.43359375 536.622070312 257.829101562 532.081054688 c 2
 498.236328125 401.84375 l 1
 445.393554688 323.676757812 l 1
 235.546875 535.521484375 l 2
498.63671875 269.77734375 m 1
 257.829101562 139.348632812 l 2
 249.240234375 134.696289062 241.33984375 133.787109375 235.10546875 136.05859375 c 2
 446.522460938 349.47265625 l 1
 498.63671875 269.77734375 l 1
497.848632812 401.444335938 m 1
 583.283203125 355.15625 l 2
 603.447265625 344.240234375 603.447265625 326.553710938 583.283203125 315.639648438 c 2
 498.63671875 269.77734375 l 1
 433.075195312 336.009765625 l 1
 497.848632812 401.444335938 l 1
1517.06933594 231.126953125 m 2
 1518.40527344 231.126953125 l 1
 1518.40527344 218.409179688 l 2
 1518.40527344 201.670898438 1514.22070312 188.830078125 1505.85253906 179.897460938 c 0
 1497.484375 170.978515625 1485.92089844 166.50390625 1471.19433594 166.50390625 c 0
 1460.25097656 166.50390625 1450.98828125 169.62890625 1443.40527344 175.877929688 c 0
 1435.81933594 182.126953125 1430.23242188 189.504882812 1426.66699219 197.984375 c 2
 1392.84863281 183.916992188 l 2
 1398.64257812 170.083984375 1408.25097656 157.916015625 1421.64355469 147.428710938 c 0
 1435.03710938 136.939453125 1451.55273438 131.680664062 1471.19433594 131.680664062 c 0
 1495.74804688 131.680664062 1515.90039062 139.334960938 1531.6328125 154.625976562 c 0
 1547.36425781 169.91796875 1555.23730469 192.958984375 1555.23730469 223.763671875 c 2
 1555.23730469 382.463867188 l 1
 1518.40527344 382.463867188 l 1
 1518.40527344 368.067382812 l 1
 1517.06933594 368.067382812 l 2
 1512.37597656 373.654296875 1505.96191406 378.334960938 1497.81445312 382.133789062 c 0
 1489.66503906 385.931640625 1480.5703125 387.83203125 1470.51855469 387.83203125 c 0
 1447.97363281 387.83203125 1428.22363281 379.173828125 1411.26464844 361.873046875 c 0
 1394.29394531 344.5859375 1385.81542969 323.6484375 1385.81542969 299.095703125 c 0
 1385.81542969 274.7734375 1394.29394531 254.00390625 1411.26464844 236.826171875 c 0
 1428.22363281 219.634765625 1447.97363281 211.045898438 1470.51855469 211.045898438 c 0
 1490.61523438 211.045898438 1506.12695312 217.736328125 1517.06933594 231.126953125 c 2
2547.77050781 389.483398438 m 2
 2547.30175781 390.200195312 2502.40332031 389.841796875 2502.40332031 389.841796875 c 1
 2454.98339844 271.622070312 l 1
 2404.25097656 389.732421875 l 1
 2360.41210938 389.442382812 l 1
 2434.05078125 222.359375 l 1
 2393.32226562 135.176757812 l 1
 2436.79003906 135.0390625 l 1
 2547.77050781 389.483398438 l 2
2304.171875 238.889648438 m 0
 2305.60351562 238.889648438 l 1
 2305.60351562 214.666015625 l 1
 2345.07910156 214.666015625 l 1
 2345.23144531 320.126953125 l 2
 2345.23144531 374.302734375 2307.21386719 400.193359375 2261.17382812 400.193359375 c 0
 2212.58496094 400.193359375 2192.421875 369.594726562 2188.38867188 359.147460938 c 2
 2221.61523438 343.015625 l 2
 2224.46289062 350.861328125 2239.43945312 364.14453125 2260.75976562 364.14453125 c 0
 2282.08203125 364.14453125 2304.55761719 350.709960938 2304.55761719 324.725585938 c 2
 2304.55761719 324.725585938 2287.55859375 334.440429688 2261.51660156 334.440429688 c 0
 2239.90820312 334.440429688 2181.53417969 324.833984375 2181.53417969 272.474609375 c 0
 2181.53417969 222.993164062 2231.59375 208.966796875 2250.12109375 208.966796875 c 0
 2275.29589844 208.966796875 2291.10839844 218.93359375 2304.171875 238.889648438 c 0
1733.9375 211.045898438 m 0
 1751.80273438 211.045898438 1766.86035156 215.064453125 1779.13964844 223.088867188 c 0
 1791.41796875 231.126953125 1800.89941406 240.169921875 1807.60253906 250.217773438 c 2
 1777.47265625 270.30078125 l 2
 1766.31152344 254.00390625 1751.80273438 245.870117188 1733.9375 245.870117188 c 0
 1714.515625 245.870117188 1700.24316406 254.7890625 1691.08984375 272.654296875 c 2
 1809.28222656 321.53125 l 1
 1805.26464844 331.578125 l 2
 1803.03320312 337.385742188 1800.12988281 343.181640625 1796.55078125 348.990234375 c 0
 1792.98632812 354.798828125 1788.18261719 360.7578125 1782.15332031 366.896484375 c 0
 1776.12402344 373.03515625 1768.54101562 378.059570312 1759.38769531 381.96875 c 0
 1750.234375 385.877929688 1740.31054688 387.83203125 1729.58789062 387.83203125 c 0
 1706.36816406 387.83203125 1686.671875 379.57421875 1670.49902344 363.056640625 c 0
 1654.3125 346.525390625 1646.21875 325.328125 1646.21875 299.438476562 c 0
 1646.21875 274.428710938 1654.58691406 253.452148438 1671.32519531 236.482421875 c 0
 1688.07617188 219.524414062 1708.94140625 211.045898438 1733.9375 211.045898438 c 0
1277.64257812 211.045898438 m 0
 1302.43066406 211.045898438 1323.40722656 219.469726562 1340.59863281 236.317382812 c 0
 1357.77832031 253.176757812 1366.37988281 274.209960938 1366.37988281 299.438476562 c 0
 1366.37988281 324.65234375 1357.77832031 345.700195312 1340.59863281 362.547851562 c 0
 1323.40722656 379.39453125 1302.43066406 387.83203125 1277.64257812 387.83203125 c 0
 1252.8671875 387.83203125 1231.890625 379.39453125 1214.69921875 362.547851562 c 0
 1197.5078125 345.700195312 1188.91992188 324.65234375 1188.91992188 299.438476562 c 0
 1188.91992188 274.209960938 1197.5078125 253.176757812 1214.69921875 236.317382812 c 0
 1231.890625 219.469726562 1252.8671875 211.045898438 1277.64257812 211.045898438 c 0
1084.18847656 211.045898438 m 0
 1108.96289062 211.045898438 1129.93945312 219.469726562 1147.12890625 236.317382812 c 0
 1164.32421875 253.176757812 1172.91113281 274.209960938 1172.91113281 299.438476562 c 0
 1172.91113281 324.65234375 1164.32421875 345.700195312 1147.12890625 362.547851562 c 0
 1129.93945312 379.39453125 1108.96289062 387.83203125 1084.18847656 387.83203125 c 0
 1059.41308594 387.83203125 1038.42382812 379.39453125 1021.22949219 362.547851562 c 0
 1004.05371094 345.700195312 995.447265625 324.65234375 995.447265625 299.438476562 c 0
 995.447265625 274.209960938 1004.05371094 253.176757812 1021.22949219 236.317382812 c 0
 1038.42382812 219.469726562 1059.41308594 211.045898438 1084.18847656 211.045898438 c 0
850.513671875 211.045898438 m 0
 889.810546875 211.045898438 921.729492188 223.874023438 946.282226562 249.54296875 c 0
 967.931640625 271.194335938 978.75 300.443359375 978.75 337.263671875 c 0
 978.75 346.1953125 978.099609375 354.013671875 976.741210938 360.704101562 c 2
 850.513671875 360.704101562 l 1
 850.513671875 323.209960938 l 1
 940.25390625 323.209960938 l 2
 937.571289062 302.673828125 930.772460938 286.926757812 919.830078125 275.998046875 c 0
 901.522460938 257.692382812 878.427734375 248.538085938 850.513671875 248.538085938 c 0
 823.067382812 248.538085938 799.79296875 258.256835938 780.716796875 277.663085938 c 0
 761.625 297.084960938 752.0859375 320.634765625 752.0859375 348.314453125 c 0
 752.0859375 375.995117188 761.625 399.544921875 780.716796875 418.966796875 c 0
 799.79296875 438.387695312 823.067382812 448.090820312 850.513671875 448.090820312 c 0
 876.637695312 448.090820312 899.184570312 439.171875 918.151367188 421.306640625 c 2
 944.60546875 447.76171875 l 2
 918.260742188 472.990234375 886.905273438 485.598632812 850.513671875 485.598632812 c 0
 812.580078125 485.598632812 779.875976562 472.15234375 752.41796875 445.256835938 c 0
 724.958007812 418.34765625 711.234375 386.04296875 711.234375 348.314453125 c 0
 711.234375 310.6015625 724.958007812 278.284179688 752.41796875 251.388671875 c 0
 779.875976562 224.493164062 812.580078125 211.045898438 850.513671875 211.045898438 c 0
2150.16601562 214.666015625 m 1
 2150.16601562 473.060546875 l 1
 2110.78613281 473.060546875 l 1
 2110.78613281 214.666015625 l 1
 2150.16601562 214.666015625 l 1
1943.234375 214.666015625 m 1
 1943.234375 314.67578125 l 1
 1994.08496094 314.67578125 l 2
 2041.85546875 314.67578125 2077.20214844 346.45703125 2077.20214844 393.875976562 c 0
 2077.20214844 441.291992188 2041.63574219 473.060546875 1994.08496094 473.060546875 c 2
 1903.85644531 473.060546875 l 1
 1903.85644531 214.666015625 l 1
 1943.234375 214.666015625 l 1
1624.16894531 216.399414062 m 1
 1624.16894531 476.224609375 l 1
 1585.32617188 476.224609375 l 1
 1585.32617188 216.399414062 l 1
 1624.16894531 216.399414062 l 1
1473.87792969 245.870117188 m 0
 1460.25097656 245.870117188 1448.6484375 250.93359375 1439.0546875 261.091796875 c 0
 1429.44726562 271.25 1424.65722656 283.926757812 1424.65722656 299.095703125 c 0
 1424.65722656 314.497070312 1429.44726562 327.340820312 1439.0546875 337.607421875 c 0
 1448.6484375 347.875 1460.25097656 353.008789062 1473.87792969 353.008789062 c 0
 1487.26855469 353.008789062 1498.48828125 347.875 1507.51757812 337.607421875 c 0
 1516.56054688 327.340820312 1521.08789062 314.497070312 1521.08789062 299.095703125 c 0
 1521.08789062 283.926757812 1516.56054688 271.25 1507.51757812 261.091796875 c 0
 1498.48828125 250.93359375 1487.26855469 245.870117188 1473.87792969 245.870117188 c 0
1277.64257812 245.870117188 m 0
 1264.02929688 245.870117188 1252.31738281 250.93359375 1242.48828125 261.091796875 c 0
 1232.67382812 271.25 1227.76074219 284.038085938 1227.76074219 299.438476562 c 0
 1227.76074219 315.060546875 1232.62011719 327.887695312 1242.32324219 337.9375 c 0
 1252.02832031 347.984375 1263.80957031 353.008789062 1277.64257812 353.008789062 c 0
 1291.49023438 353.008789062 1303.25878906 347.984375 1312.97363281 337.9375 c 0
 1322.6796875 327.887695312 1327.5390625 315.060546875 1327.5390625 299.438476562 c 0
 1327.5390625 284.038085938 1322.625 271.25 1312.81054688 261.091796875 c 0
 1302.98242188 250.93359375 1291.26953125 245.870117188 1277.64257812 245.870117188 c 0
1084.18847656 245.870117188 m 0
 1070.56152344 245.870117188 1058.84765625 250.93359375 1049.02050781 261.091796875 c 0
 1039.20703125 271.25 1034.29296875 284.038085938 1034.29296875 299.438476562 c 0
 1034.29296875 315.060546875 1039.15234375 327.887695312 1048.85449219 337.9375 c 0
 1058.57226562 347.984375 1070.34082031 353.008789062 1084.18847656 353.008789062 c 0
 1098.02148438 353.008789062 1109.80371094 347.984375 1119.50683594 337.9375 c 0
 1129.2109375 327.887695312 1134.06835938 315.060546875 1134.06835938 299.438476562 c 0
 1134.06835938 284.038085938 1129.15429688 271.25 1119.34082031 261.091796875 c 0
 1109.51269531 250.93359375 1097.80175781 245.870117188 1084.18847656 245.870117188 c 0
2255.30957031 247.618164062 m 0
 2241.765625 247.618164062 2222.77148438 254.11328125 2222.77148438 271.236328125 c 0
 2222.77148438 293.809570312 2251.3046875 301.2421875 2267.21484375 301.2421875 c 0
 2285.7421875 301.2421875 2296.3125 297.442382812 2305.57519531 289.831054688 c 0
 2305.57519531 276.06640625 2282.43945312 247.618164062 2255.30957031 247.618164062 c 0
1684.71679688 302.109375 m 2
 1684.27734375 317.73046875 1689.02636719 330.241210938 1698.95019531 339.616210938 c 0
 1708.88671875 348.990234375 1719.54101562 353.669921875 1730.92382812 353.669921875 c 0
 1738.52148438 353.669921875 1745.32128906 351.94921875 1751.34960938 348.48046875 c 0
 1757.37890625 345.025390625 1761.50683594 340.51171875 1763.73632812 334.924804688 c 2
 1684.71679688 302.109375 l 2
1994.79394531 435.098632812 m 2
 2021.49804688 435.098632812 2037.09277344 411.794921875 2037.09277344 393.875976562 c 0
 2037.09277344 375.940429688 2023.47949219 352.637695312 1994.79394531 352.637695312 c 2
 1943.234375 352.637695312 l 1
 1943.234375 435.098632812 l 1
 1994.79394531 435.098632812 l 2
1292.27441406 569.57421875 m 4
 1309.56152344 569.57421875 1324.01367188 575.547851562 1335.63085938 587.495117188 c 4
 1347.24707031 599.443359375 1353.05566406 614.059570312 1353.05566406 631.34765625 c 4
 1353.05566406 648.524414062 1347.21972656 663.115234375 1335.54882812 675.1171875 c 4
 1323.87695312 687.120117188 1309.453125 693.12109375 1292.27441406 693.12109375 c 4
 1274.98535156 693.12109375 1260.53417969 687.147460938 1248.91699219 675.200195312 c 4
 1237.29882812 663.250976562 1231.49316406 648.63671875 1231.49316406 631.34765625 c 4
 1231.49316406 614.059570312 1237.29882812 599.443359375 1248.91699219 587.495117188 c 4
 1260.53417969 575.547851562 1274.98535156 569.57421875 1292.27441406 569.57421875 c 4
842.516601562 626.557617188 m 0
 842.516601562 629.420898438 842.241210938 632.393554688 841.690429688 635.4765625 c 2
 784.376953125 635.4765625 l 1
 784.376953125 621.272460938 l 1
 827.3203125 621.272460938 l 2
 826.44140625 611.03125 823.13671875 603.047851562 817.411132812 597.322265625 c 0
 808.602539062 588.512695312 797.58984375 584.109375 784.376953125 584.109375 c 0
 771.934570312 584.109375 761.170898438 588.485351562 752.0859375 597.239257812 c 0
 743.002929688 605.994140625 738.458984375 617.364257812 738.458984375 631.34765625 c 0
 738.458984375 645.333007812 743.002929688 656.69921875 752.0859375 665.455078125 c 0
 761.170898438 674.209960938 771.934570312 678.5859375 784.376953125 678.5859375 c 0
 798.141601562 678.5859375 808.932617188 673.90625 816.751953125 664.544921875 c 2
 827.155273438 674.952148438 l 2
 822.532226562 680.45703125 816.364257812 684.86328125 808.657226562 688.166015625 c 0
 800.94921875 691.469726562 792.85546875 693.12109375 784.376953125 693.12109375 c 0
 767.309570312 693.12109375 752.80078125 687.202148438 740.854492188 675.365234375 c 0
 728.907226562 663.52734375 722.934570312 648.85546875 722.934570312 631.34765625 c 0
 722.934570312 613.838867188 728.907226562 599.166015625 740.854492188 587.329101562 c 0
 752.80078125 575.493164062 767.309570312 569.57421875 784.376953125 569.57421875 c 0
 802.215820312 569.57421875 816.694335938 575.41015625 827.81640625 587.08203125 c 0
 837.616210938 596.8828125 842.516601562 610.040039062 842.516601562 626.557617188 c 0
1386.25488281 572.216796875 m 1
 1386.25488281 645.881835938 l 1
 1385.59570312 668.676757812 l 1
 1386.25488281 668.676757812 l 1
 1446.37792969 572.216796875 l 1
 1462.23242188 572.216796875 l 1
 1462.23242188 690.478515625 l 1
 1447.03710938 690.478515625 l 1
 1447.03710938 621.272460938 l 1
 1447.69921875 598.479492188 l 1
 1447.03710938 598.479492188 l 1
 1389.55957031 690.478515625 l 1
 1371.05957031 690.478515625 l 1
 1371.05957031 572.216796875 l 1
 1386.25488281 572.216796875 l 1
1188.38183594 675.943359375 m 1
 1188.38183594 690.478515625 l 1
 1107.11914062 690.478515625 l 1
 1107.11914062 675.943359375 l 1
 1140.15234375 675.943359375 l 1
 1140.15234375 572.216796875 l 1
 1155.34863281 572.216796875 l 1
 1155.34863281 675.943359375 l 1
 1188.38183594 675.943359375 l 1
1091.26171875 572.216796875 m 1
 1091.26171875 690.478515625 l 1
 1076.06738281 690.478515625 l 1
 1076.06738281 572.216796875 l 1
 1091.26171875 572.216796875 l 1
1023.87207031 675.943359375 m 1
 1023.87207031 690.478515625 l 1
 942.610351562 690.478515625 l 1
 942.610351562 675.943359375 l 1
 975.641601562 675.943359375 l 1
 975.641601562 572.216796875 l 1
 990.845703125 572.216796875 l 1
 990.845703125 675.943359375 l 1
 1023.87207031 675.943359375 l 1
930.057617188 675.943359375 m 1
 930.057617188 690.478515625 l 1
 861.015625 690.478515625 l 1
 861.015625 572.216796875 l 1
 930.057617188 572.216796875 l 1
 930.057617188 586.750976562 l 1
 876.211914062 586.750976562 l 1
 876.211914062 624.24609375 l 1
 924.770507812 624.24609375 l 1
 924.770507812 638.450195312 l 1
 876.211914062 638.450195312 l 1
 876.211914062 675.943359375 l 1
 930.057617188 675.943359375 l 1
1292.27441406 584.109375 m 4
 1279.61035156 584.109375 1268.90234375 588.540039062 1260.1484375 597.405273438 c 4
 1251.39355469 606.268554688 1247.01757812 617.583984375 1247.01757812 631.34765625 c 4
 1247.01757812 645.111328125 1251.39355469 656.424804688 1260.1484375 665.290039062 c 4
 1268.90234375 674.154296875 1279.61035156 678.5859375 1292.27441406 678.5859375 c 4
 1304.9375 678.5859375 1315.64453125 674.154296875 1324.3984375 665.290039062 c 4
 1333.15429688 656.424804688 1337.53027344 645.111328125 1337.53027344 631.34765625 c 4
 1337.53027344 617.583984375 1333.15429688 606.268554688 1324.3984375 597.405273438 c 4
 1315.64453125 588.540039062 1304.9375 584.109375 1292.27441406 584.109375 c 4
0 0.474609375 m 1
 0 799.903320312 l 1
 2698.87304688 799.903320312 l 1
 2698.87304688 0.474609375 l 1
 0 0.474609375 l 1
EndSplineSet
Fore
SplineSet
1292 570 m 4
 1327 570 1353 597 1353 631 c 4
 1353 666 1326 693 1292 693 c 4
 1258 693 1231 665 1231 631 c 4
 1231 597 1258 570 1292 570 c 4
1292 584 m 4
 1266 584 1247 605 1247 631 c 4
 1247 657 1266 679 1292 679 c 4
 1318 679 1338 657 1338 631 c 4
 1338 605 1318 584 1292 584 c 4
1278 211 m 4
 1328 211 1367 249 1367 299 c 4
 1367 349 1328 388 1278 388 c 4
 1228 388 1189 349 1189 299 c 4
 1189 249 1228 211 1278 211 c 4
1278 246 m 4
 1250 246 1228 270 1228 299 c 4
 1228 329 1249 353 1278 353 c 4
 1308 353 1328 330 1328 299 c 4
 1328 270 1306 246 1278 246 c 4
499 336 m 5xc0cf9f80
 235 136 l 5
 227 139 221 148 221 161 c 6
 221 510 l 6
 221 524 227 533 236 536 c 5
 499 336 l 5xc0cf9f80
236 536 m 5
 242 538 250 537 258 532 c 6
 498 401 l 5
 445 324 l 5
 236 536 l 5
499 270 m 5
 258 139 l 6
 249 134 241 134 235 136 c 5
 447 349 l 5
 499 270 l 5
498 401 m 5
 583 355 l 6
 603 344 603 327 583 316 c 6
 499 270 l 5
 433 336 l 5
 498 401 l 5
1518 233 m 5
 1518 218 l 6
 1518 186 1502 167 1471 167 c 4
 1437 167 1427 198 1427 198 c 5
 1393 184 l 5
 1393 184 1412 132 1471 132 c 4
 1525 132 1555 167 1555 224 c 6
 1555 382 l 5
 1518 382 l 5
 1518 367 l 5
 1511 377 1492 388 1471 388 c 4xc8cf9f80
 1424 388 1386 347 1386 299 c 4
 1386 252 1424 211 1471 211 c 4
 1492 211 1510 220 1518 233 c 5
2548 389 m 6
 2548 390 2502 390 2502 390 c 5
 2455 272 l 5
 2404 390 l 5
 2360 389 l 5
 2434 222 l 5
 2393 135 l 5
 2437 135 l 5
 2548 389 l 6
2304 239 m 5
 2306 239 l 5
 2306 215 l 5
 2345 215 l 5
 2345 320 l 6
 2345 374 2307 400 2261 400 c 4
 2205 400 2188 359 2188 359 c 5
 2222 343 l 5
 2222 343 2232 364 2261 364 c 4
 2282 364 2305 351 2305 325 c 5
 2273 343 2182 338 2182 272 c 4
 2182 223 2231 209 2250 209 c 4
 2275 209 2291 219 2304 239 c 5
1734 211 m 4
 1769 211 1794 230 1808 250 c 5
 1777 270 l 5
 1777 270 1765 246 1734 246 c 4
 1715 246 1700 255 1691 273 c 5
 1809 322 l 5
 1798 355 1773 388 1730 388 c 4xc8cf9f80
 1681 388 1646 349 1646 299 c 4
 1646 249 1684 211 1734 211 c 4
1084 211 m 4
 1134 211 1173 249 1173 299 c 4
 1173 349 1134 388 1084 388 c 4
 1034 388 995 349 995 299 c 4
 995 249 1034 211 1084 211 c 4
851 211 m 4
 931 211 991 271 977 361 c 5
 851 361 l 5
 851 323 l 5
 940 323 l 5
 935 276 900 249 851 249 c 4
 795 249 752 293 752 348 c 4
 752 405 796 448 851 448 c 4
 877 448 899 439 918 421 c 5
 945 448 l 5
 918 472 887 486 851 486 c 4
 776 486 711 424 711 348 c 4xc1ef9f80
 711 272 775 211 851 211 c 4
2150 215 m 5
 2150 473 l 5
 2111 473 l 5xc2cf9f80
 2111 215 l 5
 2150 215 l 5
1994 473 m 6
 1904 473 l 5
 1904 215 l 5
 1943 215 l 5
 1943 315 l 5
 1994 315 l 6xd2cf9f80
 2042 315 2077 347 2077 394 c 4
 2077 441 2042 473 1994 473 c 6
1624 216 m 5
 1624 476 l 5
 1585 476 l 5
 1585 216 l 5
 1624 216 l 5
1474 246 m 4
 1445 246 1425 270 1425 299 c 4
 1425 329 1445 353 1474 353 c 4xc8cf9f80
 1503 353 1521 329 1521 299 c 4
 1521 270 1502 246 1474 246 c 4
1084 246 m 4
 1056 246 1034 270 1034 299 c 4
 1034 329 1055 353 1084 353 c 4
 1114 353 1134 330 1134 299 c 4
 1134 270 1112 246 1084 246 c 4
2255 248 m 4
 2241 248 2223 254 2223 271 c 4
 2223 307 2288 307 2306 290 c 5
 2306 280 2287 248 2255 248 c 4
1684 302 m 5
 1684 337 1712 354 1731 354 c 4
 1743 354 1758 348 1764 335 c 5
 1684 302 l 5
1995 435 m 6xcacf9f80
 2022 435 2037 412 2037 394 c 4
 2037 376 2024 353 1995 353 c 6xd2cf9f80
 1943 353 l 5
 1943 435 l 5
 1995 435 l 6xcacf9f80
842 635 m 5
 784 635 l 5
 784 621 l 5
 827 621 l 5
 826 598 807 584 784 584 c 4
 759 584 738 605 738 631 c 4xc0df9f80
 738 657 759 679 784 679 c 4
 806 679 817 665 817 665 c 5
 827 675 l 5
 827 675 814 693 784 693 c 4
 750 693 723 666 723 631 c 4xc0df9f80
 723 596 749 570 784 570 c 4
 818 570 846 592 842 635 c 5
1386 572 m 5
 1386 646 l 5
 1386 669 l 5
 1446 572 l 5
 1462 572 l 5
 1462 690 l 5
 1447 690 l 5
 1447 621 l 5
 1448 598 l 5
 1447 598 l 5
 1390 690 l 5
 1371 690 l 5
 1371 572 l 5
 1386 572 l 5
1188 676 m 5
 1188 690 l 5
 1107 690 l 5
 1107 676 l 5
 1140 676 l 5
 1140 572 l 5
 1155 572 l 5
 1155 676 l 5
 1188 676 l 5
1091 572 m 5
 1091 690 l 5
 1076 690 l 5
 1076 572 l 5
 1091 572 l 5
1024 676 m 5
 1024 690 l 5
 943 690 l 5
 943 676 l 5
 976 676 l 5
 976 572 l 5
 991 572 l 5
 991 676 l 5
 1024 676 l 5
930 676 m 5
 930 690 l 5
 861 690 l 5
 861 572 l 5
 930 572 l 5
 930 587 l 5
 876 587 l 5
 876 624 l 5
 925 624 l 5
 925 638 l 5
 876 638 l 5
 876 676 l 5
 930 676 l 5
EndSplineSet
Layer: 2
SplineSet
1292 570 m 0
 1327 570 1353 597 1353 631 c 0
 1353 666 1326 693 1292 693 c 0
 1258 693 1231 665 1231 631 c 0
 1231 597 1258 570 1292 570 c 0
1292 584 m 0
 1266 584 1247 605 1247 631 c 0
 1247 657 1266 679 1292 679 c 0
 1318 679 1338 657 1338 631 c 0
 1338 605 1318 584 1292 584 c 0
1278 211 m 0
 1328 211 1367 249 1367 299 c 0
 1367 349 1328 388 1278 388 c 0
 1228 388 1189 349 1189 299 c 0
 1189 249 1228 211 1278 211 c 0
1278 246 m 0
 1250 246 1228 270 1228 299 c 0
 1228 329 1249 353 1278 353 c 0
 1308 353 1328 330 1328 299 c 0
 1328 270 1306 246 1278 246 c 0
1518 233 m 1
 1518 218 l 2
 1518 186 1502 167 1471 167 c 0
 1437 167 1427 198 1427 198 c 1
 1393 184 l 1
 1393 184 1412 132 1471 132 c 0
 1525 132 1555 167 1555 224 c 2
 1555 382 l 1
 1518 382 l 1
 1518 367 l 1
 1511 377 1492 388 1471 388 c 0xc8cf9f80
 1424 388 1386 347 1386 299 c 0
 1386 252 1424 211 1471 211 c 0
 1492 211 1510 220 1518 233 c 1
2548 389 m 1
 2548 389 2502 389 2502 389 c 1
 2455 272 l 1
 2405 389 l 1
 2361 389 l 1
 2434 222 l 1
 2393 135 l 1
 2437 135 l 1
 2548 389 l 1
2261 400 m 4
 2205 400 2188 359 2188 359 c 1
 2222 343 l 1
 2222 343 2232 364 2261 364 c 0
 2282 364 2305 351 2305 325 c 1
 2273 343 2182 338 2182 272 c 0
 2182 223 2231 209 2250 209 c 0
 2275 209 2291 219 2304 239 c 1
 2306 239 l 1
 2306 215 l 1
 2345 215 l 1
 2345 320 l 2
 2345 374 2307 400 2261 400 c 4
1734 211 m 0
 1769 211 1794 230 1808 250 c 1
 1777 270 l 1
 1777 270 1765 246 1734 246 c 0
 1715 246 1700 255 1691 273 c 1
 1809 322 l 1
 1798 355 1773 388 1730 388 c 0xc8cf9f80
 1681 388 1646 349 1646 299 c 0
 1646 249 1684 211 1734 211 c 0
1084 211 m 0
 1134 211 1173 249 1173 299 c 0
 1173 349 1134 388 1084 388 c 0
 1034 388 995 349 995 299 c 0
 995 249 1034 211 1084 211 c 0
851 211 m 0
 931 211 991 271 977 361 c 1
 851 361 l 1
 851 323 l 1
 940 323 l 1
 935 276 900 249 851 249 c 0
 795 249 752 293 752 348 c 0
 752 405 796 448 851 448 c 0
 877 448 899 439 918 421 c 1
 945 448 l 1
 918 472 887 486 851 486 c 0
 776 486 711 424 711 348 c 0xc1ef9f80
 711 272 775 211 851 211 c 0
2111 473 m 1xc2cf9f80
 2111 215 l 1
 2150 215 l 1
 2150 473 l 1
 2111 473 l 1xc2cf9f80
1994 473 m 2
 1904 473 l 1
 1904 215 l 1
 1943 215 l 1
 1943 315 l 1
 1994 315 l 2xd2cf9f80
 2042 315 2077 347 2077 394 c 0
 2077 441 2042 473 1994 473 c 2
1624 216 m 1
 1624 476 l 1
 1585 476 l 1
 1585 216 l 1
 1624 216 l 1
1474 246 m 0
 1445 246 1425 270 1425 299 c 0
 1425 329 1445 353 1474 353 c 0xc8cf9f80
 1503 353 1521 329 1521 299 c 0
 1521 270 1502 246 1474 246 c 0
1084 246 m 0
 1056 246 1034 270 1034 299 c 0
 1034 329 1055 353 1084 353 c 0
 1114 353 1134 330 1134 299 c 0
 1134 270 1112 246 1084 246 c 0
2255 248 m 0
 2241 248 2223 254 2223 271 c 0
 2223 307 2288 307 2306 290 c 1
 2306 280 2287 248 2255 248 c 0
1684 302 m 1
 1684 337 1712 354 1731 354 c 0
 1743 354 1758 348 1764 335 c 1
 1684 302 l 1
1995 435 m 2xcacf9f80
 2022 435 2037 412 2037 394 c 0
 2037 376 2024 353 1995 353 c 2xd2cf9f80
 1943 353 l 1
 1943 435 l 1
 1995 435 l 2xcacf9f80
842 635 m 1
 784 635 l 1
 784 621 l 1
 827 621 l 1
 826 598 807 584 784 584 c 0
 759 584 738 605 738 631 c 0xc0df9f80
 738 657 759 679 784 679 c 0
 806 679 817 665 817 665 c 1
 827 675 l 1
 827 675 814 693 784 693 c 0
 750 693 723 666 723 631 c 0xc0df9f80
 723 596 749 570 784 570 c 0
 818 570 846 592 842 635 c 1
1386 572 m 1
 1386 604.333333333 1386 636.666666667 1386 669 c 1
 1446 572 l 1
 1462 572 l 1
 1462 690 l 1
 1447 690 l 1
 1447 621 l 1
 1448 598 l 1
 1447 598 l 1
 1390 690 l 1
 1371 690 l 1
 1371 572 l 1
 1386 572 l 1
1188 676 m 1
 1188 690 l 1
 1107 690 l 1
 1107 676 l 1
 1140 676 l 1
 1140 572 l 1
 1155 572 l 1
 1155 676 l 1
 1188 676 l 1
1091 572 m 1
 1091 690 l 1
 1076 690 l 1
 1076 572 l 1
 1091 572 l 1
1024 676 m 1
 1024 690 l 1
 943 690 l 1
 943 676 l 1
 976 676 l 1
 976 572 l 1
 991 572 l 1
 991 676 l 1
 1024 676 l 1
930 676 m 1
 930 690 l 1
 861 690 l 1
 861 572 l 1
 930 572 l 1
 930 587 l 1
 876 587 l 1
 876 624 l 1
 925 624 l 1
 925 638 l 1
 876 638 l 1
 876 676 l 1
 930 676 l 1
EndSplineSet
Layer: 3
EndChar
StartChar: L
Encoding: 76 76 29
Width: 800
VWidth: 0
Flags: H
LayerCount: 4
Back
SplineSet
626.665039062 620 m 6
 656.000976562 620 680 596.001953125 680 566.666015625 c 6
 680 233.333984375 l 6
 680 203.997070312 656.000976562 180 626.665039062 180 c 6
 173.334960938 180 l 6
 143.999023438 180 120 203.997070312 120 233.333984375 c 6
 120 566.666015625 l 6
 120 596.001953125 143.999023438 620 173.334960938 620 c 6
 626.665039062 620 l 6
620 506.666015625 m 5
 620 560 l 5
 400 413.333984375 l 5
 180 560 l 5
 180 506.666015625 l 5
 400 360 l 5
 620 506.666015625 l 5
EndSplineSet
Fore
SplineSet
627 620 m 6
 656 620 680 596 680 567 c 6
 680 233 l 6
 680 204 656 180 627 180 c 6
 173 180 l 6
 144 180 120 204 120 233 c 6
 120 567 l 6
 120 596 144 620 173 620 c 6
 627 620 l 6
620 507 m 5
 620 560 l 5
 400 413 l 5
 180 560 l 5
 180 507 l 5
 400 360 l 5
 620 507 l 5
EndSplineSet
Layer: 2
Layer: 3
EndChar
StartChar: M
Encoding: 77 77 30
Width: 800
VWidth: 0
LayerCount: 4
Back
SplineSet
627.170898438 287.215820312 m 4
 649.327148438 264.346679688 664.666015625 237.07421875 627.739257812 192.471679688 c 4
 592.516601562 150 567.803710938 150 536.416015625 150 c 4
 502.614257812 150 454.325195312 170.880859375 404.046875 207.244140625 c 4
 358.8828125 239.915039062 338.71484375 254.971679688 293.265625 301.563476562 c 4
 244.9765625 351.135742188 214.583007812 392.330078125 181.065429688 453.693359375 c 4
 142.291992188 524.57421875 147.689453125 558.665039062 155.784179688 584.943359375 c 4
 161.180664062 602.415039062 175.526367188 619.6015625 195.267578125 632.1015625 c 4
 195.977539062 632.528320312 196.688476562 633.096679688 197.3984375 633.5234375 c 4
 206.204101562 639.205078125 222.821289062 650 242.846679688 650 c 4
 260.883789062 650 277.075195312 641.4765625 290.994140625 624.431640625 c 6
 292.4140625 622.7265625 l 6
 308.60546875 602.983398438 326.926757812 580.540039062 338.147460938 557.1015625 c 4
 352.20703125 527.415039062 351.638671875 501.846679688 336.299804688 481.108398438 c 4
 323.66015625 463.919921875 318.689453125 454.686523438 319.115234375 449.005859375 c 4
 319.541015625 443.181640625 326.642578125 435.2265625 337.436523438 423.010742188 c 6
 338.430664062 421.875 l 6
 361.012695312 396.306640625 367.404296875 389.7734375 376.209960938 380.681640625 c 4
 377.772460938 379.119140625 379.333984375 377.415039062 381.180664062 375.568359375 c 6
 383.737304688 372.869140625 l 6
 393.821289062 362.358398438 399.360351562 356.534179688 425.350585938 333.94921875 c 6
 426.913085938 332.528320312 l 6
 436.287109375 324.431640625 440.547851562 320.880859375 444.525390625 320.880859375 c 4
 451.767578125 320.880859375 466.823242188 330.255859375 485.712890625 342.330078125 c 4
 492.103515625 346.44921875 499.915039062 348.436523438 508.86328125 348.436523438 c 4
 547.494140625 348.436523438 606.434570312 308.5234375 627.170898438 287.215820312 c 4
EndSplineSet
Fore
SplineSet
627 287 m 4
 649 264 665 237 628 192 c 4
 593 150 567 150 536 150 c 4
 460 150 348 246 293 302 c 4
 240 357 150 472 150 553 c 4
 150 583 163 612 197 634 c 4
 232 657 265 656 292 623 c 4
 314 596 373 531 336 481 c 4
 311 448 314 449 338 422 c 4
 363 394 389 367 427 333 c 4
 448 317 444 314 482 340 c 4
 526 370 605 307 627 287 c 4
EndSplineSet
Layer: 2
Layer: 3
EndChar
StartChar: location
Encoding: 78 78 31
Width: 800
VWidth: 0
Flags: H
LayerCount: 4
Back
SplineSet
400 669.642578125 m 4
 496.66796875 669.642578125 575 590.87109375 575 493.616210938 c 4
 575 325.509765625 400 106.357421875 400 106.357421875 c 5
 400 106.357421875 225 325.509765625 225 493.616210938 c 4
 225 590.87109375 303.33203125 669.642578125 400 669.642578125 c 4
400 408.243164062 m 4
 445.766601562 408.243164062 482.733398438 445.501953125 482.733398438 491.416015625 c 4
 482.733398438 537.475585938 445.766601562 574.735351562 400 574.735351562 c 4
 354.379882812 574.735351562 317.266601562 537.329101562 317.266601562 491.416015625 c 4
 317.266601562 445.501953125 354.233398438 408.243164062 400 408.243164062 c 4
EndSplineSet
Fore
SplineSet
400 670 m 4
 497 670 575 591 575 494 c 4
 575 326 400 106 400 106 c 5
 400 106 225 326 225 494 c 4
 225 591 303 670 400 670 c 4
400 408 m 4
 446 408 483 445 483 491 c 4
 483 537 446 575 400 575 c 4
 354 575 317 537 317 491 c 4
 317 445 354 408 400 408 c 4
EndSplineSet
Layer: 2
Layer: 3
EndChar
StartChar: vk
Encoding: 79 79 32
Width: 800
VWidth: 0
Flags: H
LayerCount: 4
Back
SplineSet
392.9609375 233.525390625 m 6
 392.9609375 233.525390625 317.791015625 229.000976562 251.581054688 297.932617188 c 4
 179.379882812 373.111328125 115.620117188 522.287109375 115.620117188 522.287109375 c 5
 115.620117188 522.287109375 111.943359375 532.063476562 115.939453125 536.795898438 c 4
 120.428710938 542.11328125 132.655273438 542.455078125 132.655273438 542.455078125 c 5
 214.1015625 542.986328125 l 5
 214.1015625 542.986328125 221.775390625 541.708007812 227.265625 537.673828125 c 4
 231.794921875 534.34375 234.330078125 528.123046875 234.330078125 528.123046875 c 5
 234.330078125 528.123046875 247.495117188 494.831054688 264.924804688 464.71484375 c 4
 298.950195312 405.921875 314.798828125 393.064453125 326.349609375 399.362304688 c 4
 343.18359375 408.54296875 338.135742188 482.47265625 338.135742188 482.47265625 c 5
 338.135742188 482.47265625 338.443359375 509.303710938 329.658203125 521.256835938 c 4
 322.857421875 530.509765625 310.032226562 533.217773438 304.365234375 533.971679688 c 4
 299.78125 534.583984375 307.303710938 545.221679688 317.0546875 549.997070312 c 4
 331.7109375 557.176757812 357.588867188 557.583007812 388.171875 557.271484375 c 4
 411.999023438 557.029296875 418.862304688 555.541015625 428.176757812 553.29296875 c 4
 456.252929688 546.514648438 446.7265625 520.330078125 446.7265625 457.526367188 c 4
 446.7265625 437.419921875 443.099609375 409.126953125 457.614257812 399.748046875 c 4
 463.8515625 395.716796875 479.115234375 399.1484375 517.279296875 463.951171875 c 4
 535.36328125 494.666015625 548.93359375 530.77734375 548.93359375 530.77734375 c 5
 548.93359375 530.77734375 551.889648438 537.215820312 556.49609375 539.971679688 c 4
 561.205078125 542.790039062 567.564453125 541.924804688 567.564453125 541.924804688 c 5
 653.26953125 542.455078125 l 5
 653.26953125 542.455078125 679.025390625 545.525390625 683.192382812 533.900390625 c 4
 687.56640625 521.69921875 673.5703125 493.208984375 638.5546875 446.541015625 c 4
 581.059570312 369.909179688 574.661132812 377.077148438 622.396484375 332.775390625 c 4
 667.99609375 290.448242188 677.450195312 269.845703125 678.995117188 267.2890625 c 4
 697.876953125 235.982421875 658.05859375 233.525390625 658.05859375 233.525390625 c 5
 581.936523438 232.4609375 l 5
 581.936523438 232.4609375 565.579101562 229.225585938 544.051757812 244.0078125 c 4
 515.586914062 263.549804688 488.728515625 314.3671875 467.807617188 307.732421875 c 4
 446.594726562 300.999023438 447.260742188 255.284179688 447.260742188 255.284179688 c 5
 447.260742188 255.284179688 447.416015625 245.522460938 442.580078125 240.319335938 c 4
 437.3203125 234.659179688 427.03125 233.525390625 427.03125 233.525390625 c 5
 392.9609375 233.525390625 l 6
EndSplineSet
Fore
SplineSet
393 234 m 2
 258 234 185 377 117 519 c 0
 107 540 123 542 133 542 c 2
 214 543 l 2
 226 543 231 534 234 528 c 0
 247 497 300 386 326 399 c 0
 344 408 341 506 330 521 c 0
 323 530 310 533 304 534 c 0
 299 535 307 545 317 550 c 0
 335 559 404 559 428 553 c 0
 456 546 447 521 447 458 c 0
 447 438 443 408 458 400 c 0
 482 388 539 501 549 531 c 0
 552 539 558 542 568 542 c 2
 653 542 l 2
 673 542 680 541 683 534 c 0
 688 522 674 494 639 447 c 0
 582 370 574 377 622 333 c 0
 668 291 677 270 679 267 c 0
 693 239 668 233 658 233 c 2
 582 233 l 2
 573 233 561 233 544 244 c 0
 515 263 489 314 468 308 c 0
 451 303 448 274 447 255 c 0
 446 239 437 234 427 234 c 2
 393 234 l 2
EndSplineSet
Layer: 2
Layer: 3
EndChar
StartChar: P
Encoding: 80 80 33
Width: 800
VWidth: 0
Flags: H
LayerCount: 4
Back
SplineSet
348.306640625 470.729492188 m 4
 224.178710938 455.619140625 131.86328125 373.8515625 142.28515625 288.247070312 c 4
 152.706054688 202.642578125 261.942382812 145.409179688 386.068359375 160.520507812 c 4
 510.196289062 175.630859375 602.51171875 257.3984375 592.08984375 343.002929688 c 4
 581.668945312 428.607421875 472.432617188 485.840820312 348.306640625 470.729492188 c 4
324.6640625 391.779296875 m 5
 382.275390625 406.299804688 439.245117188 377.630859375 451.8046875 327.798828125 c 4
 464.364257812 277.966796875 427.787109375 225.720703125 370.174804688 211.201171875 c 4
 312.563476562 196.680664062 255.592773438 225.349609375 243.034179688 275.181640625 c 4
 230.474609375 325.013671875 267.051757812 377.259765625 324.663085938 391.779296875 c 5
 324.6640625 391.779296875 l 5
295.669921875 308.47265625 m 4
 280.033203125 297.873046875 275.396484375 277.375 285.326171875 262.7265625 c 4
 295.25390625 248.078125 316.010742188 244.791015625 331.649414062 255.390625 c 4
 347.287109375 265.990234375 351.922851562 286.48828125 341.993164062 301.13671875 c 4
 332.064453125 315.78515625 311.307617188 319.072265625 295.669921875 308.47265625 c 4
373.389648438 328.859375 m 6
 373.388671875 328.859375 l 6
 365.435546875 328.505859375 358.9375 322.229492188 358.888671875 314.854492188 c 4
 358.837890625 307.478515625 365.255859375 301.77734375 373.208984375 302.130859375 c 4
 381.162109375 302.484375 387.659179688 308.759765625 387.708984375 316.135742188 c 4
 387.758789062 323.51171875 381.342773438 329.212890625 373.389648438 328.859375 c 6
586.71875 432.03125 m 4
 627.043945312 425.28515625 669.53125 399.54296875 669.53125 346.875 c 4
 669.53125 247.470703125 526.1015625 140.40625 350.473632812 140.40625 c 4
 218.536132812 140.40625 105.754882812 205.853515625 105.754882812 318.17578125 c 4
 105.754882812 462.9609375 279.811523438 623.708984375 370.908203125 623.5 c 4
 398.296875 623.4375 426.673828125 606.393554688 426.5625 571.09375 c 4
 426.470703125 541.971679688 414.1015625 526.4765625 420.3125 520.3125 c 4
 424.52734375 516.130859375 437.489257812 523.3125 442.96875 525.78125 c 4
 472.875 539.252929688 498.247070312 552.331054688 533.59375 552.34375 c 4
 564.404296875 552.354492188 590.013671875 535.515625 589.84375 492.96875 c 4
 589.795898438 481.125 586.692382812 464.560546875 580.786132812 449.716796875 c 4
 575.71875 436.986328125 582.817382812 432.684570312 586.71875 432.03125 c 4
352.0078125 447.6015625 m 4
 240.576171875 439.911132812 154.215820312 374.1796875 159.2734375 300.90625 c 4
 164.330078125 227.635742188 258.904296875 174.392578125 370.3359375 182.0859375 c 4
 481.765625 189.776367188 568.126953125 255.5078125 563.0703125 328.78125 c 4
 558.012695312 402.051757812 463.4375 455.294921875 352.0078125 447.6015625 c 4
569.96875 605.90234375 m 4
 630.62890625 610.006835938 663.890625 557.697265625 650.130859375 510.115234375 c 1028
561.005859375 691.703125 m 4
 690.052734375 700.453125 760.81640625 588.939453125 731.541015625 487.5 c 1028
EndSplineSet
Fore
SplineSet
348 471 m 4
 224 456 132 374 142 288 c 4
 152 202 262 146 386 161 c 4
 510 176 602 257 592 343 c 4
 582 429 472 486 348 471 c 4
325 392 m 5
 383 407 439 378 452 328 c 4
 465 278 428 226 370 211 c 4
 312 196 256 225 243 275 c 4
 230 325 267 377 325 392 c 5
 325 392 l 5
296 308 m 4
 280 297 275 278 285 263 c 4
 295 248 316 244 332 255 c 4
 348 266 352 286 342 301 c 4
 332 316 312 319 296 308 c 4
373 329 m 6
 373 329 l 6
 365 329 359 322 359 315 c 4
 359 308 365 302 373 302 c 4
 381 302 388 309 388 316 c 4
 388 323 381 329 373 329 c 6
587 432 m 4
 627 425 670 400 670 347 c 4
 670 248 526 140 350 140 c 4
 218 140 106 206 106 318 c 4
 106 463 280 624 371 624 c 4
 398 624 427 606 427 571 c 4
 427 542 414 526 420 520 c 4
 424 516 438 524 443 526 c 4
 473 539 499 552 534 552 c 4
 565 552 590 536 590 493 c 4
 590 481 587 465 581 450 c 4
 576 437 583 433 587 432 c 4
352 448 m 4
 241 440 154 374 159 301 c 4
 164 228 259 174 370 182 c 4
 481 190 568 256 563 329 c 4
 558 402 463 456 352 448 c 4
570 606 m 4
 631 610 664 558 650 510 c 1028
561 692 m 4
 690 701 761 589 732 488 c 1028
EndSplineSet
Layer: 2
Layer: 3
EndChar
StartChar: buffer
Encoding: 80 80 33
Width: 800
VWidth: 0
Flags: HW
LayerCount: 4
Back
SplineSet
419.306640625 139.091796875 m 5
 406.41015625 133.232421875 393.516601562 133.232421875 380.625976562 139.090820312 c 5
 381.772460938 210.936523438 l 5
 393.756835938 205.424804688 405.8359375 205.252929688 418.018554688 210.877929688 c 6
 572.403320312 283.276367188 l 6
 587.323242188 290.172851562 600.302734375 289.494140625 611.866210938 283.276367188 c 6
 650.848632812 265.189453125 l 6
 663.051757812 259.127929688 663.147460938 253.159179688 650.551757812 247.28515625 c 6
 419.306640625 139.091796875 l 5
419.306640625 282.872070312 m 5
 406.41015625 277.01171875 393.516601562 277.010742188 380.625976562 282.87109375 c 5
 381.772460938 354.716796875 l 5
 393.756835938 349.205078125 405.8359375 349.033203125 418.018554688 354.658203125 c 6
 572.403320312 427.0546875 l 6
 587.323242188 433.952148438 600.302734375 433.2734375 611.866210938 427.0546875 c 6
 650.848632812 408.967773438 l 6
 663.051757812 402.908203125 663.147460938 396.938476562 650.551757812 391.064453125 c 6
 419.306640625 282.872070312 l 5
419.306640625 426.651367188 m 6
 406.41015625 420.791015625 393.516601562 420.791015625 380.625976562 426.651367188 c 5
 380.172851562 660.381835938 l 5
 395.092773438 667.279296875 408.07421875 666.599609375 419.635742188 660.381835938 c 6
 650.848632812 552.551757812 l 6
 663.051757812 546.4921875 663.147460938 540.522460938 650.551757812 534.6484375 c 6
 419.306640625 426.651367188 l 6
EndSplineSet
Fore
SplineSet
381 139 m 6
 150 247 l 6
 137 253 137 259 149 265 c 6
 188 283 l 6
 200 289 211 291 228 283 c 6
 382 211 l 6
 394 205 406 205 418 211 c 6
 572 283 l 6
 589 291 600 289 612 283 c 6
 651 265 l 6
 663 259 663 253 650 247 c 6
 419 139 l 6
 406 133 394 133 381 139 c 6
381 283 m 6
 149 391 l 6
 137 397 137 403 149 409 c 6
 188 427 l 6
 200 433 213 434 228 427 c 6
 382 355 l 6
 394 349 406 349 418 355 c 6
 572 427 l 6
 587 434 600 433 612 427 c 6
 651 409 l 6
 663 403 663 397 651 391 c 6
 419 283 l 6
 406 277 394 277 381 283 c 6
381 427 m 6
 149 535 l 6
 136 541 138 547 150 553 c 6
 380 660 l 6
 395 667 405 667 420 660 c 6
 650 553 l 6
 662 547 664 541 651 535 c 6
 419 427 l 6
 406 421 394 421 381 427 c 6
EndSplineSet
Layer: 2
Layer: 3
EndChar
StartChar: Q
Encoding: 81 81 34
Width: 800
VWidth: 0
Flags: HWO
LayerCount: 4
Back
SplineSet
642.345703125 174.248046875 m 0
 576.641601562 125.783203125 481.424804688 100 399.4140625 100 c 0
 284.484375 100 180.970703125 142.470703125 102.651367188 213.216796875 c 0
 96.5048828125 218.754882812 102.00390625 226.346679688 109.38671875 222.046875 c 0
 193.890625 172.877929688 298.374023438 143.250976562 406.301757812 143.250976562 c 0
 479.123046875 143.250976562 559.155273438 158.377929688 632.793945312 189.603515625 c 0
 643.907226562 194.323242188 653.2109375 182.278320312 642.345703125 174.248046875 c 1024
669.685546875 205.463867188 m 0
 661.276367188 216.233398438 614.142578125 210.563476562 592.963867188 208.012695312 c 0
 586.551757812 207.271484375 585.563476562 212.865234375 591.346679688 216.936523438 c 0
 628.927734375 243.330078125 690.559570312 235.69921875 697.6953125 226.870117188 c 0
 704.92578125 217.946289062 695.831054688 156.180664062 660.590820312 126.686523438 c 0
 655.1484375 122.158203125 649.9921875 124.575195312 652.408203125 130.569335938 c 0
 660.342773438 150.376953125 678.077148438 194.694335938 669.685546875 205.463867188 c 1024
444.864257812 442.6640625 m 2
 444.864257812 411.237304688 445.653320312 385.069335938 429.786132812 357.1484375 c 0
 416.987304688 334.443359375 396.649414062 320.504882812 373.98828125 320.504882812 c 0
 343.086914062 320.504882812 324.984375 344.0859375 324.984375 378.932617188 c 0
 324.984375 447.6171875 386.568359375 460.109375 444.864257812 460.109375 c 1
 444.864257812 442.6640625 l 2
526.127929688 246.122070312 m 0
 520.78125 241.30078125 513.110351562 240.994140625 507.060546875 244.23828125 c 0
 480.280273438 266.50390625 475.502929688 276.8046875 460.86328125 297.974609375 c 1
 416.63671875 252.872070312 385.296875 239.372070312 328.008789062 239.372070312 c 0
 260.11328125 239.372070312 207.33984375 281.275390625 207.33984375 364.994140625 c 0
 207.33984375 430.434570312 242.755859375 474.923828125 293.293945312 496.751953125 c 0
 337.038085938 515.951171875 398.139648438 519.413085938 444.864257812 524.672851562 c 1
 444.864257812 535.10546875 l 2
 444.864257812 554.346679688 446.353515625 577.0078125 435.08984375 593.577148438 c 0
 425.271484375 608.435546875 406.423828125 614.528320312 389.85546875 614.528320312 c 0
 359.084960938 614.528320312 331.734375 598.749023438 325.028320312 566.137695312 c 0
 323.625976562 558.862304688 318.322265625 551.629882812 311.045898438 551.279296875 c 2
 232.893554688 559.73828125 l 2
 226.319335938 561.228515625 218.955078125 566.532226562 220.883789062 576.614257812 c 0
 238.85546875 671.421875 324.415039062 700 401.120117188 700 c 0
 440.349609375 700 491.6328125 689.568359375 522.534179688 659.893554688 c 0
 561.719726562 623.250976562 557.950195312 574.377929688 557.950195312 521.166992188 c 2
 557.950195312 395.544921875 l 2
 557.950195312 357.805664062 573.641601562 341.237304688 588.413085938 320.85546875 c 0
 593.541015625 313.579101562 594.680664062 304.813476562 588.150390625 299.465820312 c 0
 571.712890625 285.702148438 542.43359375 260.236328125 526.303710938 245.947265625 c 1
 526.127929688 246.122070312 l 1025
EndSplineSet
Fore
SplineSet
445 442 m 6
 445 411 445 383 430 357 c 4
 417 335 396 320 374 320 c 4
 343 320 325 345 325 379 c 4
 325 448 387 459 445 459 c 5
 445 442 l 6
526 246 m 4
 542 260 572 286 588 299 c 4
 595 304 593 314 588 321 c 4
 574 341 558 358 558 395 c 6
 558 521 l 6
 558 590 558 626 522 660 c 4
 491 690 440 700 401 700 c 4
 325 700 238 672 221 575 c 4
 219 565 227 560 233 559 c 5
 311 551 l 5
 318 551 324 559 325 566 c 4
 332 598 357 614 390 614 c 4
 408 614 425 608 435 593 c 4
 445 578 445 561 445 534 c 6
 445 524 l 5
 399 520 337 515 294 497 c 4
 243 475 207 431 207 364 c 4
 207 284 259 239 328 239 c 4
 385 239 417 253 461 298 c 5
 475 276 481 267 507 244 c 4
 512 240 521 242 526 246 c 4
EndSplineSet
Layer: 2
SplineSet
642 174 m 4
 652 181 645 194 632 189 c 4
 450 115 263 135 110 222 c 4
 103 226 98 219 104 213 c 4
 244 84 474 58 642 174 c 4
670 206 m 4
 678 196 660 150 652 130 c 4
 649 124 656 123 661 127 c 4
 696 156 705 218 698 227 c 4
 691 236 629 243 591 217 c 4
 583 211 590 207 594 208 c 4
 614 212 662 215 670 206 c 4
EndSplineSet
Layer: 3
EndChar
